{
.appVersion = "3231";
.formatVersion = 3;
DisplayStrings = (
"ƒ฿/hook.part ꞉ˮ˗꞊@&/ampersand.ss01 ¶§©®™°′″|¦†ℓ‡℮№₿₵¢₡¤$₫€₲₴₭₾₼₦₱₽₨₹₪£₸₮₩¥/liraTurkish.ss01 +−×÷=≠><≥≤±≈¬~^∅∞∫Ω∆∏∑√∂µ%‰↑↗→↘↓↙←↖↔↕●○◦◆◇◊■□▪▫▲▶▼◀△▷▽◁▴▸▾◂▵▹▿◃"
);
axes = (
{
name = "Element Shape";
tag = ELSH;
}
);
customParameters = (
{
name = "Virtual Master";
value = (
{
Axis = "Element Shape";
Location = 0;
}
);
},
{
name = "Virtual Master";
value = (
{
Axis = "Element Shape";
Location = 50;
}
);
},
{
name = "Virtual Master";
value = (
{
Axis = "Element Shape";
Location = 100;
}
);
},
{
name = "Use Typo Metrics";
value = 1;
},
{
name = blueScale;
value = 0.04;
},
{
name = blueShift;
value = 7;
},
{
name = blueFuzz;
value = 1;
},
{
name = "Axis Mappings";
value = {
ELSH = {
0 = 0;
50 = 50;
100 = 100;
};
};
},
{
name = "Variable Font Origin";
value = m01;
}
);
date = "2023-09-29 07:07:32 +0000";
familyName = Danfo;
featurePrefixes = (
{
automatic = 1;
code = "languagesystem DFLT dflt;

languagesystem latn dflt;
languagesystem latn AZE;
languagesystem latn CRT;
languagesystem latn KAZ;
languagesystem latn TAT;
languagesystem latn TRK;
languagesystem latn ROM;
languagesystem latn MOL;
languagesystem latn MAH;
languagesystem latn CAT;
languagesystem latn NLD;
";
name = Languagesystems;
}
);
features = (
{
automatic = 1;
code = "feature locl;
feature subs;
feature sinf;
feature sups;
feature numr;
feature dnom;
feature frac;
feature ordn;
feature lnum;
feature pnum;
feature tnum;
feature onum;
feature case;
feature zero;
feature fwid;
feature ss01;
feature ss02;
feature ss03;
feature ss05;
";
tag = aalt;
},
{
automatic = 1;
code = "lookup ccmp_DFLT_1 {
	lookupflag 0;
	sub acutecomb macroncomb by acutecomb_macroncomb;
	sub brevecomb acutecomb by brevecomb_acutecomb;
	sub brevecomb gravecomb by brevecomb_gravecomb;
	sub brevecomb hookabovecomb by brevecomb_hookabovecomb;
	sub brevecomb tildecomb by brevecomb_tildecomb;
	sub circumflexcomb acutecomb by circumflexcomb_acutecomb;

glyphs = (
{
color = 8;
glyphname = A;
lastChange = "2023-12-15 15:14:00 +0000";
layers = (
{
anchors = (
{
name = bottom;
pos = (337,0);
},
{
name = ogonek;
pos = (583,0);
},
{
name = top;
pos = (345,716);
}
);
layerId = m01;
shapes = (
{
closed = 1;
nodes = (
(286,0,l),
(286,439,l),
(260,439,ls),
(243,439,o),
(226,450,o),
(226,472,cs),
(226,488,o),
(236,505,o),
(260,505,cs),
(360,505,ls),
(381,505,o),
(394,492,o),
(394,473,cs),
(394,453,o),
(381,439,o),
(360,439,cs),
(344,439,l),
(344,0,l),
(671,0,l),
(671,434,l),
(611,434,o),
(601,451,o),
(564,517,cs),
(452,716,l),
(258,716,l),
(137,514,ls),
(95,445,o),
(77,434,o),
(29,434,c),
(29,0,l)
);
},
{
closed = 1;
nodes = (
(309,647,l),
(357,564,l),
(260,564,l)
);
}
);
width = 700;
}
);
unicode = 65;
},
{
color = 11;
glyphname = "Alpha-latin";
lastChange = "2023-12-15 14:48:42 +0000";
layers = (
{
background = {
shapes = (
{
closed = 1;
nodes = (
(342,-8,ls),
(440,-8,o),
(474,48,o),
(474,110,cs),
(474,172,l),
(517,172,o),
(527,148,o),
(533,113,cs),
(552,0,l),
(642,0,l),
(642,434,l),
(592,434,o),
(575,455,o),
(575,495,cs),
(575,569,ls),
(575,609,o),
(592,636,o),
(642,636,c),
(642,716,l),
(437,716,l),
(219,716,ls),
(110,716,o),
(29,643,o),
(29,536,cs),
(29,178,ls),
(29,71,o),
(109,-8,o),
(218,-8,cs)
);
},
{
closed = 1;
nodes = (
(248,439,o),
(231,460,o),
(231,500,cs),
(231,547,ls),
(231,609,o),
(248,636,o),
(298,636,cs),
(356,636,ls),
(406,636,o),
(423,609,o),
(423,564,cs),
(423,500,l),
(423,454,o),
(399,439,o),
(375,439,cs),
(272,439,ls)
);
}
);
};
layerId = m01;
shapes = (
{
closed = 1;
nodes = (
(242,439,o),
(218,450,o),
(219,492,cs),
(220,569,ls),
(221,609,o),
(237,636,o),
(287,636,cs),
(325,636,ls),
(385,636,o),
(392,609,o),
(392,569,cs),
(392,492,ls),
(392,450,o),
(369,439,o),
(355,439,cs),
(256,439,ls)
);
},
{
closed = 1;
nodes = (
(223,716,ls),
(100,716,o),
(29,643,o),
(29,536,cs),
(29,186,ls),
(29,79,o),
(80,0,o),
(226,0,cs),
(332,0,ls),
(430,0,o),
(464,56,o),
(464,118,cs),
(464,180,l),
(507,180,o),
(517,148,o),
(523,113,cs),
(542,0,l),
(626,0,l),
(626,434,l),
(576,434,o),
(559,460,o),
(559,500,cs),
(559,564,ls),
(559,604,o),
(576,636,o),
(626,636,c),
(626,716,l)
);
}
);
width = 655;
}
);
metricRight = H;
unicode = 11373;
},
{
color = 11;
glyphname = Astroke;
lastChange = "2023-12-15 14:35:06 +0000";
layers = (
{
layerId = m01;
shapes = (
{
ref = A;
},
{
closed = 1;
nodes = (
(467,627,l),
(565,791,l),
(475,792,l),
(398,672,l)
);
},
{
closed = 1;
nodes = (
(71,-60,l),
(129,57,l),
(69,137,l),
(-19,-59,l)
);
}
);
width = 700;
}
);
unicode = 570;
},
{
color = 11;
glyphname = AE;
lastChange = "2023-12-15 14:35:06 +0000";
layers = (
{
anchors = (
{
name = bottom;
pos = (337,0);
},
{
name = ogonek;
pos = (442,0);
},
{
name = top;
pos = (544,716);
}
);
layerId = m01;
shapes = (
{
closed = 1;
nodes = (
(308,0,l),
(308,439,l),
(296,439,ls),
(279,439,o),
(262,450,o),
(262,472,cs),
(262,488,o),
(272,505,o),
(296,505,cs),
(377,505,ls),
(398,505,o),
(411,492,o),
(411,473,cs),
(411,453,o),
(398,439,o),
(377,439,cs),
(366,439,l),
(366,0,l),
(528,0,l),
(528,580,l),
(452,716,l),
(398,716,l),
(167,514,ls),
(107,461,o),
(77,434,o),
(29,434,c),
(29,0,l)
);
},
{
closed = 1;
nodes = (
(411,632,l),
(411,564,l),
(334,564,l)
);
},
{
closed = 1;
nodes = (
(861,0,l),
(861,500,l),
(771,500,l),
(771,460,o),
(754,439,o),
(704,439,cs),
(577,439,l),
(577,505,l),
(694,505,l),
(694,575,l),
(577,575,l),
(577,636,l),
(698,636,ls),
(748,636,o),
(765,609,o),
(765,569,c),
(855,569,l),
(855,716,l),
(426,716,l),
(426,500,l),
(436,500,l),
(436,460,o),
(419,434,o),
(369,434,cs),
(366,434,l),
(365,0,l)
);
}
);
width = 890;
}
);
metricLeft = A;
metricRight = E;
unicode = 198;
},
{
color = 11;
glyphname = B;
lastChange = "2023-12-15 14:35:06 +0000";
layers = (
{
anchors = (
{
name = bottom;
pos = (317,0);
},
{
name = center;
pos = (333,358);
},
{
name = hookjoin;
pos = (29,636);
},
{
name = top;
pos = (322,716);
}
);
layerId = m01;
shapes = (
{
closed = 1;
nodes = (
(425,0,ls),
(534,0,o),
(614,79,o),
(614,186,cs),
(614,375,ls),
(614,518,o),
(525,539,o),
(456,539,c),
(456,544,l),
(474,544,ls),
(511,544,o),
(589,560,o),
(589,628,c),
(589,712,o),
(500,716,o),
(460,716,c),
(29,716,l),
(29,636,l),
(79,636,o),
(96,609,o),
(96,569,cs),
(96,495,ls),
(96,455,o),
(79,434,o),
(29,434,c),
(29,0,l)
);
},
{
closed = 1;
nodes = (
(264,505,l),
(379,505,ls),
(407,505,o),
(420,493,o),
(420,472,cs),
(420,450,o),
(404,439,o),
(378,439,cs),
(264,439,l)
);
},
{
closed = 1;
nodes = (
(264,636,l),
(359,636,ls),
(387,636,o),
(400,622,o),
(400,604,cs),
(400,586,o),
(384,575,o),
(358,575,cs),
(264,575,l)
);
}
);
width = 639;
}
);
metricLeft = H;
unicode = 66;
},
{
color = 11;
glyphname = "Beta-latin";
lastChange = "2023-12-15 14:35:06 +0000";
layers = (
{
anchors = (
{
name = bottom;
pos = (342,0);
},
{
name = bottomleft;
pos = (3,-232);
},
{
name = center;
pos = (342,450);
},
{
name = ogonek;
pos = (323,484);
},
{
name = top;
pos = (342,900);
}
);
layerId = m01;
shapes = (
{
closed = 1;
nodes = (
(533,-6,o),
(609,83,o),
(609,265,cs),
(609,294,ls),
(609,518,o),
(520,540,o),
(451,540,c),
(451,543,l),
(469,543,ls),
(506,543,o),
(568,555,o),
(568,624,cs),
(568,699,o),
(487,716,o),
(420,716,cs),
(277,716,ls),
(74,716,o),
(25,664,o),
(25,439,cs),
(25,131,l),
(189,131,l),
(189,28,o),
(284,-6,o),
(376,-6,cs)
);
},
{
closed = 1;
nodes = (
(250,-126,l),
(250,-46,l),
(200,-46,o),
(183,-14,o),
(183,26,cs),
(183,260,l),
(25,260,l),
(25,21,ls),
(25,-19,o),
(8,-46,o),
(-42,-46,c),
(-42,-126,l)
);
},
{
closed = 1;
nodes = (
(254,439,o),
(209,455,o),
(209,505,cs),
(209,543,ls),
(209,615,o),
(226,638,o),
(292,638,cs),
(337,638,ls),
(369,638,o),
(384,625,o),
(384,605,cs),
(384,588,o),
(369,575,o),
(348,575,cs),
(277,575,l),
(277,505,l),
(369,505,ls),
(397,505,o),
(410,493,o),
(410,472,cs),
(410,450,o),
(394,439,o),
(368,439,cs),
(281,439,ls)
);
}
);
width = 634;
}
);
metricRight = B;
unicode = 42932;
},
{
color = 11;
glyphname = Bhook;
lastChange = "2023-12-15 14:35:06 +0000";
layers = (
{
anchors = (
{
name = bottom;
pos = (475,0);
},
{
name = center;
pos = (491,358);
},
{
name = hookjoin;
pos = (187,636);
},
{
name = top;
pos = (480,716);
}
);
layerId = m01;
shapes = (
{
closed = 1;
nodes = (
(583,0,ls),
(692,0,o),
(772,79,o),
(772,186,cs),
(772,375,ls),
(772,518,o),
(683,539,o),
(614,539,c),
(614,544,l),
(632,544,ls),
(669,544,o),
(747,560,o),
(747,628,c),
(747,712,o),
(658,716,o),
(618,716,c),
(187,716,l),
(187,636,l),
(237,636,o),
(254,609,o),
(254,569,cs),
(254,495,ls),
(254,455,o),
(237,434,o),
(187,434,c),
(187,0,l)
);
},
{
closed = 1;
nodes = (
(422,505,l),
(537,505,ls),
(565,505,o),
(578,493,o),
(578,472,cs),
(578,450,o),
(562,439,o),
(536,439,cs),
(422,439,l)
);
},
{
closed = 1;
nodes = (
(422,636,l),
(517,636,ls),
(545,636,o),
(558,622,o),
(558,604,cs),
(558,586,o),
(542,575,o),
(516,575,cs),
(422,575,l)
);
},
{
closed = 1;
nodes = (
(123,547,l),
(123,592,o),
(140,636,o),
(187,636,c),
(296,636,l),
(296,716,l),
(149,716,ls),
(59,716,o),
(0,638,o),
(0,547,c)
);
}
);
width = 797;
}
);
unicode = 385;
},
{
color = 11;
glyphname = Bstroke;
lastChange = "2023-12-15 14:35:06 +0000";
layers = (
{
anchors = (
{
name = bottom;
pos = (317,0);
},
{
name = center;
pos = (333,358);
},
{
name = hookjoin;
pos = (29,636);
},
{
name = top;
pos = (322,716);
}
);
layerId = m01;
shapes = (
{
closed = 1;
nodes = (
(425,0,ls),
(534,0,o),
(614,79,o),
(614,186,cs),
(614,375,ls),
(614,518,o),
(525,539,o),
(456,539,c),
(456,544,l),
(474,544,ls),
(511,544,o),
(589,560,o),
(589,628,c),
(589,712,o),
(500,716,o),
(460,716,c),
(29,716,l),
(29,636,l),
(79,636,o),
(96,609,o),
(96,569,cs),
(96,495,ls),
(96,455,o),
(79,434,o),
(29,434,c),
(29,0,l)
);
},
{
closed = 1;
nodes = (
(264,505,l),
(379,505,ls),
(407,505,o),
(420,493,o),
(420,472,cs),
(420,450,o),
(404,439,o),
(378,439,cs),
(264,439,l)
);
},
{
closed = 1;
nodes = (
(264,636,l),
(359,636,ls),
(387,636,o),
(400,622,o),
(400,604,cs),
(400,586,o),
(384,575,o),
(358,575,cs),
(264,575,l)
);
},
{
closed = 1;
nodes = (
(29,479,l),
(144,479,l),
(144,531,l),
(29,531,l)
);
}
);
width = 639;
}
);
unicode = 579;
},
{
color = 11;
glyphname = C;
lastChange = "2023-12-15 14:35:06 +0000";
layers = (
{
anchors = (
{
name = bottom;
pos = (328,0);
},
{
name = hooktop;
pos = (587,564);
},
{
name = top;
pos = (318,716);
}
);
layerId = m01;
shapes = (
{
closed = 1;
nodes = (
(398,-8,ls),
(507,-8,o),
(587,71,o),
(587,178,cs),
(587,500,l),
(423,500,l),
(423,460,o),
(406,439,o),
(382,439,cs),
(272,439,ls),
(248,439,o),
(231,460,o),
(231,500,cs),
(231,547,ls),
(231,609,o),
(248,636,o),
(298,636,cs),
(356,636,ls),
(406,636,o),
(423,609,o),
(423,564,c),
(587,564,l),
(587,656,o),
(513,721,o),
(426,721,cs),
(218,722,ls),
(109,723,o),
(29,643,o),
(29,536,cs),
(29,178,ls),
(29,71,o),
(109,-8,o),
(218,-8,c)
);
},
{
pos = (-15,5);
ref = cutdetail.part;
}
);
width = 616;
}
);
unicode = 67;
},
{
glyphname = "Chi-latin";
lastChange = "2023-12-15 14:50:06 +0000";
layers = (
{
anchors = (
{
name = bottom;
pos = (306,0);
},
{
name = top;
pos = (306,900);
}
);
layerId = m01;
shapes = (
{
closed = 1;
nodes = (
(294,0,l),
(294,439,l),
(262,439,ls),
(247,439,o),
(248,453,o),
(257,458,cs),
(309,489,l),
(368,459,ls),
(386,450,o),
(379,439,o),
(366,439,cs),
(349,439,l),
(349,0,l),
(666,0,l),
(666,434,l),
(647,434,ls),
(633,434,o),
(611,440,o),
(592,451,cs),
(436,543,l),
(569,619,ls),
(587,629,o),
(605,636,o),
(635,636,cs),
(649,636,l),
(649,716,l),
(392,716,l),
(392,631,l),
(406,631,ls),
(428,631,o),
(425,615,o),
(414,609,cs),
(367,583,l),
(317,612,ls),
(305,619,o),
(305,631,o),
(317,631,cs),
(337,631,l),
(337,716,l),
(27,716,l),
(27,636,l),
(43,636,ls),
(70,636,o),
(96,619,o),
(114,608,cs),
(242,528,l),
(108,447,ls),
(91,437,o),
(65,434,o),
(27,434,c),
(27,0,l)
);
}
);
width = 693;
}
);
unicode = 42931;
},
{
color = 11;
glyphname = Cstroke;
lastChange = "2023-12-15 14:35:06 +0000";
layers = (
{
layerId = m01;
shapes = (
{
ref = C;
},
{
closed = 1;
nodes = (
(478,671,l),
(550,791,l),
(460,792,l),
(383,672,l)
);
},
{
closed = 1;
nodes = (
(156,-60,l),
(214,57,l),
(119,59,l),
(66,-59,l)
);
}
);
width = 616;
}
);
metricLeft = O;
metricRight = O;
unicode = 571;
},
{
color = 11;
glyphname = D;
lastChange = "2023-12-15 14:35:06 +0000";
layers = (
{
anchors = (
{
name = bottom;
pos = (303,0);
},
{
name = center;
pos = (303,358);
},
{
name = hookjoin;
pos = (29,636);
},
{
name = top;
pos = (322,716);
}
);
layerId = m01;
shapes = (
{
closed = 1;
nodes = (
(405,0,ls),
(514,0,o),
(594,79,o),
(594,186,cs),
(594,530,ls),
(594,637,o),
(514,716,o),
(405,716,c),
(29,716,l),
(29,636,l),
(79,636,o),
(96,609,o),
(96,569,cs),
(96,495,ls),
(96,455,o),
(79,434,o),
(29,434,c),
(29,0,l)
);
},
{
closed = 1;
nodes = (
(264,636,l),
(335,636,ls),
(385,636,o),
(402,609,o),
(402,569,cs),
(402,500,ls),
(402,460,o),
(385,439,o),
(335,439,cs),
(264,439,l)
);
}
);
width = 623;
}
);
metricLeft = H;
metricRight = O;
unicode = 68;
},
{
color = 11;
glyphname = Eth;
lastChange = "2023-12-15 14:35:06 +0000";
layers = (
{
layerId = m01;
shapes = (
{
closed = 1;
nodes = (
(323,501,l),
(323,571,l),
(31,571,l),
(31,501,l)
);
},
{
closed = 1;
nodes = (
(405,0,ls),
(514,0,o),
(594,79,o),
(594,186,cs),
(594,530,ls),
(594,637,o),
(514,716,o),
(405,716,c),
(29,716,l),
(29,636,l),
(79,636,o),
(96,609,o),
(96,569,cs),
(96,495,ls),
(96,455,o),
(79,434,o),
(29,434,c),
(29,0,l)
);
},
{
closed = 1;
nodes = (
(264,636,l),
(335,636,ls),
(385,636,o),
(402,609,o),
(402,569,cs),
(402,500,ls),
(402,460,o),
(385,439,o),
(335,439,cs),
(264,439,l)
);
}
);
width = 623;
}
);
metricLeft = D;
metricRight = D;
unicode = 208;
},
{
color = 11;
glyphname = E;
lastChange = "2023-12-15 14:35:06 +0000";
layers = (
{
anchors = (
{
name = bottom;
pos = (288,0);
},
{
name = ogonek;
pos = (547,0);
},
{
name = top;
pos = (298,716);
}
);
layerId = m01;
shapes = (
{
closed = 1;
nodes = (
(547,0,l),
(547,500,l),
(457,500,l),
(457,460,o),
(440,439,o),
(390,439,cs),
(263,439,l),
(263,505,l),
(380,505,l),
(380,575,l),
(263,575,l),
(263,636,l),
(384,636,ls),
(434,636,o),
(451,609,o),
(451,569,c),
(541,569,l),
(541,716,l),
(29,716,l),
(29,636,l),
(79,636,o),
(97,604,o),
(97,564,cs),
(97,500,ls),
(97,460,o),
(80,434,o),
(30,434,c),
(29,0,l)
);
}
);
width = 576;
}
);
metricLeft = H;
metricWidth = "576/w";
unicode = 69;
},
{
color = 11;
glyphname = Eopen;
lastChange = "2023-12-15 14:35:06 +0000";
layers = (
{
layerId = m01;
shapes = (
{
closed = 1;
nodes = (
(403,453,o),
(388,439,o),
(356,439,cs),
(266,440,ls),
(237,440,o),
(219,449,o),
(219,472,cs),
(219,492,o),
(236,505,o),
(266,505,cs),
(346,504,l),
(346,575,l),
(292,575,ls),
(263,575,o),
(245,587,o),
(245,606,cs),
(245,625,o),
(262,636,o),
(292,636,cs),
(341,636,ls),
(371,636,o),
(388,625,o),
(388,606,cs),
(388,575,l),
(554,575,l),
(554,629,ls),
(554,687,o),
(510,715,o),
(416,715,cs),
(189,716,ls),
(95,716,o),
(51,689,o),
(51,631,cs),
(51,578,o),
(86,543,o),
(140,543,cs),
(178,543,l),
(178,540,l),
(75,540,o),
(20,483,o),
(20,375,cs),
(20,179,ls),
(20,72,o),
(100,-6,o),
(209,-7,cs),
(403,-8,ls),
(512,-9,o),
(574,71,o),
(574,178,cs),
(574,492,l),
(403,492,l),
(403,470,l)
);
}
);
width = 603;
}
);
metricRight = E;
unicode = 400;
},
{
color = 11;
glyphname = Esh;
lastChange = "2023-12-15 14:35:06 +0000";
layers = (
{
anchors = (
{
name = bottom;
pos = (298,0);
},
{
name = center;
pos = (298,358);
},
{
name = ogonek;
pos = (631,0);
},
{
name = top;
pos = (297,716);
},
{
name = topleft;
pos = (41,716);
}
);
layerId = m01;
shapes = (
{
closed = 1;
nodes = (
(541,-2,l),
(541,497,l),
(448,497,l),
(448,457,o),
(430,437,o),
(388,437,cs),
(258,437,l),
(384,527,l),
(238,634,l),
(377,634,ls),
(429,634,o),
(446,607,o),
(446,567,c),
(540,567,l),
(540,714,l),
(27,716,l),
(27,628,l),
(161,529,l),
(28,434,l),
(27,0,l)
);
}
);
width = 570;
}
);
metricRight = E;
unicode = 425;
},
{
color = 11;
glyphname = Estroke;
lastChange = "2023-12-15 14:35:06 +0000";
layers = (
{
anchors = (
{
name = bottom;
pos = (288,0);
},
{
name = ogonek;
pos = (547,0);
},
{
name = top;
pos = (298,716);
}
);
layerId = m01;
shapes = (
{
closed = 1;
nodes = (
(547,0,l),
(547,500,l),
(457,500,l),
(457,460,o),
(440,439,o),
(390,439,cs),
(263,439,l),
(263,505,l),
(380,505,l),
(380,575,l),
(263,575,l),
(263,636,l),
(384,636,ls),
(434,636,o),
(451,609,o),
(451,569,c),
(541,569,l),
(541,716,l),
(29,716,l),
(29,636,l),
(79,636,o),
(97,604,o),
(97,564,cs),
(97,500,ls),
(97,460,o),
(80,434,o),
(30,434,c),
(29,0,l)
);
},
{
closed = 1;
nodes = (
(515,627,l),
(613,791,l),
(523,792,l),
(446,672,l)
);
},
{
closed = 1;
nodes = (
(71,-60,l),
(129,57,l),
(69,137,l),
(-19,-59,l)
);
}
);
width = 576;
}
);
unicode = 582;
},
{
color = 11;
glyphname = Schwa;
lastChange = "2023-12-15 14:35:06 +0000";
layers = (
{
layerId = m01;
shapes = (
{
closed = 1;
nodes = (
(133,716,o),
(68,664,o),
(68,591,c),
(252,591,l),
(252,615,o),
(279,636,o),
(344,636,cs),
(392,636,o),
(427,615,o),
(427,575,cs),
(427,560,l),
(120,560,l),
(29,560,o),
(19,472,o),
(19,428,c),
(19,265,ls),
(19,73,o),
(158,-10,o),
(329,-9,cs),
(507,-8,o),
(610,132,o),
(610,268,cs),
(610,487,ls),
(610,595,o),
(583,716,o),
(329,716,cs)
);
},
{
closed = 1;
nodes = (
(427,465,ls),
(427,446,o),
(410,434,o),
(387,434,cs),
(296,434,ls),
(266,434,o),
(249,444,o),
(249,463,cs),
(249,482,o),
(267,495,o),
(296,496,cs),
(427,496,l)
);
}
);
width = 638;
}
);
unicode = 399;
},
{
color = 11;
glyphname = Ezh;
lastChange = "2023-12-15 14:35:06 +0000";
layers = (
{
anchors = (
{
name = top;
pos = (297,716);
}
);
background = {
shapes = (
{
pos = (-20,0);
ref = Z;
}
);
};
layerId = m01;
shapes = (
{
closed = 1;
nodes = (
(401,-6,ls),
(510,-6,o),
(590,73,o),
(590,180,cs),
(590,404,ls),
(590,547,o),
(502,569,o),
(447,569,c),
(557,642,l),
(557,716,l),
(44,715,l),
(44,568,l),
(154,568,l),
(154,608,o),
(171,633,o),
(221,633,cs),
(374,633,l),
(278,575,l),
(278,505,l),
(353,505,ls),
(386,505,o),
(391,495,o),
(391,474,cs),
(391,454,o),
(376,439,o),
(343,439,cs),
(230,439,ls),
(206,439,o),
(189,462,o),
(189,497,c),
(25,497,l),
(25,180,ls),
(25,73,o),
(105,-6,o),
(214,-6,cs)
);
}
);
width = 610;
}
);
unicode = 439;
},
{
color = 11;
glyphname = F;
lastChange = "2023-12-15 14:35:06 +0000";
layers = (
{
anchors = (
{
name = bottom;
pos = (325,0);
},
{
name = top;
pos = (287,702);
}
);
layerId = m01;
shapes = (
{
closed = 1;
nodes = (
(36,0,l),
(444,0,l),
(444,439,l),
(330,439,ls),
(280,439,o),
(263,462,o),
(263,502,c),
(381,502,l),
(381,572,l),
(263,572,l),
(263,636,l),
(381,636,ls),
(431,636,o),
(448,609,o),
(448,569,c),
(538,569,l),
(538,716,l),
(29,716,l),
(29,636,l),
(79,636,o),
(97,604,o),
(97,564,cs),
(97,500,ls),
(97,460,o),
(80,434,o),
(30,434,c),
(29,0,l)
);
}
);
width = 554;
}
);
metricLeft = H;
unicode = 70;
},
{
color = 11;
glyphname = G;
lastChange = "2023-12-15 14:35:06 +0000";
layers = (
{
anchors = (
{
name = bottom;
pos = (328,0);
},
{
name = hooktop;
pos = (587,564);
},
{
name = top;
pos = (324,716);
}
);
layerId = m01;
shapes = (
{
closed = 1;
nodes = (
(302,-8,ls),
(405,-8,o),
(439,48,o),
(439,110,cs),
(439,172,l),
(482,172,o),
(497,148,o),
(497,113,cs),
(497,0,l),
(587,0,l),
(587,500,l),
(423,500,l),
(423,454,o),
(399,439,o),
(375,439,cs),
(272,439,ls),
(248,439,o),
(231,460,o),
(231,500,cs),
(231,547,ls),
(231,609,o),
(248,636,o),
(298,636,cs),
(356,636,ls),
(406,636,o),
(423,609,o),
(423,564,c),
(587,564,l),
(587,656,o),
(513,721,o),
(426,721,cs),
(218,722,ls),
(109,723,o),
(29,643,o),
(29,536,cs),
(29,178,ls),
(29,71,o),
(109,-8,o),
(218,-8,cs)
);
},
{
pos = (-15,5);
ref = cutdetail.part;
}
);
width = 616;
}
);
unicode = 71;
},
{
color = 11;
glyphname = Glottalstopsmall;
lastChange = "2023-12-15 14:35:06 +0000";
layers = (
{
layerId = m01;
shapes = (
{
closed = 1;
nodes = (
(150,438,l),
(150,368,ls),
(150,328,o),
(133,307,o),
(83,307,c),
(83,-1,l),
(395,-1,l),
(395,307,l),
(345,307,o),
(328,333,o),
(328,373,cs),
(328,438,l)
);
},
{
closed = 1;
nodes = (
(150,368,l),
(302,368,ls),
(431,368,o),
(543,421,o),
(543,560,cs),
(543,648,o),
(478,723,o),
(334,722,cs),
(161,721,ls),
(74,720,o),
(0,656,o),
(0,564,c),
(164,564,l),
(164,609,o),
(194,636,o),
(244,636,cs),
(275,636,ls),
(325,636,o),
(371,620,o),
(371,577,cs),
(371,506,o),
(295,512,o),
(255,512,cs),
(150,513,l)
);
}
);
width = 553;
}
);
unicode = 577;
},
{
color = 8;
glyphname = H;
lastChange = "2023-12-15 14:47:56 +0000";
layers = (
{
.lastUpdate = 726149570.159;
anchors = (
{
name = bottom;
pos = (337,0);
},
{
name = center;
pos = (349,358);
},
{
name = top;
pos = (349,716);
},
{
name = topleft;
pos = (0,716);
}
);
background = {
shapes = (
{
closed = 1;
nodes = (
(671,0,l),
(671,434,l),
(621,434,o),
(604,460,o),
(604,500,cs),
(604,564,ls),
(604,604,o),
(621,636,o),
(671,636,c),
(671,716,l),
(379,716,l),
(379,631,l),
(429,631,o),
(446,604,o),
(446,564,cs),
(446,500,ls),
(446,460,o),
(429,439,o),
(379,439,c),
(379,0,l)
);
},
{
closed = 1;
nodes = (
(321,0,l),
(321,439,l),
(271,439,o),
(254,460,o),
(254,500,cs),
(254,564,ls),
(254,604,o),
(271,631,o),
(321,631,c),
(321,716,l),
(29,716,l),
(29,636,l),
(79,636,o),
(96,604,o),
(96,564,cs),
(96,500,ls),
(96,460,o),
(79,434,o),
(29,434,c),
(29,0,l)
);
},
{
closed = 1;
nodes = (
(470,505,l),
(470,575,l),
(229,575,l),
(229,505,l)
);
}
);
};
layerId = m01;
shapes = (
{
closed = 1;
nodes = (
(321,0,l),
(321,439,l),
(271,439,o),
(254,460,o),
(254,500,cs),
(254,505,l),
(446,505,l),
(446,500,ls),
(446,460,o),
(429,439,o),
(379,439,c),
(379,0,l),
(671,0,l),
(671,434,l),
(621,434,o),
(604,460,o),
(604,500,cs),
(604,564,ls),
(604,604,o),
(621,636,o),
(671,636,c),
(671,716,l),
(379,716,l),
(379,631,l),
(424,631,o),
(442,609,o),
(446,575,c),
(254,575,l),
(258,609,o),
(276,631,o),
(321,631,c),
(321,716,l),
(29,716,l),
(29,636,l),
(79,636,o),
(96,604,o),
(96,564,cs),
(96,500,ls),
(96,460,o),
(79,434,o),
(29,434,c),
(29,0,l)
);
},
{
angle = 90;
pos = (83,0);
ref = _part.cut;
scale = (1,-1);
},
{
angle = 90;
pos = (435,0);
ref = _part.cut;
scale = (1,-1);
},
{
pos = (29,139);
ref = _part.cut;
},
{
pos = (671,139);
ref = _part.cut;
scale = (-1,1);
}
);
width = 700;
},
{
.lastUpdate = 726149570.159;
anchors = (
{
name = bottom;
pos = (337,0);
},
{
name = center;
pos = (349,358);
},
{
name = top;
pos = (349,716);
},
{
name = topleft;
pos = (0,716);
}
);
associatedMasterId = m01;
attr = {
coordinates = (
50
);
};
background = {
shapes = (
{
closed = 1;
nodes = (
(671,0,l),
(671,434,l),
(621,434,o),
(604,460,o),
(604,500,cs),
(604,564,ls),
(604,604,o),
(621,636,o),
(671,636,c),
(671,716,l),
(379,716,l),
(379,631,l),
(429,631,o),
(446,604,o),
(446,564,cs),
(446,500,ls),
(446,460,o),
(429,439,o),
(379,439,c),
(379,0,l)
);
},
{
closed = 1;
nodes = (
(321,0,l),
(321,439,l),
(271,439,o),
(254,460,o),
(254,500,cs),
(254,564,ls),
(254,604,o),
(271,631,o),
(321,631,c),
(321,716,l),
(29,716,l),
(29,636,l),
(79,636,o),
(96,604,o),
(96,564,cs),
(96,500,ls),
(96,460,o),
(79,434,o),
(29,434,c),
(29,0,l)
);
},
{
closed = 1;
nodes = (
(470,505,l),
(470,575,l),
(229,575,l),
(229,505,l)
);
}
);
};
layerId = "2060CD28-115C-4079-92EC-44021D70EF65";
name = "{50} Dec 15, 23 at 09:13";
shapes = (
{
closed = 1;
nodes = (
(321,0,l),
(321,439,l),
(271,439,o),
(254,460,o),
(254,500,cs),
(254,505,l),
(446,505,l),
(446,500,ls),
(446,460,o),
(429,439,o),
(379,439,c),
(379,0,l),
(671,0,l),
(671,434,l),
(621,434,o),
(604,460,o),
(604,500,cs),
(604,564,ls),
(604,604,o),
(621,636,o),
(671,636,c),
(671,716,l),
(379,716,l),
(379,631,l),
(424,631,o),
(442,609,o),
(446,575,c),
(254,575,l),
(258,609,o),
(276,631,o),
(321,631,c),
(321,716,l),
(29,716,l),
(29,636,l),
(79,636,o),
(96,604,o),
(96,564,cs),
(96,500,ls),
(96,460,o),
(79,434,o),
(29,434,c),
(29,0,l)
);
},
{
angle = 90;
pos = (83,0);
ref = _part.cut;
scale = (1,-1);
},
{
angle = 90;
pos = (435,0);
ref = _part.cut;
scale = (1,-1);
},
{
pos = (29,139);
ref = _part.cut;
},
{
pos = (671,139);
ref = _part.cut;
scale = (-1,1);
}
);
width = 700;
},
{
.lastUpdate = 726149570.159;
anchors = (
{
name = bottom;
pos = (337,0);
},
{
name = center;
pos = (349,358);
},
{
name = top;
pos = (349,716);
},
{
name = topleft;
pos = (0,716);
}
);
associatedMasterId = m01;
attr = {
coordinates = (
100
);
};
background = {
shapes = (
{
closed = 1;
nodes = (
(671,0,l),
(671,434,l),
(621,434,o),
(604,460,o),
(604,500,cs),
(604,564,ls),
(604,604,o),
(621,636,o),
(671,636,c),
(671,716,l),
(379,716,l),
(379,631,l),
(429,631,o),
(446,604,o),
(446,564,cs),
(446,500,ls),
(446,460,o),
(429,439,o),
(379,439,c),
(379,0,l)
);
},
{
closed = 1;
nodes = (
(321,0,l),
(321,439,l),
(271,439,o),
(254,460,o),
(254,500,cs),
(254,564,ls),
(254,604,o),
(271,631,o),
(321,631,c),
(321,716,l),
(29,716,l),
(29,636,l),
(79,636,o),
(96,604,o),
(96,564,cs),
(96,500,ls),
(96,460,o),
(79,434,o),
(29,434,c),
(29,0,l)
);
},
{
closed = 1;
nodes = (
(470,505,l),
(470,575,l),
(229,575,l),
(229,505,l)
);
}
);
};
layerId = "DC428D9E-A183-4ACD-9340-D4FFD5E28A41";
name = "Dec 15, 23 at 09:13";
shapes = (
{
closed = 1;
nodes = (
(321,0,l),
(321,439,l),
(271,439,o),
(254,460,o),
(254,500,cs),
(254,505,l),
(446,505,l),
(446,500,ls),
(446,460,o),
(429,439,o),
(379,439,c),
(379,0,l),
(671,0,l),
(671,434,l),
(621,434,o),
(604,460,o),
(604,500,cs),
(604,564,ls),
(604,604,o),
(621,636,o),
(671,636,c),
(671,716,l),
(379,716,l),
(379,631,l),
(424,631,o),
(442,609,o),
(446,575,c),
(254,575,l),
(258,609,o),
(276,631,o),
(321,631,c),
(321,716,l),
(29,716,l),
(29,636,l),
(79,636,o),
(96,604,o),
(96,564,cs),
(96,500,ls),
(96,460,o),
(79,434,o),
(29,434,c),
(29,0,l)
);
},
{
angle = 90;
pos = (83,0);
ref = _part.cut;
scale = (1,-1);
},
{
angle = 90;
pos = (435,0);
ref = _part.cut;
scale = (1,-1);
},
{
pos = (29,139);
ref = _part.cut;
},
{
pos = (671,139);
ref = _part.cut;
scale = (-1,1);
}
);
width = 700;
}
);
unicode = 72;
},
{
glyphname = Hbar;
lastChange = "2023-12-15 14:50:03 +0000";
layers = (
{
anchors = (
{
name = bottom;
pos = (369,0);
},
{
name = center;
pos = (369,900);
},
{
name = top;
pos = (369,900);
},
{
name = topleft;
pos = (0,716);
}
);
layerId = m01;
shapes = (
{
closed = 1;
nodes = (
(671,0,l),
(671,434,l),
(621,434,o),
(604,460,o),
(604,500,cs),
(604,564,ls),
(604,604,o),
(621,636,o),
(671,636,c),
(671,716,l),
(379,716,l),
(379,631,l),
(429,631,o),
(446,604,o),
(446,564,cs),
(446,500,ls),
(446,460,o),
(429,439,o),
(379,439,c),
(379,0,l)
);
},
{
closed = 1;
nodes = (
(321,0,l),
(321,439,l),
(271,439,o),
(254,460,o),
(254,500,cs),
(254,564,ls),
(254,604,o),
(271,631,o),
(321,631,c),
(321,716,l),
(29,716,l),
(29,636,l),
(79,636,o),
(96,604,o),
(96,564,cs),
(96,500,ls),
(96,460,o),
(79,434,o),
(29,434,c),
(29,0,l)
);
},
{
closed = 1;
nodes = (
(667,551,l),
(667,596,l),
(29,596,l),
(29,551,l)
);
},
{
closed = 1;
nodes = (
(470,484,l),
(470,529,l),
(229,529,l),
(229,484,l)
);
}
);
width = 700;
}
);
unicode = 294;
},
{
glyphname = Heng;
lastChange = "2023-12-15 14:50:00 +0000";
layers = (
{
anchors = (
{
name = bottom;
pos = (338,0);
},
{
name = center;
pos = (349,358);
},
{
name = top;
pos = (349,716);
},
{
name = topleft;
pos = (0,716);
}
);
layerId = m01;
shapes = (
{
closed = 1;
nodes = (
(321,0,l),
(321,439,l),
(271,439,o),
(254,460,o),
(254,500,cs),
(254,505,l),
(446,505,l),
(446,500,ls),
(446,460,o),
(429,439,o),
(379,439,c),
(379,128,l),
(671,128,l),
(671,434,l),
(621,434,o),
(604,460,o),
(604,500,cs),
(604,564,ls),
(604,604,o),
(621,636,o),
(671,636,c),
(671,716,l),
(379,716,l),
(379,631,l),
(424,631,o),
(442,609,o),
(446,575,c),
(254,575,l),
(258,609,o),
(276,631,o),
(321,631,c),
(321,716,l),
(29,716,l),
(29,636,l),
(79,636,o),
(96,604,o),
(96,564,cs),
(96,500,ls),
(96,460,o),
(79,434,o),
(29,434,c),
(29,0,l)
);
},
{
closed = 1;
nodes = (
(520,-140,o),
(671,-121,o),
(671,74,c),
(671,154,l),
(379,154,l),
(379,26,ls),
(379,-11,o),
(384,-62,o),
(327,-99,c),
(348,-140,l)
);
}
);
width = 700;
}
);
unicode = 42790;
},
{
glyphname = Hhook;
lastChange = "2023-12-15 14:50:00 +0000";
layers = (
{
anchors = (
{
name = bottom;
pos = (489,0);
},
{
name = center;
pos = (500,358);
},
{
name = top;
pos = (500,716);
},
{
name = topleft;
pos = (151,716);
}
);
layerId = m01;
shapes = (
{
closed = 1;
nodes = (
(822,0,l),
(822,434,l),
(772,434,o),
(755,460,o),
(755,500,cs),
(755,564,ls),
(755,604,o),
(772,636,o),
(822,636,c),
(822,716,l),
(530,716,l),
(530,631,l),
(580,631,o),
(597,604,o),
(597,564,cs),
(597,500,ls),
(597,460,o),
(580,439,o),
(530,439,c),
(530,0,l)
);
},
{
closed = 1;
nodes = (
(472,0,l),
(472,439,l),
(422,439,o),
(405,460,o),
(405,500,cs),
(405,564,ls),
(405,604,o),
(422,631,o),
(472,631,c),
(472,716,l),
(180,716,l),
(180,636,l),
(230,636,o),
(247,604,o),
(247,564,cs),
(247,500,ls),
(247,460,o),
(230,434,o),
(180,434,c),
(180,0,l)
);
},
{
closed = 1;
nodes = (
(621,505,l),
(621,575,l),
(380,575,l),
(380,505,l)
);
},
{
closed = 1;
nodes = (
(144,716,ls),
(57,716,o),
(0,647,o),
(0,566,c),
(118,566,l),
(118,606,o),
(135,636,o),
(180,636,c),
(255,636,l),
(255,716,l)
);
}
);
width = 851;
}
);
unicode = 42922;
},
{
color = 11;
glyphname = Hturned;
lastChange = "2023-12-15 14:35:06 +0000";
layers = (
{
anchors = (
{
name = bottom;
pos = (309,0);
},
{
name = center;
pos = (320,358);
},
{
name = top;
pos = (320,716);
},
{
name = topleft;
pos = (-29,716);
}
);
layerId = m01;
shapes = (
{
closed = 1;
nodes = (
(642,0,l),
(642,434,l),
(592,434,o),
(575,460,o),
(575,500,cs),
(575,564,ls),
(575,604,o),
(592,636,o),
(642,636,c),
(642,716,l),
(350,716,l),
(350,631,l),
(400,631,o),
(417,604,o),
(417,564,cs),
(417,500,ls),
(417,460,o),
(400,441,o),
(350,439,cs),
(330,438,l),
(330,-1,l)
);
},
{
closed = 1;
nodes = (
(441,495,l),
(441,565,l),
(267,565,ls),
(241,565,o),
(225,576,o),
(225,598,cs),
(225,619,o),
(238,631,o),
(266,631,cs),
(292,631,l),
(292,716,l),
(0,716,l),
(0,636,l),
(50,636,o),
(67,627,o),
(67,599,cs),
(67,544,o),
(126,495,o),
(191,495,c)
);
}
);
width = 671;
}
);
unicode = 42893;
},
{
color = 11;
glyphname = I;
lastChange = "2023-12-15 14:48:42 +0000";
layers = (
{
anchors = (
{
name = bottom;
pos = (170,0);
},
{
name = center;
pos = (174,535);
},
{
name = ogonek;
pos = (321,0);
},
{
name = top;
pos = (175,716);
},
{
name = topleft;
pos = (1,716);
}
);
layerId = m01;
shapes = (
{
closed = 1;
nodes = (
(321,0,l),
(321,434,l),
(271,434,o),
(254,460,o),
(254,500,cs),
(254,564,ls),
(254,604,o),
(271,636,o),
(321,636,c),
(321,716,l),
(29,716,l),
(29,636,l),
(79,636,o),
(96,609,o),
(96,569,cs),
(96,495,ls),
(96,455,o),
(79,434,o),
(29,434,c),
(29,0,l)
);
}
);
width = 350;
}
);
metricLeft = H;
metricRight = H;
unicode = 73;
},
{
color = 11;
glyphname = J;
lastChange = "2023-12-15 14:35:06 +0000";
layers = (
{
anchors = (
{
name = bottom;
pos = (327,0);
},
{
name = center;
pos = (438,533);
},
{
name = top;
pos = (327,716);
}
);
layerId = m01;
shapes = (
{
closed = 1;
nodes = (
(395,0,l),
(504,0,o),
(584,79,o),
(584,186,cs),
(584,434,l),
(534,434,o),
(517,460,o),
(517,500,cs),
(517,564,ls),
(517,604,o),
(534,636,o),
(584,636,c),
(584,716,l),
(292,716,l),
(292,636,l),
(342,636,o),
(359,609,o),
(359,569,cs),
(359,500,ls),
(359,460,o),
(342,439,o),
(292,439,cs),
(193,439,ls),
(143,439,o),
(126,460,o),
(126,500,cs),
(126,544,l),
(31,544,l),
(31,186,ls),
(31,79,o),
(111,0,o),
(220,0,cs)
);
}
);
width = 620;
}
);
unicode = 74;
},
{
color = 11;
glyphname = Jcrossedtail;
lastChange = "2023-12-15 14:35:06 +0000";
layers = (
{
anchors = (
{
name = bottom;
pos = (327,0);
},
{
name = center;
pos = (438,533);
},
{
name = top;
pos = (327,716);
}
);
layerId = m01;
shapes = (
{
closed = 1;
nodes = (
(585,499,l),
(173,499,l),
(142,499,o),
(126,489,o),
(126,469,cs),
(126,449,o),
(142,439,o),
(173,439,c),
(292,439,ls),
(342,439,o),
(359,460,o),
(359,500,cs),
(359,569,ls),
(359,609,o),
(342,636,o),
(292,636,c),
(292,716,l),
(584,716,l),
(584,636,l),
(534,636,o),
(517,604,o),
(517,564,cs),
(517,500,ls),
(517,460,o),
(534,434,o),
(584,434,c),
(584,186,ls),
(584,79,o),
(504,0,o),
(395,0,c),
(220,0,ls),
(111,0,o),
(31,79,o),
(31,186,cs),
(31,428,ls),
(31,551,o),
(87,573,o),
(193,573,c),
(584,573,l)
);
}
);
width = 621;
}
);
unicode = 42930;
},
{
color = 11;
glyphname = K;
lastChange = "2023-12-15 14:35:06 +0000";
layers = (
{
anchors = (
{
name = bottom;
pos = (331,0);
},
{
name = hookjoin;
pos = (648,636);
},
{
name = top;
pos = (345,716);
}
);
background = {
shapes = (
{
closed = 1;
nodes = (
(312,0,l),
(312,439,l),
(266,439,o),
(249,460,o),
(249,500,cs),
(249,564,ls),
(249,604,o),
(266,631,o),
(312,631,c),
(312,716,l),
(29,716,l),
(29,636,l),
(79,636,o),
(96,604,o),
(96,564,cs),
(96,500,ls),
(96,460,o),
(79,434,o),
(29,434,c),
(29,0,l)
);
},
{
closed = 1;
nodes = (
(668,0,l),
(668,435,l),
(649,435,ls),
(622,435,o),
(608,449,o),
(551,512,cs),
(462,610,l),
(341,536,l),
(399,467,l),
(410,454,o),
(400,439,o),
(382,439,cs),
(370,439,l),
(370,0,l)
);
},
{
closed = 1;
nodes = (
(568,613,ls),
(584,620,o),
(611,636,o),
(638,636,cs),
(648,636,l),
(648,716,l),
(361,716,l),
(361,631,l),
(382,631,ls),
(403,631,o),
(406,614,o),
(391,607,cs),
(198,522,l),
(198,446,l)
);
}
);
};
guides = (
{
angle = 90;
pos = (286,525);
}
);
layerId = m01;
shapes = (
{
closed = 1;
nodes = (
(312,0,l),
(312,439,l),
(280,439,o),
(261,449,o),
(253,471,c),
(357,518,l),
(399,467,ls),
(410,454,o),
(400,439,o),
(382,439,cs),
(370,439,l),
(370,0,l),
(668,0,l),
(668,435,l),
(649,435,ls),
(624,435,o),
(613,444,o),
(551,512,cs),
(491,578,l),
(568,613,ls),
(617,634,o),
(622,636,o),
(638,636,cs),
(648,636,l),
(648,716,l),
(361,716,l),
(361,631,l),
(382,631,ls),
(401,631,o),
(407,615,o),
(391,607,cs),
(249,544,l),
(249,564,ls),
(249,608,o),
(270,631,o),
(312,631,c),
(312,716,l),
(29,716,l),
(29,636,l),
(73,636,o),
(96,611,o),
(96,564,cs),
(96,500,ls),
(96,455,o),
(74,434,o),
(29,434,c),
(29,0,l)
);
}
);
width = 697;
}
);
metricLeft = H;
unicode = 75;
},
{
color = 11;
glyphname = Khook;
lastChange = "2023-12-15 14:35:06 +0000";
layers = (
{
anchors = (
{
name = bottom;
pos = (331,0);
},
{
name = hookjoin;
pos = (648,636);
},
{
name = top;
pos = (345,716);
}
);
layerId = m01;
shapes = (
{
closed = 1;
nodes = (
(312,0,l),
(312,439,l),
(266,439,o),
(249,460,o),
(249,500,cs),
(249,564,ls),
(249,604,o),
(266,631,o),
(312,631,c),
(312,716,l),
(29,716,l),
(29,636,l),
(79,636,o),
(96,604,o),
(96,564,cs),
(96,500,ls),
(96,460,o),
(79,434,o),
(29,434,c),
(29,0,l)
);
},
{
closed = 1;
nodes = (
(668,0,l),
(668,435,l),
(649,435,ls),
(622,435,o),
(608,449,o),
(551,512,cs),
(462,610,l),
(341,536,l),
(399,467,l),
(410,454,o),
(400,439,o),
(382,439,cs),
(370,439,l),
(370,0,l)
);
},
{
closed = 1;
nodes = (
(568,613,ls),
(584,620,o),
(611,636,o),
(638,636,cs),
(648,636,l),
(648,716,l),
(361,716,l),
(361,631,l),
(382,631,ls),
(403,631,o),
(406,614,o),
(391,607,cs),
(198,522,l),
(198,446,l)
);
},
{
closed = 1;
nodes = (
(835,547,l),
(835,638,o),
(776,716,o),
(686,716,cs),
(539,716,l),
(539,636,l),
(648,636,l),
(695,636,o),
(712,592,o),
(712,547,c)
);
}
);
width = 836;
}
);
unicode = 408;
},
{
color = 11;
glyphname = Kstroke;
lastChange = "2023-12-15 14:35:06 +0000";
layers = (
{
anchors = (
{
name = bottom;
pos = (331,0);
},
{
name = hookjoin;
pos = (648,636);
},
{
name = top;
pos = (345,716);
}
);
layerId = m01;
shapes = (
{
closed = 1;
nodes = (
(312,0,l),
(312,439,l),
(266,439,o),
(249,460,o),
(249,500,cs),
(249,564,ls),
(249,604,o),
(266,631,o),
(312,631,c),
(312,716,l),
(29,716,l),
(29,636,l),
(79,636,o),
(96,604,o),
(96,564,cs),
(96,500,ls),
(96,460,o),
(79,434,o),
(29,434,c),
(29,0,l)
);
},
{
closed = 1;
nodes = (
(668,0,l),
(668,435,l),
(649,435,ls),
(622,435,o),
(608,449,o),
(551,512,cs),
(462,610,l),
(341,536,l),
(399,467,l),
(410,454,o),
(400,439,o),
(382,439,cs),
(370,439,l),
(370,0,l)
);
},
{
closed = 1;
nodes = (
(568,613,ls),
(584,620,o),
(611,636,o),
(638,636,cs),
(648,636,l),
(648,716,l),
(361,716,l),
(361,631,l),
(382,631,ls),
(403,631,o),
(406,614,o),
(391,607,cs),
(198,522,l),
(198,446,l)
);
},
{
closed = 1;
nodes = (
(209,505,l),
(209,575,l),
(29,575,l),
(29,505,l)
);
}
);
width = 697;
}
);
unicode = 42816;
},
{
color = 11;
glyphname = L;
lastChange = "2023-12-15 14:35:06 +0000";
layers = (
{
anchors = (
{
name = bottom;
pos = (298,0);
},
{
name = center;
pos = (176,537);
},
{
name = top;
pos = (167,716);
},
{
name = topright;
pos = (669,716);
}
);
layerId = m01;
shapes = (
{
closed = 1;
nodes = (
(553,0,l),
(553,544,l),
(458,544,l),
(458,500,ls),
(458,460,o),
(441,439,o),
(391,439,c),
(255,439,l),
(255,564,l),
(255,604,o),
(272,636,o),
(322,636,c),
(322,716,l),
(29,716,l),
(29,636,l),
(79,636,o),
(97,604,o),
(97,564,cs),
(97,500,ls),
(97,460,o),
(80,434,o),
(30,434,c),
(29,0,l)
);
}
);
width = 584;
}
);
metricLeft = H;
unicode = 76;
},
{
color = 11;
glyphname = Lbelt;
lastChange = "2023-12-15 14:35:06 +0000";
layers = (
{
layerId = m01;
shapes = (
{
pos = (33,0);
ref = L;
},
{
closed = 1;
nodes = (
(60,629,o),
(-4,608,o),
(-4,555,cs),
(-4,467,o),
(149,453,o),
(172,453,cs),
(259,453,o),
(357,468,o),
(429,542,c),
(394,582,l),
(346,542,o),
(286,510,o),
(168,510,cs),
(131,510,o),
(54,525,o),
(54,553,cs),
(54,574,o),
(112,553,o),
(130,535,c),
(130,593,l)
);
}
);
width = 617;
}
);
unicode = 42925;
},
{
color = 11;
glyphname = Ldoublebar;
lastChange = "2023-12-15 14:35:06 +0000";
layers = (
{
layerId = m01;
shapes = (
{
ref = L;
},
{
closed = 1;
nodes = (
(322,545,l),
(322,590,l),
(29,590,l),
(29,545,l)
);
},
{
closed = 1;
nodes = (
(322,478,l),
(322,523,l),
(29,523,l),
(29,478,l)
);
}
);
width = 584;
}
);
unicode = 11360;
},
{
color = 11;
glyphname = Lslash;
lastChange = "2023-12-15 14:35:06 +0000";
layers = (
{
layerId = m01;
shapes = (
{
ref = L;
},
{
closed = 1;
nodes = (
(362,536,l),
(362,603,l),
(30,540,l),
(30,473,l)
);
}
);
width = 584;
}
);
unicode = 321;
},
{
color = 11;
glyphname = M;
lastChange = "2023-12-15 14:48:42 +0000";
layers = (
{
anchors = (
{
name = bottom;
pos = (419,0);
},
{
name = top;
pos = (403,716);
}
);
layerId = m01;
shapes = (
{
closed = 1;
nodes = (
(379,0,l),
(379,439,l),
(321,439,ls),
(271,439,o),
(254,462,o),
(254,502,cs),
(254,609,l),
(409,457,l),
(561,609,l),
(561,504,ls),
(561,464,o),
(544,439,o),
(494,439,cs),
(437,439,l),
(437,0,l),
(786,0,l),
(786,434,l),
(736,434,o),
(719,454,o),
(719,494,cs),
(719,568,ls),
(719,608,o),
(736,635,o),
(786,635,c),
(786,716,l),
(538,716,l),
(409,584,l),
(277,716,l),
(29,716,l),
(29,633,l),
(79,633,o),
(96,606,o),
(96,566,cs),
(96,495,ls),
(96,455,o),
(79,434,o),
(29,434,c),
(29,0,l)
);
}
);
width = 815;
}
);
metricLeft = H;
metricRight = H;
unicode = 77;
},
{
color = 11;
glyphname = Mturned;
lastChange = "2023-12-15 14:48:42 +0000";
layers = (
{
anchors = (
{
name = bottom;
pos = (373,0);
},
{
name = top;
pos = (389,716);
}
);
layerId = m01;
shapes = (
{
closed = 1;
nodes = (
(350,0,l),
(29,0,l),
(29,436,l),
(79,436,o),
(96,463,o),
(96,503,cs),
(96,574,ls),
(96,614,o),
(79,635,o),
(29,635,c),
(29,715,l),
(329,714,l),
(329,629,l),
(311,629,ls),
(261,629,o),
(244,606,o),
(244,566,cs),
(244,501,l),
(379,635,l),
(514,501,l),
(514,566,ls),
(514,606,o),
(497,629,o),
(447,629,cs),
(429,629,l),
(429,714,l),
(729,715,l),
(729,635,l),
(679,635,o),
(662,614,o),
(662,574,cs),
(662,503,ls),
(662,463,o),
(679,436,o),
(729,436,c),
(729,0,l),
(408,0,l),
(407,432,l),
(426,432,o),
(444,432,o),
(444,453,cs),
(444,468,o),
(421,489,o),
(414,496,cs),
(379,530,l),
(344,495,ls),
(337,488,o),
(314,467,o),
(314,452,cs),
(314,431,o),
(332,431,o),
(351,431,c)
);
}
);
width = 758;
}
);
metricLeft = H;
metricRight = H;
unicode = 412;
},
{
color = 11;
glyphname = N;
lastChange = "2023-12-15 14:48:42 +0000";
layers = (
{
anchors = (
{
name = bottom;
pos = (347,0);
},
{
name = ogonek;
pos = (690,0);
},
{
name = top;
pos = (344,716);
},
{
name = topleft;
pos = (347,716);
}
);
background = {
shapes = (
{
closed = 1;
nodes = (
(317,0,l),
(317,439,l),
(269,439,o),
(252,461,o),
(252,501,cs),
(253,716,l),
(27,716,l),
(27,636,l),
(80,636,o),
(97,607,o),
(97,567,cs),
(97,500,ls),
(97,457,o),
(88,434,o),
(27,434,c),
(27,0,l)
);
},
{
closed = 1;
nodes = (
(476,388,l),
(476,498,l),
(253,716,l),
(186,670,l)
);
},
{
closed = 1;
nodes = (
(667,0,l),
(667,434,l),
(617,434,o),
(600,460,o),
(600,500,cs),
(600,564,ls),
(600,604,o),
(617,636,o),
(667,636,c),
(667,716,l),
(375,716,l),
(375,636,l),
(425,636,o),
(442,609,o),
(442,569,cs),
(442,500,ls),
(442,460,o),
(425,439,o),
(375,439,c),
(375,0,l)
);
}
);
};
guides = (
{
pos = (431,445);
}
);
layerId = m01;
shapes = (
{
closed = 1;
nodes = (
(322,0,l),
(322,439,l),
(274,439,o),
(257,461,o),
(257,501,cs),
(257,591,l),
(375,428,l),
(375,0,l),
(667,0,l),
(667,434,l),
(617,434,o),
(600,460,o),
(600,500,cs),
(600,564,ls),
(600,604,o),
(617,636,o),
(667,636,c),
(667,716,l),
(375,716,l),
(375,636,l),
(425,636,o),
(442,609,o),
(442,569,cs),
(442,500,ls),
(442,493,o),
(441,486,o),
(440,480,c),
(261,716,l),
(29,716,l),
(29,636,l),
(82,636,o),
(99,607,o),
(99,567,cs),
(99,500,ls),
(99,457,o),
(90,434,o),
(29,434,c),
(29,0,l)
);
}
);
width = 696;
}
);
metricLeft = H;
metricRight = H;
unicode = 78;
},
{
color = 11;
glyphname = Nhookleft;
lastChange = "2023-12-15 14:35:06 +0000";
layers = (
{
anchors = (
{
name = bottom;
pos = (347,0);
},
{
name = ogonek;
pos = (690,0);
},
{
name = top;
pos = (344,716);
},
{
name = topleft;
pos = (347,716);
}
);
layerId = m01;
shapes = (
{
closed = 1;
nodes = (
(322,111,l),
(322,439,l),
(274,439,o),
(257,461,o),
(257,501,cs),
(257,716,l),
(29,716,l),
(29,636,l),
(82,636,o),
(99,607,o),
(99,567,cs),
(99,500,ls),
(99,457,o),
(90,434,o),
(29,434,c),
(29,111,l)
);
},
{
closed = 1;
nodes = (
(486,421,l),
(257,716,l),
(228,629,l),
(461,323,l)
);
},
{
closed = 1;
nodes = (
(667,0,l),
(667,434,l),
(617,434,o),
(600,460,o),
(600,500,cs),
(600,564,ls),
(600,604,o),
(617,636,o),
(667,636,c),
(667,716,l),
(375,716,l),
(375,636,l),
(425,636,o),
(442,609,o),
(442,569,cs),
(442,500,ls),
(442,460,o),
(425,439,o),
(375,439,c),
(375,0,l)
);
},
{
closed = 1;
nodes = (
(170,-140,o),
(322,-121,o),
(322,74,c),
(322,154,l),
(29,154,l),
(29,26,ls),
(29,-11,o),
(34,-62,o),
(-23,-99,c),
(-2,-140,l)
);
}
);
width = 696;
}
);
unicode = 413;
},
{
color = 11;
glyphname = Nlongrightleg;
lastChange = "2023-12-15 14:35:06 +0000";
layers = (
{
anchors = (
{
name = bottom;
pos = (347,0);
},
{
name = ogonek;
pos = (690,0);
},
{
name = top;
pos = (344,716);
},
{
name = topleft;
pos = (347,716);
}
);
layerId = m01;
shapes = (
{
closed = 1;
nodes = (
(667,-139,l),
(667,433,l),
(617,433,o),
(600,459,o),
(600,499,cs),
(600,525,ls),
(600,686,o),
(493,720,o),
(404,720,cs),
(328,720,o),
(264,693,o),
(206,602,c),
(205,532,l),
(214,555,o),
(261,633,o),
(344,633,cs),
(439,633,o),
(442,562,o),
(442,542,cs),
(442,494,ls),
(442,454,o),
(425,439,o),
(375,439,c),
(375,-138,l)
);
},
{
closed = 1;
nodes = (
(322,0,l),
(322,439,l),
(274,439,o),
(257,461,o),
(257,501,cs),
(257,735,l),
(225,725,o),
(122,716,o),
(29,716,c),
(29,636,l),
(82,636,o),
(99,607,o),
(99,567,cs),
(99,500,ls),
(99,457,o),
(90,434,o),
(29,434,c),
(29,0,l)
);
}
);
width = 696;
}
);
unicode = 544;
},
{
color = 11;
glyphname = Eng;
lastChange = "2023-12-15 14:35:06 +0000";
layers = (
{
layerId = m01;
shapes = (
{
closed = 1;
nodes = (
(515,-140,o),
(667,-121,o),
(667,74,c),
(667,154,l),
(375,154,l),
(375,26,ls),
(375,-11,o),
(379,-62,o),
(322,-99,c),
(343,-140,l)
);
},
{
closed = 1;
nodes = (
(667,103,l),
(667,433,l),
(617,433,o),
(600,459,o),
(600,499,cs),
(600,525,ls),
(600,686,o),
(493,720,o),
(404,720,cs),
(328,720,o),
(264,693,o),
(206,602,c),
(205,532,l),
(214,555,o),
(261,633,o),
(344,633,cs),
(439,633,o),
(442,562,o),
(442,542,cs),
(442,494,ls),
(442,454,o),
(425,439,o),
(375,439,c),
(375,104,l)
);
},
{
closed = 1;
nodes = (
(322,0,l),
(322,439,l),
(274,439,o),
(257,461,o),
(257,501,cs),
(257,735,l),
(225,725,o),
(122,716,o),
(29,716,c),
(29,636,l),
(82,636,o),
(99,607,o),
(99,567,cs),
(99,500,ls),
(99,457,o),
(90,434,o),
(29,434,c),
(29,0,l)
);
}
);
width = 696;
}
);
unicode = 330;
},
{
color = 11;
glyphname = O;
lastChange = "2023-12-15 14:35:06 +0000";
layers = (
{
anchors = (
{
name = bottom;
pos = (324,0);
},
{
name = center;
pos = (324,358);
},
{
name = horn;
pos = (558,642);
},
{
name = ogonek;
pos = (416,-8);
},
{
name = top;
pos = (317,716);
},
{
name = topleft;
pos = (-13,716);
}
);
layerId = m01;
shapes = (
{
closed = 1;
nodes = (
(416,-8,ls),
(525,-8,o),
(605,71,o),
(605,178,cs),
(605,536,ls),
(605,643,o),
(525,722,o),
(416,722,cs),
(218,722,ls),
(109,722,o),
(29,643,o),
(29,536,cs),
(29,178,ls),
(29,71,o),
(109,-8,o),
(218,-8,cs)
);
},
{
pos = (-25,5);
ref = cutdetail.part;
},
{
closed = 1;
nodes = (
(253,439,o),
(229,450,o),
(230,492,cs),
(231,569,ls),
(232,609,o),
(248,636,o),
(298,636,cs),
(336,636,ls),
(396,636,o),
(403,609,o),
(403,569,cs),
(403,492,ls),
(403,450,o),
(380,439,o),
(366,439,cs),
(267,439,ls)
);
}
);
width = 634;
}
);
unicode = 79;
},
{
color = 11;
glyphname = OU;
lastChange = "2023-12-15 14:35:06 +0000";
layers = (
{
layerId = m01;
shapes = (
{
closed = 1;
nodes = (
(437,-7,ls),
(546,-7,o),
(626,72,o),
(626,179,cs),
(626,375,ls),
(626,483,o),
(571,540,o),
(468,540,c),
(468,543,l),
(537,543,ls),
(591,543,o),
(626,578,o),
(626,631,cs),
(626,716,l),
(427,716,l),
(427,606,ls),
(427,587,o),
(409,575,o),
(380,575,cs),
(266,575,ls),
(237,575,o),
(219,587,o),
(219,606,cs),
(219,716,l),
(20,716,l),
(20,631,ls),
(20,578,o),
(55,543,o),
(109,543,cs),
(178,543,l),
(178,540,l),
(75,540,o),
(20,483,o),
(20,375,cs),
(20,179,ls),
(20,72,o),
(100,-7,o),
(209,-7,cs),
(323,-8,l)
);
},
{
closed = 1;
nodes = (
(266,440,ls),
(237,440,o),
(219,449,o),
(219,472,cs),
(219,492,o),
(236,505,o),
(266,505,cs),
(323,504,l),
(380,505,ls),
(410,505,o),
(427,492,o),
(427,472,cs),
(427,449,o),
(409,440,o),
(380,440,cs),
(323,439,l)
);
}
);
width = 640;
}
);
unicode = 546;
},
{
color = 11;
glyphname = Obarred;
lastChange = "2023-12-15 14:35:06 +0000";
layers = (
{
anchors = (
{
name = bottom;
pos = (324,0);
},
{
name = center;
pos = (324,358);
},
{
name = horn;
pos = (558,642);
},
{
name = ogonek;
pos = (416,-8);
},
{
name = top;
pos = (317,716);
},
{
name = topleft;
pos = (-13,716);
}
);
layerId = m01;
shapes = (
{
closed = 1;
nodes = (
(461,509,l),
(461,566,l),
(169,566,l),
(169,509,l)
);
},
{
closed = 1;
nodes = (
(416,-8,ls),
(525,-8,o),
(605,71,o),
(605,178,cs),
(605,536,ls),
(605,643,o),
(525,722,o),
(416,722,cs),
(218,722,ls),
(109,722,o),
(29,643,o),
(29,536,cs),
(29,178,ls),
(29,71,o),
(109,-8,o),
(218,-8,cs)
);
},
{
closed = 1;
nodes = (
(253,439,o),
(229,450,o),
(230,492,cs),
(231,569,ls),
(232,609,o),
(248,636,o),
(298,636,cs),
(336,636,ls),
(396,636,o),
(403,609,o),
(403,569,cs),
(403,492,ls),
(403,450,o),
(380,439,o),
(366,439,cs),
(267,439,ls)
);
}
);
width = 634;
}
);
unicode = 415;
},
{
glyphname = "Omega-latin";
lastChange = "2023-12-15 14:49:54 +0000";
layers = (
{
anchors = (
{
name = bottom;
pos = (448,0);
},
{
name = top;
pos = (448,715);
}
);
layerId = m01;
shapes = (
{
closed = 1;
nodes = (
(287,-8,ls),
(383,-8,o),
(439,35,o),
(439,110,cs),
(439,172,l),
(457,172,l),
(457,110,ls),
(457,35,o),
(513,-8,o),
(609,-8,cs),
(698,-8,ls),
(796,-8,o),
(867,71,o),
(867,178,cs),
(867,434,l),
(822,434,o),
(800,455,o),
(800,500,cs),
(800,564,ls),
(800,679,o),
(772,716,o),
(682,716,cs),
(580,716,l),
(580,631,l),
(621,631,o),
(642,608,o),
(642,564,cs),
(642,455,ls),
(642,417,o),
(626,394,o),
(601,394,cs),
(561,394,ls),
(536,394,o),
(520,417,o),
(520,455,cs),
(520,564,ls),
(520,609,o),
(500,626,o),
(448,626,cs),
(396,626,o),
(376,609,o),
(376,564,cs),
(376,455,ls),
(376,417,o),
(360,394,o),
(335,394,cs),
(295,394,ls),
(270,394,o),
(254,417,o),
(254,455,cs),
(254,564,ls),
(254,608,o),
(275,631,o),
(316,631,c),
(316,716,l),
(214,716,ls),
(124,716,o),
(96,679,o),
(96,564,cs),
(96,500,ls),
(96,455,o),
(74,434,o),
(29,434,c),
(29,178,ls),
(29,71,o),
(100,-8,o),
(198,-8,cs)
);
}
);
width = 896;
}
);
metricLeft = O;
metricRight = O;
unicode = 42934;
},
{
color = 11;
glyphname = Oslash;
lastChange = "2023-12-15 14:35:06 +0000";
layers = (
{
layerId = m01;
shapes = (
{
closed = 1;
nodes = (
(478,671,l),
(550,791,l),
(460,792,l),
(383,672,l)
);
},
{
closed = 1;
nodes = (
(156,-60,l),
(214,57,l),
(119,59,l),
(66,-59,l)
);
},
{
ref = O;
}
);
width = 634;
}
);
unicode = 216;
},
{
color = 11;
glyphname = OE;
lastChange = "2023-12-15 14:35:06 +0000";
layers = (
{
anchors = (
{
name = bottom;
pos = (324,0);
},
{
name = center;
pos = (324,358);
},
{
name = horn;
pos = (558,642);
},
{
name = ogonek;
pos = (416,-8);
},
{
name = top;
pos = (317,716);
},
{
name = topleft;
pos = (-13,716);
}
);
layerId = m01;
shapes = (
{
closed = 1;
nodes = (
(416,716,l),
(218,716,ls),
(109,716,o),
(29,643,o),
(29,536,cs),
(29,178,ls),
(29,71,o),
(109,0,o),
(218,0,cs),
(416,0,l)
);
},
{
pos = (-25,5);
ref = cutdetail.part;
},
{
closed = 1;
nodes = (
(253,439,o),
(229,450,o),
(230,492,cs),
(231,569,ls),
(232,609,o),
(248,636,o),
(298,636,cs),
(336,636,ls),
(396,636,o),
(403,609,o),
(403,569,cs),
(403,492,ls),
(403,450,o),
(380,439,o),
(366,439,cs),
(267,439,ls)
);
},
{
closed = 1;
nodes = (
(409,0,l),
(853,0,l),
(853,500,l),
(763,500,l),
(763,460,o),
(746,439,o),
(696,439,cs),
(569,439,l),
(569,505,l),
(686,505,l),
(686,575,l),
(569,575,l),
(569,636,l),
(690,636,ls),
(740,636,o),
(757,609,o),
(757,569,c),
(847,569,l),
(847,716,l),
(409,716,l)
);
}
);
width = 882;
}
);
metricLeft = O;
metricRight = E;
unicode = 338;
},
{
color = 11;
glyphname = P;
lastChange = "2023-12-15 14:35:06 +0000";
layers = (
{
anchors = (
{
name = bottom;
pos = (336,0);
},
{
name = hookjoin;
pos = (29,636);
},
{
name = top;
pos = (306,713);
}
);
layerId = m01;
shapes = (
{
closed = 1;
nodes = (
(469,0,l),
(469,434,l),
(331,434,ls),
(281,434,o),
(264,460,o),
(264,497,c),
(474,497,ls),
(511,497,o),
(589,518,o),
(589,605,cs),
(589,711,o),
(500,716,o),
(460,716,cs),
(29,716,l),
(29,636,l),
(79,636,o),
(96,609,o),
(96,569,cs),
(96,495,ls),
(96,455,o),
(79,434,o),
(29,434,c),
(29,0,l)
);
},
{
closed = 1;
nodes = (
(264,636,l),
(369,636,ls),
(397,636,o),
(410,620,o),
(410,599,cs),
(410,574,o),
(394,561,o),
(368,561,cs),
(264,561,l)
);
}
);
width = 584;
}
);
metricLeft = H;
unicode = 80;
},
{
color = 11;
glyphname = Thorn;
lastChange = "2023-12-15 14:35:06 +0000";
layers = (
{
anchors = (
{
name = bottom;
pos = (170,0);
},
{
name = center;
pos = (174,535);
},
{
name = hookjoin;
pos = (29,636);
},
{
name = ogonek;
pos = (321,0);
},
{
name = top;
pos = (175,716);
},
{
name = topleft;
pos = (1,716);
}
);
layerId = m01;
shapes = (
{
closed = 1;
nodes = (
(209,508,l),
(369,506,ls),
(397,506,o),
(410,490,o),
(410,469,cs),
(410,444,o),
(394,431,o),
(368,431,cs),
(209,433,l),
(209,369,l),
(484,368,ls),
(521,368,o),
(599,389,o),
(599,476,cs),
(599,582,o),
(510,587,o),
(470,587,cs),
(209,588,l)
);
},
{
closed = 1;
nodes = (
(331,-1,l),
(331,322,l),
(281,322,o),
(264,348,o),
(264,388,cs),
(264,563,ls),
(264,603,o),
(281,635,o),
(331,635,c),
(331,715,l),
(29,716,l),
(29,636,l),
(79,636,o),
(96,609,o),
(96,569,cs),
(96,384,ls),
(96,344,o),
(79,323,o),
(29,323,c),
(29,0,l)
);
}
);
width = 594;
}
);
metricRight = P;
unicode = 222;
},
{
color = 11;
glyphname = Pstroke;
lastChange = "2023-12-15 14:35:06 +0000";
layers = (
{
anchors = (
{
name = bottom;
pos = (336,0);
},
{
name = hookjoin;
pos = (29,636);
},
{
name = top;
pos = (306,713);
}
);
layerId = m01;
shapes = (
{
closed = 1;
nodes = (
(469,0,l),
(469,434,l),
(331,434,ls),
(281,434,o),
(264,460,o),
(264,497,c),
(474,497,ls),
(511,497,o),
(589,518,o),
(589,605,cs),
(589,711,o),
(500,716,o),
(460,716,cs),
(29,716,l),
(29,636,l),
(79,636,o),
(96,609,o),
(96,569,cs),
(96,495,ls),
(96,455,o),
(79,434,o),
(29,434,c),
(29,0,l)
);
},
{
closed = 1;
nodes = (
(264,636,l),
(369,636,ls),
(397,636,o),
(410,620,o),
(410,599,cs),
(410,574,o),
(394,561,o),
(368,561,cs),
(264,561,l)
);
},
{
closed = 1;
nodes = (
(29,535,l),
(144,535,l),
(144,587,l),
(29,587,l)
);
}
);
width = 584;
}
);
unicode = 11363;
},
{
color = 11;
glyphname = Q;
lastChange = "2023-12-15 14:35:06 +0000";
layers = (
{
layerId = m01;
shapes = (
{
pos = (-15,5);
ref = cutdetail.part;
},
{
closed = 1;
nodes = (
(248,439,o),
(231,460,o),
(231,500,cs),
(231,569,ls),
(231,609,o),
(248,636,o),
(298,636,cs),
(356,636,ls),
(406,636,o),
(423,609,o),
(423,569,cs),
(423,500,ls),
(423,460,o),
(406,439,o),
(382,439,cs),
(272,439,ls)
);
},
{
closed = 1;
nodes = (
(344,-8,o),
(402,48,o),
(402,155,cs),
(402,217,l),
(449,217,o),
(458,192,o),
(469,132,cs),
(481,63,o),
(509,0,o),
(571,0,c),
(645,0,l),
(645,434,l),
(487,434,l),
(487,441,o),
(490,457,o),
(519,462,cs),
(548,467,ls),
(595,475,o),
(620,505,o),
(620,568,cs),
(620,581,ls),
(620,663,o),
(584,722,o),
(460,722,cs),
(218,722,ls),
(109,722,o),
(29,643,o),
(29,536,cs),
(29,178,ls),
(29,71,o),
(90,-8,o),
(220,-8,cs)
);
}
);
width = 652;
}
);
unicode = 81;
},
{
glyphname = Qhooktail;
lastChange = "2023-12-15 14:49:54 +0000";
layers = (
{
layerId = m01;
shapes = (
{
ref = Q;
},
{
closed = 1;
nodes = (
(696,-99,l),
(640,-62,o),
(645,-11,o),
(645,26,cs),
(645,154,l),
(492,230,l),
(401,218,l),
(445,218,o),
(469,199,o),
(469,68,cs),
(469,-122,o),
(506,-140,o),
(676,-140,c)
);
}
);
width = 674;
}
);
unicode = 586;
},
{
color = 11;
glyphname = R;
lastChange = "2023-12-15 14:35:06 +0000";
layers = (
{
anchors = (
{
name = bottom;
pos = (351,0);
},
{
name = top;
pos = (311,716);
}
);
layerId = m01;
shapes = (
{
closed = 1;
nodes = (
(671,-8,l),
(671,434,l),
(553,434,o),
(615,539,o),
(456,539,c),
(456,544,l),
(474,544,ls),
(511,544,o),
(589,560,o),
(589,628,c),
(589,712,o),
(500,716,o),
(460,716,c),
(29,716,l),
(29,636,l),
(79,636,o),
(96,609,o),
(96,569,cs),
(96,495,ls),
(96,455,o),
(79,434,o),
(29,434,c),
(29,0,l),
(322,0,l),
(322,439,l),
(271,439,o),
(254,460,o),
(254,500,cs),
(254,507,l),
(314,507,ls),
(359,507,o),
(379,478,o),
(379,434,cs),
(380,117,ls),
(380,44,o),
(413,-8,o),
(527,-8,cs)
);
},
{
closed = 1;
nodes = (
(254,636,l),
(359,636,ls),
(387,636,o),
(400,622,o),
(400,604,cs),
(400,582,o),
(384,571,o),
(358,571,cs),
(254,571,l)
);
}
);
width = 699;
}
);
metricLeft = H;
unicode = 82;
},
{
color = 11;
glyphname = Rstroke;
lastChange = "2023-12-15 14:35:06 +0000";
layers = (
{
anchors = (
{
name = bottom;
pos = (351,0);
},
{
name = top;
pos = (311,716);
}
);
layerId = m01;
shapes = (
{
closed = 1;
nodes = (
(29,507,l),
(314,507,ls),
(359,507,o),
(379,478,o),
(379,434,cs),
(380,117,ls),
(380,44,o),
(413,-8,o),
(527,-8,cs),
(671,-8,l),
(671,434,l),
(553,434,o),
(615,539,o),
(456,539,c),
(456,544,l),
(474,544,ls),
(511,544,o),
(589,560,o),
(589,628,c),
(589,712,o),
(500,716,o),
(460,716,c),
(29,716,l),
(29,636,l),
(79,636,o),
(96,609,o),
(96,569,cs),
(96,495,ls),
(96,455,o),
(79,434,o),
(29,434,c),
(29,0,l),
(322,0,l),
(322,439,l),
(271,439,o),
(254,460,o),
(254,500,cs),
(254,636,l),
(359,636,ls),
(387,636,o),
(400,622,o),
(400,604,cs),
(400,582,o),
(384,571,o),
(358,571,cs),
(29,571,l)
);
}
);
width = 699;
}
);
unicode = 588;
},
{
color = 11;
glyphname = Rtail;
lastChange = "2023-12-15 14:35:06 +0000";
layers = (
{
anchors = (
{
name = bottom;
pos = (351,0);
},
{
name = top;
pos = (311,716);
}
);
layerId = m01;
shapes = (
{
closed = 1;
nodes = (
(671,-8,l),
(671,434,l),
(553,434,o),
(615,539,o),
(456,539,c),
(456,544,l),
(474,544,ls),
(511,544,o),
(589,560,o),
(589,628,c),
(589,712,o),
(500,716,o),
(460,716,c),
(29,716,l),
(29,636,l),
(79,636,o),
(96,609,o),
(96,569,cs),
(96,495,ls),
(96,455,o),
(79,434,o),
(29,434,c),
(29,125,l),
(322,125,l),
(322,439,l),
(271,439,o),
(254,460,o),
(254,500,cs),
(254,507,l),
(314,507,ls),
(359,507,o),
(379,478,o),
(379,434,cs),
(380,117,ls),
(380,44,o),
(413,-8,o),
(527,-8,cs)
);
},
{
closed = 1;
nodes = (
(254,636,l),
(359,636,ls),
(387,636,o),
(400,622,o),
(400,604,cs),
(400,582,o),
(384,571,o),
(358,571,cs),
(254,571,l)
);
},
{
closed = 1;
nodes = (
(373,-99,l),
(317,-62,o),
(322,-11,o),
(322,26,cs),
(322,154,l),
(29,154,l),
(29,74,l),
(29,-121,o),
(180,-140,o),
(352,-140,c)
);
}
);
width = 699;
}
);
metricLeft = R;
metricRight = R;
unicode = 11364;
},
{
color = 11;
glyphname = S;
lastChange = "2023-12-15 14:35:06 +0000";
layers = (
{
anchors = (
{
name = bottom;
pos = (322,0);
},
{
name = top;
pos = (292,716);
}
);
background = {
shapes = (
{
closed = 1;
nodes = (
(406,0,ls),
(515,0,o),
(595,77,o),
(595,184,cs),
(595,356,ls),
(595,499,o),
(535,550,o),
(355,559,cs),
(274,563,ls),
(225,565,o),
(217,579,o),
(217,599,cs),
(217,624,o),
(236,636,o),
(271,636,cs),
(319,636,ls),
(362,636,o),
(386,620,o),
(386,591,c),
(560,591,l),
(560,664,o),
(507,716,o),
(419,716,cs),
(204,716,ls),
(84,716,o),
(33,679,o),
(33,603,cs),
(33,543,o),
(76,503,o),
(160,499,cs),
(349,490,ls),
(389,488,o),
(397,477,o),
(397,457,cs),
(397,436,o),
(382,425,o),
(349,425,cs),
(233,425,o),
(136,429,o),
(30,434,c),
(30,0,l)
);
}
);
};
layerId = m01;
shapes = (
{
closed = 1;
nodes = (
(406,0,ls),
(515,0,o),
(595,77,o),
(595,184,cs),
(595,356,ls),
(595,521,o),
(524,540,o),
(366,556,cs),
(274,565,o),
(223,566,o),
(223,603,cs),
(223,624,o),
(239,636,o),
(271,636,cs),
(325,636,ls),
(368,636,o),
(392,620,o),
(392,591,c),
(566,591,l),
(566,664,o),
(513,716,o),
(415,716,cs),
(204,716,ls),
(89,716,o),
(39,675,o),
(39,610,cs),
(39,517,o),
(140,498,o),
(262,487,cs),
(383,476,o),
(417,482,o),
(417,452,cs),
(417,430,o),
(398,425,o),
(369,425,cs),
(236,425,ls),
(206,425,o),
(196,434,o),
(196,464,c),
(30,464,l),
(30,184,ls),
(30,77,o),
(110,0,o),
(219,0,cs)
);
}
);
width = 625;
}
);
unicode = 83;
},
{
color = 11;
glyphname = Germandbls;
lastChange = "2023-12-15 14:35:06 +0000";
layers = (
{
anchors = (
{
name = bottom;
pos = (388,0);
},
{
name = top;
pos = (388,716);
}
);
layerId = m01;
shapes = (
{
closed = 1;
nodes = (
(234,0,l),
(234,438,ls),
(234,564,o),
(242,633,o),
(357,633,cs),
(540,633,l),
(444,575,l),
(444,505,l),
(509,505,ls),
(547,505,o),
(557,491,o),
(557,470,cs),
(557,454,o),
(542,439,o),
(509,439,cs),
(462,439,ls),
(420,439,o),
(403,462,o),
(403,497,cs),
(403,539,l),
(283,539,l),
(283,120,ls),
(283,34,o),
(338,-6,o),
(417,-6,cs),
(567,-6,ls),
(676,-6,o),
(756,73,o),
(756,180,cs),
(756,404,ls),
(756,547,o),
(668,569,o),
(613,569,c),
(723,642,l),
(723,716,l),
(375,716,ls),
(105,716,o),
(85,572,o),
(85,495,cs),
(85,455,o),
(68,434,o),
(18,434,c),
(18,0,l)
);
}
);
width = 776;
}
);
metricRight = Ezh;
unicode = 7838;
},
{
color = 11;
glyphname = Sobliquestroke;
lastChange = "2023-12-15 14:35:06 +0000";
layers = (
{
anchors = (
{
name = bottom;
pos = (322,0);
},
{
name = top;
pos = (292,716);
}
);
layerId = m01;
shapes = (
{
closed = 1;
nodes = (
(406,0,ls),
(515,0,o),
(595,77,o),
(595,184,cs),
(595,356,ls),
(595,499,o),
(524,555,o),
(338,561,cs),
(274,563,ls),
(234,564,o),
(217,574,o),
(217,599,cs),
(217,624,o),
(236,636,o),
(271,636,cs),
(319,636,ls),
(362,636,o),
(386,620,o),
(386,591,c),
(560,591,l),
(560,664,o),
(507,716,o),
(419,716,cs),
(204,716,ls),
(84,716,o),
(33,679,o),
(33,608,cs),
(33,543,o),
(76,503,o),
(160,499,cs),
(349,490,ls),
(381,488,o),
(397,482,o),
(397,463,cs),
(397,442,o),
(382,434,o),
(349,434,cs),
(30,434,l),
(30,0,l)
);
},
{
closed = 1;
nodes = (
(283,458,l),
(360,588,l),
(284,589,l),
(202,459,l)
);
}
);
width = 625;
}
);
unicode = 42920;
},
{
color = 11;
glyphname = T;
lastChange = "2023-12-15 15:19:24 +0000";
layers = (
{
anchors = (
{
name = bottom;
pos = (271,0);
},
{
name = center;
pos = (271,548);
},
{
name = top;
pos = (265,716);
}
);
layerId = m01;
shapes = (
{
closed = 1;
nodes = (
(502,0,l),
(502,434,l),
(417,434,ls),
(367,434,o),
(350,460,o),
(350,500,cs),
(350,636,l),
(375,636,ls),
(425,636,o),
(442,603,o),
(442,563,cs),
(442,511,l),
(532,511,l),
(532,716,l),
(10,716,l),
(10,511,l),
(100,511,l),
(100,564,ls),
(100,604,o),
(117,636,o),
(167,636,cs),
(192,636,l),
(192,495,ls),
(192,455,o),
(175,434,o),
(125,434,cs),
(40,434,l),
(40,0,l)
);
}
);
width = 542;
}
);
unicode = 84;
},
{
color = 11;
glyphname = Tdiagonalstroke;
lastChange = "2023-12-15 14:35:06 +0000";
layers = (
{
anchors = (
{
name = bottom;
pos = (271,0);
},
{
name = center;
pos = (271,358);
},
{
name = top;
pos = (265,716);
}
);
layerId = m01;
shapes = (
{
closed = 1;
nodes = (
(502,0,l),
(502,434,l),
(417,434,ls),
(367,434,o),
(350,460,o),
(350,500,cs),
(350,636,l),
(375,636,ls),
(425,636,o),
(442,603,o),
(442,563,cs),
(442,511,l),
(532,511,l),
(532,716,l),
(10,716,l),
(10,511,l),
(100,511,l),
(100,564,ls),
(100,604,o),
(117,636,o),
(167,636,cs),
(192,636,l),
(192,495,ls),
(192,455,o),
(175,434,o),
(125,434,cs),
(40,434,l),
(40,0,l)
);
},
{
closed = 1;
nodes = (
(515,627,l),
(613,791,l),
(523,792,l),
(446,672,l)
);
},
{
closed = 1;
nodes = (
(71,-60,l),
(129,57,l),
(69,137,l),
(-19,-59,l)
);
}
);
width = 583;
}
);
unicode = 574;
},
{
color = 11;
glyphname = Thook;
lastChange = "2023-12-15 14:35:06 +0000";
layers = (
{
anchors = (
{
name = bottom;
pos = (331,0);
},
{
name = center;
pos = (331,358);
},
{
name = top;
pos = (325,716);
}
);
layerId = m01;
shapes = (
{
closed = 1;
nodes = (
(562,0,l),
(562,434,l),
(477,434,ls),
(427,434,o),
(410,460,o),
(410,500,cs),
(410,636,l),
(435,636,ls),
(485,636,o),
(502,603,o),
(502,563,cs),
(502,511,l),
(592,511,l),
(592,716,l),
(252,716,l),
(252,495,ls),
(252,455,o),
(235,434,o),
(185,434,cs),
(100,434,l),
(100,0,l)
);
}
);
width = 602;
}
);
unicode = 428;
},
{
color = 11;
glyphname = Tretroflexhook;
lastChange = "2023-12-15 14:35:06 +0000";
layers = (
{
anchors = (
{
name = bottom;
pos = (271,0);
},
{
name = center;
pos = (271,358);
},
{
name = top;
pos = (265,716);
}
);
layerId = m01;
shapes = (
{
closed = 1;
nodes = (
(502,71,l),
(502,434,l),
(417,434,ls),
(367,434,o),
(350,460,o),
(350,500,cs),
(350,636,l),
(375,636,ls),
(425,636,o),
(442,603,o),
(442,563,cs),
(442,511,l),
(532,511,l),
(532,716,l),
(10,716,l),
(10,511,l),
(100,511,l),
(100,564,ls),
(100,604,o),
(117,636,o),
(167,636,cs),
(192,636,l),
(192,495,ls),
(192,455,o),
(175,434,o),
(125,434,cs),
(40,434,l),
(40,71,l)
);
},
{
closed = 1;
nodes = (
(572,-87,l),
(492,-53,o),
(502,-11,o),
(502,26,cs),
(502,154,l),
(40,154,l),
(40,26,l),
(40,-121,o),
(172,-140,o),
(560,-140,c)
);
}
);
width = 542;
}
);
unicode = 430;
},
{
color = 11;
glyphname = U;
lastChange = "2023-12-15 14:48:42 +0000";
layers = (
{
anchors = (
{
name = bottom;
pos = (344,0);
},
{
name = horn;
pos = (658,636);
},
{
name = ogonek;
pos = (658,0);
},
{
name = top;
pos = (346,716);
}
);
layerId = m01;
shapes = (
{
closed = 1;
nodes = (
(364,-8,ls),
(462,-8,o),
(496,48,o),
(496,110,cs),
(496,172,l),
(539,172,o),
(549,148,o),
(555,113,cs),
(574,0,l),
(658,0,l),
(658,434,l),
(608,434,o),
(591,460,o),
(591,500,cs),
(591,564,ls),
(591,604,o),
(608,636,o),
(658,636,c),
(658,716,l),
(381,716,l),
(381,631,l),
(427,631,o),
(443,604,o),
(443,564,cs),
(443,495,ls),
(443,455,o),
(426,434,o),
(402,434,cs),
(302,434,ls),
(278,434,o),
(261,455,o),
(261,495,cs),
(261,564,ls),
(261,604,o),
(278,631,o),
(323,631,c),
(323,716,l),
(36,716,l),
(36,636,l),
(86,636,o),
(103,604,o),
(103,564,cs),
(103,500,ls),
(103,460,o),
(86,434,o),
(36,434,c),
(36,178,ls),
(36,71,o),
(116,-8,o),
(225,-8,cs)
);
},
{
pos = (37,0);
ref = cutdetail.part;
scale = (0.9224,1);
}
);
width = 687;
}
);
metricRight = H;
unicode = 85;
},
{
color = 11;
glyphname = Ubar;
lastChange = "2023-12-15 14:35:06 +0000";
layers = (
{
anchors = (
{
name = bottom;
pos = (344,0);
},
{
name = horn;
pos = (658,636);
},
{
name = ogonek;
pos = (658,0);
},
{
name = top;
pos = (346,716);
}
);
layerId = m01;
shapes = (
{
closed = 1;
nodes = (
(364,-8,ls),
(462,-8,o),
(496,48,o),
(496,110,cs),
(496,172,l),
(539,172,o),
(549,148,o),
(555,113,cs),
(574,0,l),
(658,0,l),
(658,434,l),
(608,434,o),
(591,460,o),
(591,500,cs),
(591,564,ls),
(591,604,o),
(608,636,o),
(658,636,c),
(658,716,l),
(381,716,l),
(381,631,l),
(427,631,o),
(443,604,o),
(443,564,cs),
(443,495,ls),
(443,455,o),
(426,434,o),
(402,434,cs),
(302,434,ls),
(278,434,o),
(261,455,o),
(261,495,cs),
(261,564,ls),
(261,604,o),
(278,631,o),
(323,631,c),
(323,716,l),
(36,716,l),
(36,636,l),
(86,636,o),
(103,604,o),
(103,564,cs),
(103,500,ls),
(103,460,o),
(86,434,o),
(36,434,c),
(36,178,ls),
(36,71,o),
(116,-8,o),
(225,-8,cs)
);
},
{
closed = 1;
nodes = (
(499,501,l),
(499,558,l),
(207,558,l),
(207,501,l)
);
}
);
width = 687;
}
);
unicode = 580;
},
{
color = 11;
glyphname = Uogonek;
lastChange = "2023-12-15 14:35:06 +0000";
layers = (
{
anchors = (
{
name = bottom;
pos = (344,0);
},
{
name = horn;
pos = (658,636);
},
{
name = ogonek;
pos = (658,0);
},
{
name = top;
pos = (346,716);
}
);
layerId = m01;
shapes = (
{
closed = 1;
nodes = (
(364,-8,ls),
(462,-8,o),
(496,48,o),
(496,110,cs),
(496,172,l),
(539,172,o),
(549,148,o),
(555,113,cs),
(574,0,l),
(658,0,l),
(658,434,l),
(608,434,o),
(591,460,o),
(591,500,cs),
(591,564,ls),
(591,604,o),
(608,636,o),
(658,636,c),
(658,716,l),
(381,716,l),
(381,631,l),
(427,631,o),
(443,604,o),
(443,564,cs),
(443,495,ls),
(443,455,o),
(426,434,o),
(402,434,cs),
(302,434,ls),
(278,434,o),
(261,455,o),
(261,495,cs),
(261,564,ls),
(261,604,o),
(278,631,o),
(323,631,c),
(323,716,l),
(36,716,l),
(36,636,l),
(86,636,o),
(103,604,o),
(103,564,cs),
(103,500,ls),
(103,460,o),
(86,434,o),
(36,434,c),
(36,178,ls),
(36,71,o),
(116,-8,o),
(225,-8,cs)
);
},
{
pos = (37,0);
ref = cutdetail.part;
scale = (0.9224,1);
},
{
closed = 1;
nodes = (
(627,-168,o),
(662,-155,o),
(681,-138,c),
(681,-80,l),
(665,-94,o),
(647,-104,o),
(627,-104,cs),
(600,-103,o),
(576,-91,o),
(576,-56,cs),
(576,-38,o),
(593,0,o),
(658,0,c),
(574,0,l),
(506,0,o),
(490,-43,o),
(490,-77,cs),
(490,-134,o),
(539,-168,o),
(596,-168,cs)
);
}
);
width = 687;
}
);
unicode = 370;
},
{
glyphname = "Upsilon-latin";
lastChange = "2023-12-15 14:49:51 +0000";
layers = (
{
anchors = (
{
name = bottom;
pos = (340,0);
},
{
name = top;
pos = (340,716);
}
);
layerId = m01;
shapes = (
{
closed = 1;
nodes = (
(462,-8,ls),
(571,-8,o),
(651,71,o),
(651,178,cs),
(651,434,l),
(601,434,o),
(584,460,o),
(584,500,cs),
(584,635,l),
(651,635,l),
(651,716,l),
(519,716,ls),
(456,716,o),
(426,677,o),
(426,609,cs),
(426,495,ls),
(426,455,o),
(409,434,o),
(385,434,cs),
(295,434,ls),
(271,434,o),
(254,455,o),
(254,495,cs),
(254,609,ls),
(254,677,o),
(224,716,o),
(161,716,cs),
(29,716,l),
(29,635,l),
(96,635,l),
(96,500,ls),
(96,460,o),
(79,434,o),
(29,434,c),
(29,178,ls),
(29,71,o),
(109,-8,o),
(218,-8,cs)
);
},
{
pos = (25,0);
ref = cutdetail.part;
scale = (0.9224,1);
}
);
width = 680;
}
);
metricLeft = O;
metricRight = O;
unicode = 433;
},
{
color = 11;
glyphname = V;
lastChange = "2023-12-15 14:35:06 +0000";
layers = (
{
anchors = (
{
name = bottom;
pos = (300,0);
},
{
name = top;
pos = (330,716);
}
);
layerId = m01;
shapes = (
{
closed = 1;
nodes = (
(476,0,l),
(564,433,l),
(476,433,o),
(448,474,o),
(486,543,cs),
(509,584,ls),
(533,624,o),
(553,636,o),
(599,636,c),
(599,716,l),
(375,716,l),
(375,631,l),
(423,631,o),
(441,603,o),
(417,565,cs),
(348,452,l),
(346,452,l),
(276,564,ls),
(251,604,o),
(268,631,o),
(317,631,c),
(317,716,l),
(0,716,l),
(0,636,l),
(10,636,ls),
(48,636,o),
(83,611,o),
(100,571,cs),
(123,519,ls),
(143,473,o),
(107,434,o),
(44,434,c),
(127,0,l)
);
}
);
width = 599;
}
);
unicode = 86;
},
{
glyphname = "Gamma-latin";
lastChange = "2023-12-15 14:49:51 +0000";
layers = (
{
guides = (
{
angle = 113.8602;
locked = 1;
pos = (112,545);
},
{
angle = 113.8602;
locked = 1;
pos = (290,545);
}
);
layerId = m01;
shapes = (
{
closed = 1;
nodes = (
(442,-100,o),
(522,-41,o),
(522,39,cs),
(522,96,o),
(500,140,o),
(455,172,c),
(564,433,l),
(477,433,o),
(448,474,o),
(486,543,cs),
(509,584,ls),
(532,624,o),
(552,636,o),
(599,636,c),
(599,716,l),
(375,716,l),
(375,631,l),
(424,631,o),
(443,601,o),
(417,565,cs),
(338,452,l),
(336,452,l),
(275,564,ls),
(253,605,o),
(269,631,o),
(317,631,c),
(317,716,l),
(0,716,l),
(0,636,l),
(10,636,ls),
(48,636,o),
(83,611,o),
(100,571,cs),
(123,519,ls),
(143,473,o),
(107,434,o),
(44,434,c),
(124,172,l),
(63,132,o),
(41,100,o),
(41,52,cs),
(41,-42,o),
(153,-100,o),
(333,-100,cs)
);
},
{
closed = 1;
nodes = (
(201,-8,o),
(169,19,o),
(169,67,cs),
(169,106,o),
(189,134,o),
(245,172,c),
(316,127,o),
(342,99,o),
(342,65,cs),
(342,22,o),
(308,-8,o),
(260,-8,cs)
);
}
);
width = 599;
}
);
unicode = 404;
},
{
color = 11;
glyphname = Vhook;
lastChange = "2023-12-15 14:35:06 +0000";
layers = (
{
anchors = (
{
name = bottom;
pos = (352,0);
},
{
name = top;
pos = (352,716);
}
);
layerId = m01;
shapes = (
{
pos = (37,0);
ref = cutdetail.part;
scale = (0.9224,1);
},
{
closed = 1;
nodes = (
(626,419,ls),
(626,604,o),
(613,716,o),
(442,716,c),
(381,716,l),
(381,631,l),
(426,631,o),
(443,604,o),
(443,533,cs),
(443,495,ls),
(443,455,o),
(425,434,o),
(402,434,cs),
(352,434,l),
(302,434,ls),
(278,434,o),
(261,455,o),
(261,495,cs),
(261,564,ls),
(261,604,o),
(278,631,o),
(323,631,c),
(323,716,l),
(36,716,l),
(36,636,l),
(86,636,o),
(103,604,o),
(103,564,cs),
(103,500,ls),
(103,460,o),
(86,434,o),
(36,434,c),
(36,178,ls),
(36,71,o),
(116,-8,o),
(263,-8,cs),
(443,-8,ls),
(552,-8,o),
(626,71,o),
(626,205,cs)
);
}
);
width = 655;
}
);
metricRight = O;
unicode = 434;
},
{
color = 11;
glyphname = Vturned;
lastChange = "2023-12-15 14:35:06 +0000";
layers = (
{
anchors = (
{
name = bottom;
pos = (330,0);
},
{
name = ogonek;
pos = (583,0);
},
{
name = top;
pos = (300,716);
}
);
layerId = m01;
shapes = (
{
closed = 1;
nodes = (
(384,453,o),
(361,439,o),
(340,439,cs),
(324,439,l),
(324,-1,l),
(651,-1,l),
(651,433,l),
(591,433,o),
(581,450,o),
(544,516,cs),
(432,715,l),
(238,715,l),
(137,514,ls),
(101,442,o),
(77,434,o),
(29,434,c),
(29,0,l),
(266,-1,l),
(266,439,l),
(243,439,ls),
(226,439,o),
(212,451,o),
(231,489,cs),
(299,623,l),
(367,487,ls)
);
}
);
width = 680;
}
);
unicode = 581;
},
{
color = 11;
glyphname = W;
lastChange = "2023-12-15 14:35:06 +0000";
layers = (
{
anchors = (
{
name = bottom;
pos = (453,0);
},
{
name = top;
pos = (453,715);
}
);
background = {
shapes = (
{
closed = 1;
nodes = (
(790,0,l),
(854,433,l),
(811,433,o),
(739,462,o),
(777,538,cs),
(799,582,ls),
(814,613,o),
(836,636,o),
(866,636,cs),
(885,636,l),
(885,716,l),
(669,716,l),
(669,631,l),
(717,631,o),
(726,607,o),
(703,564,cs),
(574,335,l),
(731,336,l),
(600,564,ls),
(573,607,o),
(594,631,o),
(626,631,c),
(626,716,l),
(325,716,l),
(325,636,l),
(374,636,o),
(421,614,o),
(444,574,cs),
(468,533,ls),
(496,485,o),
(518,439,o),
(462,439,c),
(503,0,l)
);
},
{
closed = 1;
nodes = (
(403,0,l),
(442,439,l),
(384,439,o),
(407,482,o),
(438,543,cs),
(459,584,ls),
(481,623,o),
(491,636,o),
(538,636,c),
(538,716,l),
(325,716,l),
(325,631,l),
(370,631,o),
(378,607,o),
(355,564,cs),
(222,337,l),
(387,335,l),
(253,564,ls),
(229,607,o),
(248,631,o),
(282,631,c),
(282,716,l),
(0,716,l),
(0,636,l),
(20,636,ls),
(58,636,o),
(78,609,o),
(95,572,cs),
(110,538,ls),
(149,451,o),
(77,434,o),
(34,434,c),
(111,0,l)
);
}
);
};
layerId = m01;
shapes = (
{
closed = 1;
nodes = (
(403,0,l),
(442,439,l),
(396,439,o),
(396,459,o),
(438,543,cs),
(449,564,l),
(450,564,l),
(468,533,ls),
(507,466,o),
(506,439,o),
(462,439,c),
(503,0,l),
(790,0,l),
(854,433,l),
(786,433,o),
(749,483,o),
(777,538,cs),
(799,582,ls),
(816,617,o),
(839,636,o),
(866,636,cs),
(885,636,l),
(885,716,l),
(669,716,l),
(669,631,l),
(715,631,o),
(727,609,o),
(703,564,cs),
(653,474,l),
(651,474,l),
(600,564,ls),
(577,601,o),
(588,631,o),
(626,631,c),
(626,716,l),
(325,716,l),
(325,631,l),
(369,631,o),
(379,608,o),
(355,564,cs),
(305,478,l),
(303,478,l),
(253,564,ls),
(231,603,o),
(244,631,o),
(282,631,c),
(282,716,l),
(0,716,l),
(0,636,l),
(20,636,ls),
(52,636,o),
(74,617,o),
(95,572,cs),
(110,538,ls),
(138,476,o),
(107,434,o),
(34,434,c),
(111,0,l)
);
}
);
width = 885;
}
);
metricLeft = V;
metricRight = V;
unicode = 87;
},
{
color = 11;
glyphname = Whook;
lastChange = "2023-12-15 14:35:06 +0000";
layers = (
{
anchors = (
{
name = bottom;
pos = (442,0);
},
{
name = top;
pos = (471,715);
}
);
layerId = m01;
shapes = (
{
closed = 1;
nodes = (
(790,0,l),
(854,433,l),
(811,433,o),
(739,462,o),
(777,538,cs),
(799,582,ls),
(814,613,o),
(836,636,o),
(866,636,cs),
(885,636,l),
(885,716,l),
(669,716,l),
(669,631,l),
(717,631,o),
(726,607,o),
(703,564,cs),
(574,335,l),
(731,336,l),
(600,564,ls),
(573,607,o),
(594,631,o),
(626,631,c),
(626,716,l),
(325,716,l),
(325,636,l),
(374,636,o),
(421,614,o),
(444,574,cs),
(468,533,ls),
(496,485,o),
(518,439,o),
(462,439,c),
(503,0,l)
);
},
{
closed = 1;
nodes = (
(403,0,l),
(442,439,l),
(384,439,o),
(407,482,o),
(438,543,cs),
(459,584,ls),
(481,623,o),
(491,636,o),
(538,636,c),
(538,716,l),
(325,716,l),
(325,631,l),
(370,631,o),
(378,607,o),
(355,564,cs),
(222,337,l),
(387,335,l),
(253,564,ls),
(229,607,o),
(248,631,o),
(282,631,c),
(282,716,l),
(0,716,l),
(0,636,l),
(20,636,ls),
(58,636,o),
(78,609,o),
(95,572,cs),
(110,538,ls),
(149,451,o),
(77,434,o),
(34,434,c),
(111,0,l)
);
},
{
closed = 1;
nodes = (
(810,636,l),
(885,636,l),
(930,636,o),
(947,606,o),
(947,566,c),
(1065,566,l),
(1065,647,o),
(1008,716,o),
(921,716,cs),
(810,716,l)
);
}
);
width = 1065;
}
);
unicode = 11378;
},
{
color = 11;
glyphname = X;
lastChange = "2023-12-15 14:35:06 +0000";
layers = (
{
anchors = (
{
name = bottom;
pos = (347,0);
},
{
name = top;
pos = (357,715);
}
);
background = {
shapes = (
{
closed = 1;
nodes = (
(662,0,l),
(662,434,l),
(643,434,ls),
(629,434,o),
(607,440,o),
(588,451,cs),
(310,614,ls),
(301,619,o),
(301,631,o),
(311,631,cs),
(332,631,l),
(332,716,l),
(31,716,l),
(31,636,l),
(42,636,l),
(64,636,o),
(100,615,o),
(111,608,cs),
(378,452,ls),
(391,444,o),
(385,434,o),
(372,434,cs),
(354,434,l),
(354,0,l)
);
},
{
closed = 1;
nodes = (
(304,0,l),
(304,436,l),
(270,436,ls),
(253,436,o),
(254,450,o),
(267,458,cs),
(380,530,l),
(252,530,l),
(114,447,ls),
(97,437,o),
(69,434,o),
(33,434,c),
(33,0,l)
);
},
{
closed = 1;
nodes = (
(427,540,l),
(565,619,ls),
(583,629,o),
(601,635,o),
(631,636,c),
(645,636,l),
(645,716,l),
(382,716,l),
(382,631,l),
(402,631,ls),
(424,631,o),
(421,615,o),
(407,607,cs),
(286,540,l)
);
}
);
};
layerId = m01;
shapes = (
{
closed = 1;
nodes = (
(294,0,l),
(294,439,l),
(262,439,ls),
(249,439,o),
(246,452,o),
(257,458,cs),
(309,489,l),
(368,459,ls),
(383,451,o),
(382,439,o),
(366,439,cs),
(349,439,l),
(349,0,l),
(666,0,l),
(666,434,l),
(647,434,ls),
(632,434,o),
(610,441,o),
(592,451,cs),
(437,542,l),
(437,544,l),
(569,619,ls),
(591,631,o),
(610,636,o),
(635,636,cs),
(649,636,l),
(649,716,l),
(392,716,l),
(392,631,l),
(406,631,ls),
(424,631,o),
(429,617,o),
(414,609,cs),
(367,583,l),
(317,612,ls),
(305,619,o),
(305,631,o),
(317,631,cs),
(337,631,l),
(337,716,l),
(27,716,l),
(27,636,l),
(43,636,ls),
(61,636,o),
(80,629,o),
(114,608,cs),
(241,529,l),
(241,527,l),
(108,447,ls),
(92,438,o),
(69,434,o),
(27,434,c),
(27,0,l)
);
}
);
width = 693;
}
);
unicode = 88;
},
{
color = 11;
glyphname = Y;
lastChange = "2023-12-15 14:35:06 +0000";
layers = (
{
anchors = (
{
name = bottom;
pos = (345,0);
},
{
name = top;
pos = (325,716);
},
{
name = topleft;
pos = (24,716);
}
);
background = {
shapes = (
{
closed = 1;
nodes = (
(460,0,ls),
(569,0,o),
(649,79,o),
(649,186,cs),
(649,434,l),
(599,434,o),
(582,460,o),
(582,500,cs),
(582,564,ls),
(582,604,o),
(599,636,o),
(649,636,c),
(649,716,l),
(361,716,l),
(361,631,l),
(401,631,o),
(421,610,o),
(421,575,cs),
(421,488,ls),
(421,464,o),
(393,439,o),
(357,439,cs),
(29,439,l),
(29,0,l)
);
},
{
closed = 1;
nodes = (
(474,560,l),
(262,578,l),
(262,613,o),
(278,631,o),
(308,631,c),
(308,716,l),
(29,716,l),
(29,636,l),
(80,636,o),
(98,607,o),
(98,567,cs),
(98,518,l),
(474,486,l)
);
}
);
};
layerId = m01;
shapes = (
{
closed = 1;
nodes = (
(460,0,ls),
(569,0,o),
(649,79,o),
(649,186,cs),
(649,434,l),
(599,434,o),
(582,460,o),
(582,500,cs),
(582,564,ls),
(582,604,o),
(599,636,o),
(649,636,c),
(649,716,l),
(361,716,l),
(361,631,l),
(401,631,o),
(421,610,o),
(421,575,cs),
(421,565,l),
(262,578,l),
(262,613,o),
(278,631,o),
(308,631,c),
(308,716,l),
(29,716,l),
(29,636,l),
(80,636,o),
(98,607,o),
(98,567,cs),
(98,518,l),
(421,491,l),
(421,488,ls),
(421,464,o),
(393,439,o),
(357,439,cs),
(29,439,l),
(29,0,l)
);
}
);
width = 685;
}
);
metricRight = J;
unicode = 89;
},
{
color = 11;
glyphname = Yhook;
lastChange = "2023-12-15 14:35:06 +0000";
layers = (
{
anchors = (
{
name = bottom;
pos = (345,0);
},
{
name = top;
pos = (325,716);
},
{
name = topleft;
pos = (24,716);
}
);
layerId = m01;
shapes = (
{
closed = 1;
nodes = (
(460,0,ls),
(569,0,o),
(649,79,o),
(649,186,cs),
(649,434,l),
(599,434,o),
(582,460,o),
(582,500,cs),
(582,564,ls),
(582,604,o),
(599,636,o),
(649,636,c),
(649,716,l),
(361,716,l),
(361,631,l),
(401,631,o),
(421,610,o),
(421,575,cs),
(421,488,ls),
(421,464,o),
(393,439,o),
(357,439,cs),
(29,439,l),
(29,0,l)
);
},
{
closed = 1;
nodes = (
(474,560,l),
(262,578,l),
(262,613,o),
(278,631,o),
(308,631,c),
(308,716,l),
(29,716,l),
(29,636,l),
(80,636,o),
(98,607,o),
(98,567,cs),
(98,518,l),
(474,486,l)
);
},
{
closed = 1;
nodes = (
(835,547,l),
(835,638,o),
(776,716,o),
(686,716,cs),
(539,716,l),
(539,636,l),
(648,636,l),
(695,636,o),
(712,592,o),
(712,547,c)
);
}
);
width = 836;
}
);
unicode = 435;
},
{
color = 11;
glyphname = Ystroke;
lastChange = "2023-12-15 14:35:06 +0000";
layers = (
{
anchors = (
{
name = bottom;
pos = (345,0);
},
{
name = top;
pos = (325,716);
},
{
name = topleft;
pos = (24,716);
}
);
layerId = m01;
shapes = (
{
closed = 1;
nodes = (
(460,0,ls),
(569,0,o),
(649,79,o),
(649,186,cs),
(649,434,l),
(599,434,o),
(582,460,o),
(582,500,cs),
(582,564,ls),
(582,604,o),
(599,636,o),
(649,636,c),
(649,716,l),
(361,716,l),
(361,631,l),
(401,631,o),
(421,610,o),
(421,575,cs),
(421,488,ls),
(421,464,o),
(393,439,o),
(357,439,cs),
(29,439,l),
(29,0,l)
);
},
{
closed = 1;
nodes = (
(474,560,l),
(262,578,l),
(262,613,o),
(278,631,o),
(308,631,c),
(308,716,l),
(29,716,l),
(29,636,l),
(80,636,o),
(98,607,o),
(98,567,cs),
(98,518,l),
(474,486,l)
);
},
{
closed = 1;
nodes = (
(187,517,l),
(187,587,l),
(27,587,l),
(27,517,l)
);
},
{
closed = 1;
nodes = (
(649,500,l),
(649,570,l),
(465,570,l),
(465,500,l)
);
}
);
width = 685;
}
);
unicode = 590;
},
{
color = 11;
glyphname = Z;
lastChange = "2023-12-15 14:35:06 +0000";
layers = (
{
anchors = (
{
name = bottom;
pos = (290,0);
},
{
name = center;
pos = (322,552);
},
{
name = ogonek;
pos = (-43,0);
},
{
name = top;
pos = (291,716);
},
{
name = topright;
pos = (547,716);
}
);
layerId = m01;
shapes = (
{
closed = 1;
nodes = (
(561,0,l),
(561,499,l),
(468,499,l),
(468,459,o),
(450,439,o),
(408,439,cs),
(281,439,l),
(281,441,l),
(561,628,l),
(561,716,l),
(28,716,l),
(28,569,l),
(122,569,l),
(122,609,o),
(139,636,o),
(191,636,cs),
(327,636,l),
(327,634,l),
(28,434,l),
(27,0,l)
);
}
);
width = 588;
}
);
unicode = 90;
},
{
glyphname = Saltillo;
lastChange = "2023-12-15 14:49:04 +0000";
layers = (
{
layerId = m01;
shapes = (
{
closed = 1;
nodes = (
(99,310,l),
(119,751,l),
(29,751,l),
(29,310,l)
);
}
);
width = 148;
}
);
metricLeft = I;
metricRight = I;
unicode = 42891;
},
{
color = 11;
glyphname = C.ss01;
lastChange = "2023-12-15 14:35:06 +0000";
layers = (
{
anchors = (
{
name = bottom;
pos = (322,0);
},
{
name = top;
pos = (298,716);
}
);
guides = (
{
pos = (-222,802);
}
);
layerId = m01;
shapes = (
{
closed = 1;
nodes = (
(561,0,l),
(561,434,l),
(323,434,ls),
(238,434,o),
(231,465,o),
(231,520,cs),
(231,547,ls),
(231,609,o),
(248,636,o),
(298,636,cs),
(331,636,ls),
(381,636,o),
(398,609,o),
(398,564,c),
(562,564,l),
(562,656,o),
(498,722,o),
(411,722,cs),
(218,722,ls),
(109,722,o),
(29,643,o),
(29,536,cs),
(29,186,ls),
(29,79,o),
(109,0,o),
(218,0,cs)
);
}
);
width = 589;
}
);
metricLeft = O;
},
{
color = 11;
glyphname = Jcrossedtail.ss01;
lastChange = "2023-12-15 14:35:06 +0000";
layers = (
{
layerId = m01;
shapes = (
{
closed = 1;
nodes = (
(531,572,o),
(365,580,o),
(341,580,cs),
(99,580,o),
(31,555,o),
(31,423,cs),
(31,186,ls),
(31,79,o),
(111,0,o),
(220,0,cs),
(395,0,l),
(504,0,o),
(584,79,o),
(584,186,cs),
(584,434,l),
(539,434,o),
(517,455,o),
(517,500,cs),
(517,564,ls),
(517,611,o),
(540,636,o),
(584,636,c),
(584,716,l),
(292,716,l),
(292,636,l),
(337,636,o),
(359,614,o),
(359,569,cs),
(359,500,ls),
(359,455,o),
(330,439,o),
(266,439,cs),
(179,439,o),
(146,448,o),
(146,476,cs),
(146,506,o),
(196,512,o),
(306,512,cs),
(347,512,o),
(526,505,o),
(604,479,c),
(618,547,l)
);
}
);
width = 638;
}
);
},
{
color = 11;
glyphname = V.ss01;
lastChange = "2023-12-15 14:35:06 +0000";
layers = (
{
anchors = (
{
name = bottom;
pos = (385,0);
},
{
name = top;
pos = (385,716);
}
);
layerId = m01;
shapes = (
{
closed = 1;
nodes = (
(539,0,l),
(674,359,l),
(636,359,o),
(574,385,o),
(574,501,cs),
(574,555,o),
(619,627,o),
(736,627,c),
(737,716,l),
(438,716,l),
(438,656,l),
(481,656,o),
(514,625,o),
(514,597,cs),
(514,558,o),
(498,533,o),
(478,501,cs),
(428,421,l),
(376,508,ls),
(356,541,o),
(333,576,o),
(333,612,cs),
(333,638,o),
(362,656,o),
(393,656,c),
(393,716,l),
(32,716,l),
(32,650,l),
(79,646,o),
(206,555,o),
(206,456,cs),
(206,408,o),
(188,373,o),
(98,367,c),
(193,0,l)
);
}
);
width = 769;
}
);
},
{
color = 11;
glyphname = Y.ss01;
lastChange = "2023-12-15 14:35:06 +0000";
layers = (
{
backgroundImage = {
imagePath = "/Users/seyi/NSIRD_screencaptureui_iWUzN2/Screenshot 2023-11-03 at 8.34.04 PM.png";
};
layerId = m01;
shapes = (
{
closed = 1;
nodes = (
(597,0,l),
(597,440,l),
(469,440,ls),
(429,440,o),
(418,463,o),
(418,488,c),
(472,509,o),
(502,521,o),
(551,568,cs),
(587,602,o),
(600,636,o),
(656,636,c),
(656,716,l),
(380,716,l),
(380,631,l),
(412,631,ls),
(429,631,o),
(440,620,o),
(440,609,cs),
(440,589,o),
(385,557,o),
(308,538,c),
(393,545,l),
(312,565,o),
(267,589,o),
(267,609,cs),
(267,620,o),
(278,631,o),
(295,631,cs),
(327,631,l),
(327,716,l),
(6,716,l),
(6,636,l),
(62,636,o),
(87,602,o),
(118,568,cs),
(163,518,o),
(187,509,o),
(240,488,c),
(240,463,o),
(245,440,o),
(189,440,cs),
(65,440,l),
(65,0,l)
);
}
);
width = 662;
}
);
},
{
color = 11;
glyphname = J.ss02;
lastChange = "2023-12-15 14:35:06 +0000";
layers = (
{
anchors = (
{
name = bottom;
pos = (281,0);
},
{
name = top;
pos = (392,716);
}
);
layerId = m01;
shapes = (
{
closed = 1;
nodes = (
(349,0,ls),
(458,0,o),
(538,79,o),
(538,186,cs),
(538,434,l),
(488,434,o),
(471,460,o),
(471,500,cs),
(471,564,ls),
(471,604,o),
(488,636,o),
(538,636,c),
(538,716,l),
(246,716,l),
(246,636,l),
(296,636,o),
(313,609,o),
(313,569,cs),
(313,500,ls),
(313,460,o),
(296,439,o),
(246,439,cs),
(30,439,l),
(30,0,l)
);
}
);
width = 574;
}
);
},
{
color = 11;
glyphname = L.ss02;
lastChange = "2023-12-15 14:35:06 +0000";
layers = (
{
layerId = m01;
shapes = (
{
closed = 1;
nodes = (
(537,0,l),
(537,439,l),
(255,439,l),
(255,564,l),
(255,604,o),
(272,636,o),
(322,636,c),
(322,716,l),
(29,716,l),
(29,636,l),
(79,636,o),
(97,604,o),
(97,564,cs),
(97,500,ls),
(97,460,o),
(80,434,o),
(30,434,c),
(29,0,l)
);
}
);
width = 567;
}
);
},
{
color = 11;
glyphname = N.ss02;
lastChange = "2023-12-15 14:35:06 +0000";
layers = (
{
layerId = m01;
shapes = (
{
closed = 1;
nodes = (
(311,0,l),
(311,434,l),
(224,434,o),
(178,459,o),
(178,506,cs),
(178,554,l),
(369,434,l),
(369,0,l),
(617,0,l),
(617,440,l),
(559,440,o),
(550,463,o),
(550,506,cs),
(550,567,ls),
(550,607,o),
(566,636,o),
(617,636,c),
(617,716,l),
(420,716,l),
(420,631,l),
(465,631,o),
(485,615,o),
(485,580,cs),
(485,550,l),
(221,716,l),
(47,716,l),
(46,636,l),
(97,636,o),
(113,607,o),
(113,567,cs),
(113,506,ls),
(113,463,o),
(104,440,o),
(46,440,c),
(46,0,l)
);
},
{
closed = 0;
nodes = (
(369,0,l)
);
}
);
width = 600;
}
);
},
{
color = 11;
glyphname = Q.ss02;
lastChange = "2023-12-15 14:35:06 +0000";
layers = (
{
layerId = m01;
shapes = (
{
closed = 1;
nodes = (
(645,-8,l),
(645,434,l),
(487,434,l),
(487,441,o),
(487,449,o),
(507,449,cs),
(526,449,ls),
(592,449,o),
(620,490,o),
(620,553,cs),
(620,581,ls),
(620,663,o),
(584,722,o),
(460,722,cs),
(218,722,ls),
(109,722,o),
(29,643,o),
(29,536,cs),
(29,297,ls),
(29,71,o),
(109,-8,o),
(310,-8,cs)
);
},
{
pos = (-15,5);
ref = cutdetail.part;
},
{
closed = 1;
nodes = (
(248,439,o),
(231,460,o),
(231,500,cs),
(231,569,ls),
(231,609,o),
(248,636,o),
(298,636,cs),
(356,636,ls),
(406,636,o),
(423,609,o),
(423,569,cs),
(423,500,ls),
(423,460,o),
(406,439,o),
(382,439,cs),
(272,439,ls)
);
}
);
width = 671;
}
);
},
{
color = 11;
glyphname = Y.ss02;
lastChange = "2023-12-15 14:35:06 +0000";
layers = (
{
layerId = m01;
shapes = (
{
closed = 1;
nodes = (
(503,0,ls),
(607,0,o),
(678,74,o),
(678,184,cs),
(678,440,l),
(620,440,o),
(610,463,o),
(610,506,cs),
(610,567,ls),
(610,607,o),
(627,636,o),
(678,636,c),
(678,716,l),
(386,716,l),
(386,631,l),
(430,631,o),
(450,610,o),
(450,575,cs),
(450,519,l),
(495,561,l),
(264,578,l),
(264,616,o),
(286,631,o),
(328,631,c),
(328,716,l),
(36,716,l),
(36,542,l),
(495,502,l),
(450,551,l),
(450,488,ls),
(450,463,o),
(422,440,o),
(386,440,cs),
(36,440,l),
(36,0,l)
);
}
);
width = 714;
}
);
},
{
color = 11;
glyphname = G.ss03;
lastChange = "2023-12-15 14:35:06 +0000";
layers = (
{
anchors = (
{
name = bottom;
pos = (328,0);
},
{
name = top;
pos = (328,716);
}
);
layerId = m01;
shapes = (
{
closed = 1;
nodes = (
(307,-8,ls),
(410,-8,o),
(444,48,o),
(444,110,cs),
(444,170,l),
(472,170,l),
(502,0,l),
(587,0,l),
(587,500,l),
(423,500,l),
(423,460,o),
(406,439,o),
(382,439,cs),
(272,439,ls),
(248,439,o),
(231,460,o),
(231,500,cs),
(231,547,ls),
(231,609,o),
(248,636,o),
(298,636,cs),
(356,636,ls),
(406,636,o),
(423,609,o),
(423,564,c),
(587,564,l),
(587,656,o),
(523,722,o),
(436,722,cs),
(218,722,ls),
(109,722,o),
(29,643,o),
(29,536,cs),
(29,178,ls),
(29,71,o),
(109,-8,o),
(218,-8,cs)
);
},
{
pos = (-15,5);
ref = cutdetail.part;
}
);
width = 627;
}
);
},
{
color = 11;
glyphname = Q.ss03;
lastChange = "2023-12-15 14:35:06 +0000";
layers = (
{
anchors = (
{
name = bottom;
pos = (352,0);
},
{
name = center;
pos = (334,358);
},
{
name = ogonek;
pos = (428,0);
},
{
name = top;
pos = (352,716);
},
{
name = topleft;
pos = (-3,716);
},
{
name = topright;
pos = (670,716);
}
);
layerId = m01;
shapes = (
{
closed = 1;
nodes = (
(436,-8,ls),
(545,-8,o),
(625,71,o),
(625,178,cs),
(625,536,ls),
(625,643,o),
(545,722,o),
(436,722,cs),
(218,722,ls),
(109,722,o),
(29,643,o),
(29,536,cs),
(29,178,ls),
(29,71,o),
(109,-8,o),
(218,-8,cs)
);
},
{
closed = 1;
nodes = (
(494,-140,l),
(494,-60,l),
(423,-60,ls),
(388,-60,o),
(364,-48,o),
(364,-14,c),
(364,76,l),
(279,76,l),
(279,-13,l),
(279,-100,o),
(325,-140,o),
(424,-140,c)
);
},
{
pos = (-15,5);
ref = cutdetail.part;
},
{
closed = 1;
nodes = (
(248,439,o),
(231,460,o),
(231,500,cs),
(231,569,ls),
(231,609,o),
(248,636,o),
(298,636,cs),
(356,636,ls),
(406,636,o),
(423,609,o),
(423,569,cs),
(423,500,ls),
(423,460,o),
(406,439,o),
(382,439,cs),
(272,439,ls)
);
}
);
width = 654;
}
);
metricLeft = O;
metricRight = O;
},
{
color = 11;
glyphname = U.ss03;
lastChange = "2023-12-15 14:48:42 +0000";
layers = (
{
layerId = m01;
shapes = (
{
closed = 1;
nodes = (
(378,-8,ls),
(481,-8,o),
(515,48,o),
(515,110,cs),
(515,170,l),
(543,170,l),
(573,0,l),
(658,0,l),
(658,434,l),
(608,434,o),
(591,460,o),
(591,500,cs),
(591,564,ls),
(591,604,o),
(608,636,o),
(658,636,c),
(658,716,l),
(376,716,l),
(376,631,l),
(427,631,o),
(443,604,o),
(443,564,cs),
(443,495,ls),
(443,455,o),
(426,434,o),
(402,434,cs),
(302,434,ls),
(278,434,o),
(261,455,o),
(261,495,cs),
(261,564,ls),
(261,604,o),
(278,631,o),
(328,631,c),
(328,716,l),
(36,716,l),
(36,636,l),
(86,636,o),
(103,604,o),
(103,564,cs),
(103,500,ls),
(103,460,o),
(86,434,o),
(36,434,c),
(36,178,ls),
(36,71,o),
(116,-8,o),
(225,-8,cs)
);
},
{
pos = (37,0);
ref = cutdetail.part;
scale = (0.9224,1);
}
);
width = 687;
}
);
metricRight = H;
},
{
color = 11;
glyphname = bilabialclick;
lastChange = "2023-12-15 14:35:06 +0000";
layers = (
{
anchors = (
{
name = bottom;
pos = (324,0);
},
{
name = center;
pos = (324,358);
},
{
name = horn;
pos = (558,642);
},
{
name = ogonek;
pos = (416,-8);
},
{
name = top;
pos = (317,716);
},
{
name = topleft;
pos = (-13,716);
}
);
layerId = m01;
shapes = (
{
closed = 1;
nodes = (
(416,-8,ls),
(525,-8,o),
(605,71,o),
(605,178,cs),
(605,536,ls),
(605,643,o),
(525,722,o),
(416,722,cs),
(218,722,ls),
(109,722,o),
(29,643,o),
(29,536,cs),
(29,178,ls),
(29,71,o),
(109,-8,o),
(218,-8,cs)
);
},
{
closed = 1;
nodes = (
(253,439,o),
(229,450,o),
(230,492,cs),
(231,569,ls),
(232,609,o),
(248,636,o),
(298,636,cs),
(336,636,ls),
(396,636,o),
(403,609,o),
(403,569,cs),
(403,492,ls),
(403,450,o),
(380,439,o),
(366,439,cs),
(267,439,ls)
);
},
{
closed = 1;
nodes = (
(334,496,o),
(361,511,o),
(361,538,cs),
(361,559,o),
(342,580,o),
(319,580,cs),
(295,580,o),
(277,561,o),
(277,538,cs),
(277,515,o),
(292,496,o),
(319,496,cs)
);
}
);
width = 634;
}
);
unicode = 664;
},
{
color = 11;
glyphname = esh;
lastChange = "2023-12-15 14:35:06 +0000";
layers = (
{
layerId = m01;
shapes = (
{
closed = 1;
nodes = (
(134,156,ls),
(134,119,o),
(124,81,o),
(80,81,cs),
(60,81,l),
(60,1,l),
(184,1,ls),
(249,1,o),
(292,56,o),
(292,140,cs),
(292,562,ls),
(292,599,o),
(302,637,o),
(346,637,cs),
(366,637,l),
(366,717,l),
(242,717,ls),
(177,717,o),
(134,662,o),
(134,578,cs)
);
}
);
width = 386;
}
);
unicode = 643;
},
{
glyphname = glottalstop;
lastChange = "2023-12-15 14:49:00 +0000";
layers = (
{
layerId = m01;
shapes = (
{
closed = 1;
nodes = (
(150,438,l),
(150,368,ls),
(150,328,o),
(133,307,o),
(83,307,c),
(83,-1,l),
(395,-1,l),
(395,307,l),
(345,307,o),
(328,333,o),
(328,373,cs),
(328,438,l)
);
},
{
closed = 1;
nodes = (
(150,368,l),
(302,368,ls),
(431,368,o),
(543,421,o),
(543,560,cs),
(543,648,o),
(478,723,o),
(334,722,cs),
(161,721,ls),
(74,720,o),
(0,656,o),
(0,564,c),
(164,564,l),
(164,609,o),
(194,636,o),
(244,636,cs),
(275,636,ls),
(325,636,o),
(371,620,o),
(371,577,cs),
(371,506,o),
(295,512,o),
(255,512,cs),
(150,513,l)
);
}
);
width = 553;
}
);
unicode = 660;
},
{
color = 11;
glyphname = glottalstopsmall;
lastChange = "2023-12-15 14:35:06 +0000";
layers = (
{
layerId = m01;
shapes = (
{
closed = 1;
nodes = (
(150,275,l),
(150,205,ls),
(150,165,o),
(133,144,o),
(83,144,c),
(83,-1,l),
(395,-1,l),
(395,144,l),
(345,144,o),
(328,170,o),
(328,210,cs),
(328,275,l)
);
},
{
closed = 1;
nodes = (
(150,205,l),
(302,205,ls),
(431,205,o),
(543,258,o),
(543,397,cs),
(543,485,o),
(478,560,o),
(334,559,cs),
(161,558,ls),
(74,557,o),
(0,493,o),
(0,401,c),
(164,401,l),
(164,446,o),
(194,473,o),
(244,473,cs),
(275,473,ls),
(325,473,o),
(371,457,o),
(371,414,cs),
(371,343,o),
(295,349,o),
(255,349,cs),
(150,350,l)
);
}
);
width = 553;
}
);
unicode = 578;
},
{
glyphname = lambdastroke;
lastChange = "2023-12-15 14:49:00 +0000";
layers = (
{
layerId = m01;
shapes = (
{
alignment = -1;
pos = (0,716);
ref = Y;
scale = (1,-1);
},
{
closed = 1;
nodes = (
(478,671,l),
(550,791,l),
(460,792,l),
(383,672,l)
);
},
{
closed = 1;
nodes = (
(270,229,l),
(328,346,l),
(233,348,l),
(180,230,l)
);
}
);
width = 678;
}
);
metricLeft = O;
metricRight = O;
unicode = 411;
},
{
color = 0;
glyphname = rfishhook;
lastChange = "2024-01-05 12:20:37 +0000";
layers = (
{
anchors = (
{
name = bottom;
pos = (197,0);
},
{
name = top;
pos = (197,715);
}
);
layerId = m01;
shapes = (
{
closed = 1;
nodes = (
(322,0,l),
(322,439,l),
(274,439,o),
(254,457,o),
(254,500,cs),
(254,529,ls),
(254,572,o),
(279,584,o),
(365,584,c),
(365,716,l),
(251,716,ls),
(144,716,o),
(96,677,o),
(96,591,cs),
(96,495,ls),
(96,452,o),
(76,434,o),
(29,434,c),
(29,0,l)
);
}
);
width = 394;
}
);
metricLeft = O;
metricRight = O;
unicode = 638;
changeCount = 1;
},
{
glyphname = clickalveolar;
lastChange = "2023-12-15 14:48:45 +0000";
layers = (
{
layerId = m01;
shapes = (
{
closed = 1;
nodes = (
(229,-66,l),
(229,345,l),
(270,345,l),
(270,415,l),
(229,415,l),
(229,505,l),
(270,505,l),
(270,575,l),
(229,575,l),
(229,716,l),
(71,716,l),
(71,575,l),
(29,575,l),
(29,505,l),
(71,505,l),
(71,415,l),
(29,415,l),
(29,345,l),
(71,345,l),
(71,-66,l)
);
}
);
width = 299;
}
);
metricLeft = H;
metricRight = H;
unicode = 450;
},
{
glyphname = clickdental;
lastChange = "2023-12-15 14:48:45 +0000";
layers = (
{
layerId = m01;
shapes = (
{
closed = 1;
nodes = (
(187,-66,l),
(187,716,l),
(29,716,l),
(29,-66,l)
);
}
);
width = 216;
}
);
metricLeft = H;
metricRight = H;
unicode = 448;
},
{
glyphname = pi;
lastChange = "2023-12-15 14:48:45 +0000";
layers = (
{
layerId = m01;
shapes = (
{
closed = 1;
nodes = (
(287,0,l),
(287,556,l),
(379,556,l),
(379,211,ls),
(379,46,o),
(407,0,o),
(530,0,cs),
(644,0,l),
(644,373,l),
(564,373,o),
(537,399,o),
(537,447,cs),
(537,556,l),
(670,556,l),
(670,626,l),
(29,626,l),
(29,556,l),
(129,556,l),
(129,0,l)
);
}
);
width = 699;
}
);
metricLeft = H;
metricRight = H;
unicode = 960;
},
{
glyphname = zero;
lastChange = "2023-12-15 14:48:37 +0000";
layers = (
{
layerId = m01;
shapes = (
{
closed = 1;
nodes = (
(410,-8,ls),
(519,-8,o),
(599,71,o),
(599,178,cs),
(599,536,ls),
(599,643,o),
(519,722,o),
(410,722,cs),
(218,722,ls),
(109,722,o),
(29,643,o),
(29,536,cs),
(29,178,ls),
(29,71,o),
(109,-8,o),
(218,-8,cs)
);
},
{
closed = 1;
nodes = (
(361,351,o),
(397,387,o),
(397,432,cs),
(397,477,o),
(361,513,o),
(317,513,cs),
(272,513,o),
(237,477,o),
(237,432,cs),
(237,387,o),
(272,351,o),
(317,351,cs)
);
},
{
closed = 1;
nodes = (
(235,439,o),
(218,460,o),
(218,500,cs),
(218,569,ls),
(218,609,o),
(235,636,o),
(285,636,cs),
(343,636,ls),
(393,636,o),
(410,609,o),
(410,569,cs),
(410,500,ls),
(410,460,o),
(393,439,o),
(369,439,cs),
(259,439,ls)
);
}
);
width = 628;
}
);
unicode = 48;
},
{
glyphname = one;
lastChange = "2023-12-15 14:48:37 +0000";
layers = (
{
anchors = (
{
name = bottom;
pos = (243,0);
},
{
name = ogonek;
pos = (400,0);
},
{
name = top;
pos = (243,716);
},
{
name = topleft;
pos = (57,716);
}
);
layerId = m01;
shapes = (
{
closed = 1;
nodes = (
(555,0,l),
(555,434,l),
(465,434,ls),
(415,434,o),
(398,460,o),
(398,495,cs),
(397,716,l),
(210,715,l),
(210,679,o),
(166,631,o),
(109,631,c),
(109,561,l),
(210,561,l),
(210,495,ls),
(210,455,o),
(193,434,o),
(143,434,cs),
(39,434,l),
(39,0,l)
);
}
);
width = 594;
}
);
unicode = 49;
},
{
glyphname = two;
lastChange = "2023-12-15 14:48:37 +0000";
layers = (
{
layerId = m01;
shapes = (
{
closed = 1;
nodes = (
(583,0,l),
(583,439,l),
(274,439,ls),
(236,439,o),
(226,450,o),
(226,464,cs),
(226,483,o),
(245,489,o),
(274,490,cs),
(461,498,ls),
(504,500,o),
(572,531,o),
(572,612,cs),
(572,699,o),
(491,716,o),
(424,716,cs),
(201,716,ls),
(114,716,o),
(50,664,o),
(50,591,c),
(234,591,l),
(234,615,o),
(251,636,o),
(301,636,cs),
(326,636,ls),
(373,636,o),
(388,624,o),
(388,602,cs),
(388,583,o),
(375,565,o),
(331,563,cs),
(285,561,ls),
(118,554,o),
(28,514,o),
(28,356,cs),
(28,0,l)
);
}
);
width = 613;
}
);
unicode = 50;
},
{
glyphname = three;
lastChange = "2023-12-15 14:48:37 +0000";
layers = (
{
layerId = m01;
shapes = (
{
closed = 1;
nodes = (
(421,-6,l),
(530,-6,o),
(610,73,o),
(610,180,cs),
(610,375,ls),
(610,518,o),
(521,540,o),
(452,540,c),
(452,543,l),
(470,543,ls),
(507,543,o),
(569,555,o),
(569,624,cs),
(569,699,o),
(488,716,o),
(421,716,cs),
(196,716,ls),
(109,716,o),
(45,664,o),
(45,591,cs),
(45,565,l),
(229,565,l),
(229,591,ls),
(229,615,o),
(246,636,o),
(285,636,cs),
(338,636,ls),
(370,636,o),
(385,623,o),
(385,606,cs),
(385,588,o),
(370,575,o),
(338,575,cs),
(288,575,l),
(288,505,l),
(363,505,ls),
(396,505,o),
(411,495,o),
(411,474,cs),
(411,454,o),
(396,439,o),
(363,439,cs),
(250,439,ls),
(226,439,o),
(209,462,o),
(209,497,c),
(25,497,l),
(25,180,ls),
(25,73,o),
(105,-6,o),
(214,-6,cs)
);
}
);
width = 630;
}
);
unicode = 51;
},
{
glyphname = four;
lastChange = "2023-12-15 14:48:37 +0000";
layers = (
{
layerId = m01;
shapes = (
{
closed = 1;
nodes = (
(581,-1,l),
(581,434,l),
(524,434,ls),
(496,434,o),
(486,455,o),
(486,475,cs),
(486,505,l),
(555,505,l),
(555,575,l),
(485,575,l),
(485,716,l),
(272,716,l),
(49,574,l),
(49,505,l),
(301,505,l),
(301,474,ls),
(301,454,o),
(291,434,o),
(263,434,cs),
(31,434,l),
(31,-3,l)
);
},
{
closed = 1;
nodes = (
(301,647,l),
(301,575,l),
(180,575,l)
);
}
);
width = 608;
}
);
unicode = 52;
},
{
glyphname = five;
lastChange = "2023-12-15 14:48:37 +0000";
layers = (
{
layerId = m01;
shapes = (
{
closed = 1;
nodes = (
(402,-8,ls),
(510,-9,o),
(591,71,o),
(591,178,cs),
(592,410,ls),
(592,518,o),
(537,575,o),
(434,575,cs),
(216,575,l),
(216,626,l),
(546,626,l),
(546,716,l),
(28,716,l),
(28,505,l),
(345,505,ls),
(375,505,o),
(393,493,o),
(393,474,cs),
(393,444,o),
(368,439,o),
(346,439,cs),
(244,439,ls),
(220,439,o),
(216,454,o),
(216,470,c),
(28,470,l),
(27,179,ls),
(27,72,o),
(107,-7,o),
(216,-8,cs)
);
}
);
width = 615;
}
);
unicode = 53;
},
{
glyphname = six;
lastChange = "2023-12-15 14:48:37 +0000";
layers = (
{
layerId = m01;
shapes = (
{
closed = 1;
nodes = (
(539,-7,o),
(619,73,o),
(619,180,cs),
(619,379,ls),
(619,486,o),
(539,565,o),
(430,565,cs),
(211,565,l),
(211,589,ls),
(211,624,o),
(246,636,o),
(273,636,cs),
(319,636,ls),
(369,636,o),
(386,615,o),
(386,591,c),
(570,591,l),
(570,664,o),
(505,716,o),
(419,716,cs),
(228,716,ls),
(55,716,o),
(28,595,o),
(28,487,cs),
(28,181,ls),
(28,74,o),
(107,-4,o),
(216,-5,cs),
(430,-6,ls)
);
},
{
closed = 1;
nodes = (
(228,439,o),
(211,451,o),
(211,470,cs),
(211,501,l),
(342,501,ls),
(371,500,o),
(389,487,o),
(389,468,cs),
(389,449,o),
(372,439,o),
(342,439,cs),
(251,439,ls)
);
}
);
width = 638;
}
);
unicode = 54;
},
{
glyphname = seven;
lastChange = "2023-12-15 14:48:37 +0000";
layers = (
{
layerId = m01;
shapes = (
{
closed = 1;
nodes = (
(534,434,l),
(455,434,ls),
(393,434,o),
(389,481,o),
(424,518,cs),
(534,636,l),
(534,714,l),
(27,716,l),
(27,569,l),
(121,569,l),
(121,609,o),
(138,636,o),
(190,636,cs),
(337,636,l),
(240,544,o),
(180,434,o),
(83,434,cs),
(27,434,l),
(26,0,l),
(534,-1,l)
);
}
);
width = 560;
}
);
unicode = 55;
},
{
glyphname = eight;
lastChange = "2023-12-15 14:48:37 +0000";
layers = (
{
layerId = m01;
shapes = (
{
closed = 1;
nodes = (
(540,-8,o),
(620,71,o),
(620,178,cs),
(620,374,ls),
(620,482,o),
(565,539,o),
(462,539,c),
(462,542,l),
(500,542,ls),
(554,542,o),
(589,577,o),
(589,629,cs),
(589,687,o),
(545,715,o),
(451,715,cs),
(189,716,ls),
(95,716,o),
(51,689,o),
(51,631,cs),
(51,578,o),
(86,543,o),
(140,543,cs),
(178,543,l),
(178,540,l),
(75,540,o),
(20,483,o),
(20,375,cs),
(20,179,ls),
(20,72,o),
(100,-7,o),
(209,-7,cs),
(431,-8,ls)
);
},
{
closed = 1;
nodes = (
(266,440,ls),
(237,440,o),
(219,449,o),
(219,472,cs),
(219,492,o),
(236,505,o),
(266,505,cs),
(374,504,ls),
(404,504,o),
(421,494,o),
(421,470,cs),
(421,453,o),
(406,439,o),
(374,439,cs)
);
},
{
closed = 1;
nodes = (
(263,575,o),
(245,587,o),
(245,606,cs),
(245,625,o),
(262,636,o),
(292,636,cs),
(348,636,ls),
(378,636,o),
(395,625,o),
(395,606,cs),
(395,587,o),
(377,575,o),
(348,575,cs),
(292,575,ls)
);
}
);
width = 640;
}
);
unicode = 56;
},
{
glyphname = nine;
lastChange = "2023-12-15 14:48:37 +0000";
layers = (
{
background = {
shapes = (
{
closed = 1;
nodes = (
(-11,520,o),
(36,501,o),
(90,501,cs),
(382,501,l),
(382,484,ls),
(382,455,o),
(382,434,o),
(348,434,cs),
(237,434,l),
(216,434,o),
(206,440,o),
(206,462,cs),
(206,479,l),
(-1,478,l),
(-1,116,ls),
(-1,51,o),
(74,-7,o),
(145,-7,cs),
(469,-6,ls),
(559,-6,o),
(589,61,o),
(589,148,cs),
(589,561,ls),
(589,643,o),
(537,716,o),
(449,716,cs),
(165,716,ls),
(55,716,o),
(-11,698,o),
(-11,593,cs)
);
},
{
closed = 1;
nodes = (
(344,631,ls),
(372,631,o),
(382,618,o),
(382,598,cs),
(382,574,o),
(368,564,o),
(331,564,cs),
(258,564,ls),
(221,564,o),
(207,574,o),
(207,598,cs),
(207,618,o),
(217,631,o),
(245,631,cs)
);
}
);
};
layerId = m01;
shapes = (
{
closed = 1;
nodes = (
(507,-8,o),
(588,72,o),
(588,179,cs),
(589,550,ls),
(589,658,o),
(534,715,o),
(431,715,cs),
(166,715,ls),
(72,715,o),
(28,684,o),
(28,613,cs),
(28,548,o),
(55,505,o),
(164,505,cs),
(389,505,l),
(390,472,l),
(389,450,o),
(373,439,o),
(343,439,cs),
(241,439,ls),
(217,439,o),
(213,459,o),
(213,470,c),
(25,470,l),
(24,180,ls),
(24,73,o),
(104,-6,o),
(213,-6,cs),
(399,-7,ls)
);
},
{
closed = 1;
nodes = (
(240,575,o),
(222,587,o),
(222,606,cs),
(222,625,o),
(239,636,o),
(269,636,cs),
(343,636,ls),
(373,636,o),
(389,624,o),
(389,605,c),
(389,575,l),
(269,575,ls)
);
}
);
width = 616;
}
);
unicode = 57;
},
{
glyphname = zero.osf;
lastChange = "2023-12-15 14:48:37 +0000";
layers = (
{
layerId = m01;
shapes = (
{
closed = 1;
nodes = (
(436,-8,ls),
(545,-8,o),
(625,71,o),
(625,178,cs),
(625,536,ls),
(625,643,o),
(545,722,o),
(436,722,cs),
(218,722,ls),
(109,722,o),
(29,643,o),
(29,536,cs),
(29,178,ls),
(29,71,o),
(109,-8,o),
(218,-8,cs)
);
},
{
closed = 1;
nodes = (
(374,351,o),
(410,387,o),
(410,432,cs),
(410,477,o),
(374,513,o),
(330,513,cs),
(285,513,o),
(250,477,o),
(250,432,cs),
(250,387,o),
(285,351,o),
(330,351,cs)
);
},
{
closed = 1;
nodes = (
(248,439,o),
(231,460,o),
(231,500,cs),
(231,569,ls),
(231,609,o),
(248,636,o),
(298,636,cs),
(356,636,ls),
(406,636,o),
(423,609,o),
(423,569,cs),
(423,500,ls),
(423,460,o),
(406,439,o),
(382,439,cs),
(272,439,ls)
);
}
);
width = 660;
}
);
},
{
glyphname = zero.tf;
lastChange = "2023-12-15 14:48:37 +0000";
layers = (
{
layerId = m01;
shapes = (
{
closed = 1;
nodes = (
(410,-8,ls),
(519,-8,o),
(599,71,o),
(599,178,cs),
(599,536,ls),
(599,643,o),
(519,722,o),
(410,722,cs),
(218,722,ls),
(109,722,o),
(29,643,o),
(29,536,cs),
(29,178,ls),
(29,71,o),
(109,-8,o),
(218,-8,cs)
);
},
{
closed = 1;
nodes = (
(361,351,o),
(397,387,o),
(397,432,cs),
(397,477,o),
(361,513,o),
(317,513,cs),
(272,513,o),
(237,477,o),
(237,432,cs),
(237,387,o),
(272,351,o),
(317,351,cs)
);
},
{
closed = 1;
nodes = (
(235,439,o),
(218,460,o),
(218,500,cs),
(218,569,ls),
(218,609,o),
(235,636,o),
(285,636,cs),
(343,636,ls),
(393,636,o),
(410,609,o),
(410,569,cs),
(410,500,ls),
(410,460,o),
(393,439,o),
(369,439,cs),
(259,439,ls)
);
}
);
width = 628;
}
);
},
{
glyphname = one.tf;
lastChange = "2023-12-15 14:48:37 +0000";
layers = (
{
anchors = (
{
name = bottom;
pos = (267,0);
},
{
name = ogonek;
pos = (424,0);
},
{
name = top;
pos = (267,716);
},
{
name = topleft;
pos = (81,716);
}
);
layerId = m01;
shapes = (
{
closed = 1;
nodes = (
(589,-1,l),
(589,433,l),
(489,434,ls),
(439,434,o),
(422,460,o),
(422,495,cs),
(421,716,l),
(234,715,l),
(234,679,o),
(190,631,o),
(133,631,c),
(133,561,l),
(234,561,l),
(234,495,ls),
(234,455,o),
(217,434,o),
(167,434,cs),
(53,433,l),
(53,-1,l)
);
}
);
width = 628;
}
);
},
{
glyphname = two.tf;
lastChange = "2023-12-15 14:48:37 +0000";
layers = (
{
layerId = m01;
shapes = (
{
closed = 1;
nodes = (
(589,0,l),
(589,439,l),
(280,439,ls),
(242,439,o),
(232,450,o),
(232,464,cs),
(232,483,o),
(251,489,o),
(280,490,cs),
(467,498,ls),
(510,500,o),
(578,531,o),
(578,612,cs),
(578,699,o),
(497,716,o),
(430,716,cs),
(207,716,ls),
(120,716,o),
(56,664,o),
(56,591,c),
(240,591,l),
(240,615,o),
(257,636,o),
(307,636,cs),
(332,636,ls),
(379,636,o),
(394,624,o),
(394,602,cs),
(394,583,o),
(381,565,o),
(337,563,cs),
(291,561,ls),
(124,554,o),
(34,514,o),
(34,356,cs),
(34,0,l)
);
}
);
width = 628;
}
);
},
{
glyphname = three.tf;
lastChange = "2023-12-15 14:48:37 +0000";
layers = (
{
layerId = m01;
shapes = (
{
closed = 1;
nodes = (
(422,-6,l),
(531,-6,o),
(611,73,o),
(611,180,cs),
(611,375,ls),
(611,518,o),
(522,540,o),
(453,540,c),
(453,543,l),
(471,543,ls),
(508,543,o),
(570,555,o),
(570,624,cs),
(570,699,o),
(489,716,o),
(422,716,cs),
(197,716,ls),
(110,716,o),
(46,664,o),
(46,591,cs),
(46,565,l),
(230,565,l),
(230,591,ls),
(230,615,o),
(247,636,o),
(286,636,cs),
(339,636,ls),
(371,636,o),
(386,623,o),
(386,606,cs),
(386,588,o),
(371,575,o),
(339,575,cs),
(289,575,l),
(289,505,l),
(364,505,ls),
(397,505,o),
(412,495,o),
(412,474,cs),
(412,454,o),
(397,439,o),
(364,439,cs),
(251,439,ls),
(227,439,o),
(210,462,o),
(210,497,c),
(26,497,l),
(26,180,ls),
(26,73,o),
(106,-6,o),
(215,-6,cs)
);
}
);
width = 628;
}
);
},
{
glyphname = four.tf;
lastChange = "2023-12-15 14:48:37 +0000";
layers = (
{
layerId = m01;
shapes = (
{
closed = 1;
nodes = (
(589,-1,l),
(589,434,l),
(532,434,ls),
(504,434,o),
(494,455,o),
(494,475,cs),
(494,505,l),
(563,505,l),
(563,575,l),
(493,575,l),
(493,716,l),
(280,716,l),
(57,574,l),
(57,505,l),
(309,505,l),
(309,474,ls),
(309,454,o),
(299,434,o),
(271,434,cs),
(39,434,l),
(39,-3,l)
);
},
{
closed = 1;
nodes = (
(309,647,l),
(309,575,l),
(188,575,l)
);
}
);
width = 628;
}
);
},
{
glyphname = five.tf;
lastChange = "2023-12-15 14:48:37 +0000";
layers = (
{
layerId = m01;
shapes = (
{
closed = 1;
nodes = (
(415,-8,ls),
(523,-8,o),
(604,71,o),
(604,178,cs),
(605,410,ls),
(605,518,o),
(550,575,o),
(447,575,cs),
(239,575,l),
(239,626,l),
(559,626,l),
(559,716,l),
(51,716,l),
(51,505,l),
(358,505,ls),
(388,505,o),
(406,493,o),
(406,474,cs),
(406,444,o),
(381,439,o),
(359,439,cs),
(267,439,ls),
(243,439,o),
(239,454,o),
(239,470,c),
(51,470,l),
(50,179,ls),
(50,72,o),
(130,-8,o),
(239,-8,cs)
);
}
);
width = 628;
}
);
},
{
glyphname = seven.tf;
lastChange = "2023-12-15 14:48:37 +0000";
layers = (
{
layerId = m01;
shapes = (
{
closed = 1;
nodes = (
(571,434,l),
(492,434,ls),
(430,434,o),
(426,481,o),
(461,518,cs),
(571,636,l),
(571,714,l),
(64,716,l),
(64,569,l),
(158,569,l),
(158,609,o),
(175,636,o),
(227,636,cs),
(374,636,l),
(277,544,o),
(217,434,o),
(120,434,cs),
(64,434,l),
(63,0,l),
(571,-1,l)
);
}
);
width = 628;
}
);
},
{
glyphname = eight.tf;
lastChange = "2023-12-15 14:48:37 +0000";
layers = (
{
layerId = m01;
shapes = (
{
closed = 1;
nodes = (
(534,-8,o),
(614,71,o),
(614,178,cs),
(614,374,ls),
(614,482,o),
(559,539,o),
(456,539,c),
(456,542,l),
(494,542,ls),
(548,542,o),
(583,577,o),
(583,629,cs),
(583,687,o),
(539,715,o),
(445,715,cs),
(183,716,ls),
(89,716,o),
(45,689,o),
(45,631,cs),
(45,578,o),
(80,543,o),
(134,543,cs),
(172,543,l),
(172,540,l),
(69,540,o),
(14,483,o),
(14,375,cs),
(14,179,ls),
(14,72,o),
(94,-7,o),
(203,-7,cs),
(425,-8,ls)
);
},
{
closed = 1;
nodes = (
(260,440,ls),
(231,440,o),
(213,449,o),
(213,472,cs),
(213,492,o),
(230,505,o),
(260,505,cs),
(368,504,ls),
(398,504,o),
(415,494,o),
(415,470,cs),
(415,453,o),
(400,439,o),
(368,439,cs)
);
},
{
closed = 1;
nodes = (
(257,575,o),
(239,587,o),
(239,606,cs),
(239,625,o),
(256,636,o),
(286,636,cs),
(342,636,ls),
(372,636,o),
(389,625,o),
(389,606,cs),
(389,587,o),
(371,575,o),
(342,575,cs),
(286,575,ls)
);
}
);
width = 628;
}
);
},
{
glyphname = nine.tf;
lastChange = "2023-12-15 14:48:37 +0000";
layers = (
{
layerId = m01;
shapes = (
{
closed = 1;
nodes = (
(509,-8,o),
(590,72,o),
(590,179,cs),
(591,550,ls),
(591,658,o),
(536,715,o),
(433,715,cs),
(178,715,ls),
(84,715,o),
(40,684,o),
(40,613,cs),
(40,548,o),
(67,505,o),
(176,505,cs),
(401,505,l),
(402,472,l),
(401,450,o),
(385,439,o),
(355,439,cs),
(253,439,ls),
(229,439,o),
(225,459,o),
(225,470,c),
(37,470,l),
(36,180,ls),
(36,73,o),
(116,-5,o),
(225,-6,cs),
(401,-7,ls)
);
},
{
closed = 1;
nodes = (
(252,575,o),
(234,587,o),
(234,606,cs),
(234,625,o),
(251,636,o),
(281,636,cs),
(355,636,ls),
(385,636,o),
(401,624,o),
(401,605,c),
(401,575,l),
(281,575,ls)
);
}
);
width = 628;
}
);
},
{
glyphname = "leftanglebracket-math";
lastChange = "2023-12-15 14:48:33 +0000";
layers = (
{
layerId = m01;
shapes = (
{
closed = 1;
nodes = (
(324,-79,l),
(101,381,l),
(324,841,l),
(252,841,l),
(29,381,l),
(252,-79,l)
);
}
);
width = 353;
}
);
metricLeft = o;
metricRight = o;
unicode = 10216;
},
{
glyphname = "rightanglebracket-math";
lastChange = "2023-12-15 14:48:33 +0000";
layers = (
{
layerId = m01;
shapes = (
{
closed = 1;
nodes = (
(324,381,l),
(101,841,l),
(29,841,l),
(252,381,l),
(29,-79,l),
(101,-79,l)
);
}
);
width = 353;
}
);
metricLeft = o;
metricRight = o;
unicode = 10217;
},
{
color = 11;
glyphname = period;
lastChange = "2023-12-15 14:35:06 +0000";
layers = (
{
background = {
shapes = (
{
closed = 1;
nodes = (
(206,0,o),
(265,62,o),
(265,121,cs),
(265,184,o),
(208,242,o),
(145,242,cs),
(77,242,o),
(23,188,o),
(23,121,cs),
(23,51,o),
(74,0,o),
(144,0,c)
);
}
);
};
layerId = m01;
shapes = (
{
closed = 1;
nodes = (
(217,-10,o),
(268,60,o),
(268,119,cs),
(268,190,o),
(210,240,o),
(146,240,cs),
(76,240,o),
(20,186,o),
(20,119,cs),
(20,39,o),
(72,-10,o),
(144,-10,c)
);
}
);
width = 288;
}
);
unicode = 46;
},
{
color = 11;
glyphname = comma;
lastChange = "2023-12-15 14:35:06 +0000";
layers = (
{
background = {
shapes = (
{
closed = 1;
nodes = (
(198,-10,o),
(260,47,o),
(260,106,cs),
(260,177,o),
(200,240,o),
(136,240,cs),
(66,240,o),
(10,186,o),
(10,119,cs),
(10,39,o),
(62,-10,o),
(134,-10,c)
);
}
);
};
layerId = m01;
shapes = (
{
closed = 1;
nodes = (
(232,-116,o),
(271,17,o),
(271,90,cs),
(271,211,o),
(192,238,o),
(143,238,cs),
(79,238,o),
(20,186,o),
(20,112,cs),
(20,38,o),
(74,-15,o),
(143,-9,c),
(145,-39,o),
(128,-93,o),
(69,-129,c),
(74,-137,l)
);
}
);
width = 291;
}
);
metricLeft = period;
metricRight = period;
unicode = 44;
},
{
color = 11;
glyphname = colon;
lastChange = "2023-12-15 14:35:06 +0000";
layers = (
{
layerId = m01;
shapes = (
{
closed = 1;
nodes = (
(216,393,o),
(268,442,o),
(268,522,cs),
(268,589,o),
(212,643,o),
(142,643,cs),
(78,643,o),
(20,593,o),
(20,522,cs),
(20,463,o),
(71,393,o),
(144,393,c)
);
},
{
pos = (5,80);
ref = period;
}
);
width = 293;
}
);
metricLeft = period;
metricRight = period;
unicode = 58;
},
{
color = 11;
glyphname = semicolon;
lastChange = "2023-12-15 14:35:06 +0000";
layers = (
{
layerId = m01;
shapes = (
{
closed = 1;
nodes = (
(216,393,o),
(268,442,o),
(268,522,cs),
(268,589,o),
(212,643,o),
(142,643,cs),
(78,643,o),
(20,593,o),
(20,522,cs),
(20,463,o),
(71,393,o),
(144,393,c)
);
},
{
pos = (5,81);
ref = comma;
}
);
width = 293;
}
);
unicode = 59;
},
{
color = 11;
glyphname = exclam;
lastChange = "2023-12-15 14:35:06 +0000";
layers = (
{
layerId = m01;
shapes = (
{
closed = 1;
nodes = (
(252,724,l),
(30,723,l),
(80,280,l),
(202,279,l)
);
},
{
ref = period;
}
);
width = 288;
}
);
metricLeft = period;
metricRight = period;
unicode = 33;
},
{
color = 11;
glyphname = question;
lastChange = "2023-12-15 14:35:06 +0000";
layers = (
{
background = {
shapes = (
{
pos = (25,0);
ref = two;
}
);
};
layerId = m01;
shapes = (
{
closed = 1;
nodes = (
(481,274,l),
(481,434,l),
(412,434,ls),
(378,434,o),
(364,439,o),
(364,460,cs),
(364,475,o),
(381,486,o),
(409,492,cs),
(500,512,ls),
(555,524,o),
(592,565,o),
(592,604,cs),
(592,681,o),
(490,722,o),
(322,722,cs),
(140,722,o),
(60,673,o),
(60,564,c),
(224,564,l),
(224,611,o),
(253,636,o),
(308,636,cs),
(330,636,ls),
(370,636,o),
(398,620,o),
(398,597,cs),
(398,583,o),
(388,575,o),
(358,567,cs),
(282,547,ls),
(194,523,o),
(135,460,o),
(135,389,cs),
(135,318,o),
(193,274,o),
(286,274,cs)
);
},
{
closed = 1;
nodes = (
(403,-13,o),
(454,57,o),
(454,116,cs),
(454,187,o),
(396,237,o),
(332,237,cs),
(262,237,o),
(206,183,o),
(206,116,cs),
(206,36,o),
(258,-13,o),
(330,-13,c)
);
}
);
width = 622;
}
);
unicode = 63;
},
{
color = 11;
glyphname = bullet;
lastChange = "2023-12-15 14:35:06 +0000";
layers = (
{
layerId = m01;
shapes = (
{
closed = 1;
nodes = (
(236,214,o),
(339,270,o),
(339,375,cs),
(339,456,o),
(266,534,o),
(181,534,cs),
(93,534,o),
(20,461,o),
(20,375,cs),
(20,287,o),
(80,214,o),
(180,214,c)
);
}
);
width = 359;
}
);
metricLeft = period;
metricRight = period;
unicode = 8226;
},
{
color = 11;
glyphname = asterisk;
lastChange = "2023-12-15 14:35:06 +0000";
layers = (
{
background = {
shapes = (
{
closed = 1;
nodes = (
(223,565,l),
(223,641,l),
(280,578,l),
(337,595,l),
(246,683,l),
(346,685,l),
(346,732,l),
(252,732,l),
(341,819,l),
(284,844,l),
(223,779,l),
(223,868,l),
(163,867,l),
(163,763,l),
(96,840,l),
(34,810,l),
(119,733,l),
(34,734,l),
(27,680,l),
(112,680,l),
(28,602,l),
(75,576,l),
(163,659,l),
(163,563,l)
);
}
);
};
layerId = m01;
shapes = (
{
closed = 1;
nodes = (
(238,565,l),
(228,625,l),
(269,572,l),
(342,616,l),
(294,670,l),
(353,670,l),
(353,747,l),
(283,747,l),
(352,804,l),
(285,854,l),
(229,796,l),
(238,868,l),
(148,867,l),
(158,783,l),
(103,849,l),
(35,801,l),
(92,749,l),
(34,749,l),
(27,665,l),
(82,665,l),
(20,619,l),
(96,567,l),
(158,640,l),
(148,563,l)
);
}
);
width = 373;
}
);
unicode = 42;
},
{
color = 11;
glyphname = dblverticalbar;
lastChange = "2023-12-15 14:48:42 +0000";
layers = (
{
layerId = m01;
shapes = (
{
closed = 1;
nodes = (
(387,-121,l),
(387,836,l),
(229,836,l),
(229,-121,l)
);
},
{
closed = 1;
nodes = (
(187,-120,l),
(187,837,l),
(29,837,l),
(29,-120,l)
);
}
);
width = 416;
}
);
metricLeft = H;
metricRight = H;
unicode = 8214;
},
{
color = 11;
glyphname = numbersign;
lastChange = "2023-12-15 14:35:06 +0000";
layers = (
{
layerId = m01;
shapes = (
{
closed = 1;
nodes = (
(262,-31,l),
(426,753,l),
(254,753,l),
(90,-31,l)
);
},
{
closed = 1;
nodes = (
(709,192,l),
(753,326,l),
(66,326,l),
(22,192,l)
);
},
{
closed = 1;
nodes = (
(555,-31,l),
(718,753,l),
(546,753,l),
(383,-31,l)
);
},
{
closed = 1;
nodes = (
(748,470,l),
(793,605,l),
(109,605,l),
(64,470,l)
);
}
);
width = 815;
}
);
unicode = 35;
},
{
color = 11;
glyphname = slash;
lastChange = "2023-12-15 14:35:06 +0000";
layers = (
{
layerId = m01;
shapes = (
{
closed = 1;
nodes = (
(232,-80,l),
(456,822,l),
(284,822,l),
(60,-80,l)
);
}
);
width = 476;
}
);
unicode = 47;
},
{
color = 11;
glyphname = hyphen;
lastChange = "2023-12-15 14:35:06 +0000";
layers = (
{
layerId = m01;
shapes = (
{
closed = 1;
nodes = (
(250,484,l),
(250,594,l),
(29,594,l),
(29,484,l)
);
}
);
width = 279;
}
);
unicode = 45;
},
{
color = 11;
glyphname = endash;
lastChange = "2023-12-15 14:35:06 +0000";
layers = (
{
layerId = m01;
shapes = (
{
closed = 1;
nodes = (
(320,494,l),
(320,584,l),
(0,584,l),
(0,494,l)
);
}
);
width = 320;
}
);
unicode = 8211;
},
{
color = 11;
glyphname = emdash;
lastChange = "2023-12-15 14:35:06 +0000";
layers = (
{
background = {
shapes = (
{
closed = 1;
nodes = (
(641,0,l),
(641,434,l),
(591,434,o),
(574,460,o),
(574,500,cs),
(574,564,ls),
(574,604,o),
(591,636,o),
(641,636,c),
(641,716,l),
(349,716,l),
(349,631,l),
(399,631,o),
(416,604,o),
(416,564,cs),
(416,500,ls),
(416,460,o),
(399,439,o),
(349,439,c),
(349,0,l)
);
},
{
closed = 1;
nodes = (
(291,0,l),
(291,439,l),
(241,439,o),
(224,460,o),
(224,500,cs),
(224,564,ls),
(224,604,o),
(241,631,o),
(291,631,c),
(291,716,l),
(-1,716,l),
(-1,636,l),
(49,636,o),
(66,604,o),
(66,564,cs),
(66,500,ls),
(66,460,o),
(49,434,o),
(-1,434,c),
(-1,0,l)
);
},
{
closed = 1;
nodes = (
(440,505,l),
(440,575,l),
(199,575,l),
(199,505,l)
);
}
);
};
layerId = m01;
shapes = (
{
closed = 1;
nodes = (
(640,494,l),
(640,584,l),
(0,584,l),
(0,494,l)
);
}
);
width = 640;
}
);
unicode = 8212;
},
{
color = 11;
glyphname = underscore;
lastChange = "2023-12-15 14:35:06 +0000";
layers = (
{
layerId = m01;
shapes = (
{
closed = 1;
nodes = (
(539,-40,l),
(539,30,l),
(29,30,l),
(29,-40,l)
);
}
);
width = 568;
}
);
metricLeft = hyphen;
metricRight = hyphen;
unicode = 95;
},
{
color = 11;
glyphname = parenleft;
lastChange = "2023-12-15 14:35:06 +0000";
layers = (
{
layerId = m01;
shapes = (
{
closed = 1;
nodes = (
(405,-36,l),
(281,-36,o),
(182,141,o),
(182,365,cs),
(182,578,o),
(285,764,o),
(405,764,c),
(405,844,l),
(178,844,o),
(24,652,o),
(24,375,cs),
(24,76,o),
(175,-116,o),
(405,-116,c)
);
}
);
width = 429;
}
);
unicode = 40;
},
{
color = 11;
glyphname = braceright;
lastChange = "2023-12-15 14:35:06 +0000";
layers = (
{
layerId = m01;
shapes = (
{
closed = 1;
nodes = (
(47,-127,o),
(53,-127,o),
(86,-127,cs),
(239,-127,o),
(317,-57,o),
(317,129,cs),
(317,230,o),
(349,324,o),
(451,369,c),
(451,372,o),
(451,377,o),
(451,379,c),
(338,410,o),
(317,467,o),
(317,588,cs),
(317,753,o),
(275,843,o),
(76,843,cs),
(43,843,o),
(47,843,o),
(20,843,c),
(20,762,l),
(20,762,o),
(42,762,o),
(68,762,cs),
(131,762,o),
(161,699,o),
(161,569,cs),
(161,466,o),
(193,412,o),
(266,377,c),
(193,333,o),
(161,272,o),
(161,174,cs),
(161,14,o),
(135,-47,o),
(68,-47,cs),
(42,-47,o),
(20,-47,o),
(20,-47,c),
(20,-127,l)
);
}
);
width = 475;
}
);
unicode = 125;
},
{
color = 11;
glyphname = bracketleft;
lastChange = "2023-12-15 14:35:06 +0000";
layers = (
{
layerId = m01;
shapes = (
{
closed = 1;
nodes = (
(332,-125,l),
(332,-43,l),
(257,-43,o),
(332,-44,o),
(188,-44,c),
(190,757,l),
(332,757,o),
(210,757,o),
(332,757,c),
(332,837,l),
(32,837,l),
(29,-125,l)
);
}
);
width = 356;
}
);
metricLeft = H;
unicode = 91;
},
{
color = 11;
glyphname = anglebracketleft;
lastChange = "2023-12-15 14:35:06 +0000";
layers = (
{
layerId = m01;
shapes = (
{
closed = 1;
nodes = (
(320,3,l),
(140,374,l),
(320,715,l),
(190,715,l),
(10,374,l),
(190,3,l)
);
}
);
width = 340;
}
);
unicode = 12296;
},
{
color = 11;
glyphname = braceleft.ss05;
lastChange = "2023-12-15 14:35:06 +0000";
layers = (
{
background = {
shapes = (
{
closed = 1;
nodes = (
(287,412,o),
(319,466,o),
(319,569,cs),
(319,699,o),
(349,762,o),
(412,762,cs),
(438,762,o),
(460,762,o),
(460,762,c),
(460,843,l),
(433,843,o),
(437,843,o),
(404,843,cs),
(205,843,o),
(163,753,o),
(163,588,cs),
(163,465,o),
(141,408,o),
(24,377,c),
(126,332,o),
(163,230,o),
(163,129,cs),
(163,-57,o),
(241,-127,o),
(394,-127,cs),
(427,-127,o),
(433,-127,o),
(460,-127,c),
(460,-47,l),
(460,-47,o),
(438,-47,o),
(412,-47,cs),
(345,-47,o),
(319,14,o),
(319,174,cs),
(319,272,o),
(287,333,o),
(214,377,c)
);
}
);
};
layerId = m01;
shapes = (
{
closed = 1;
nodes = (
(459,-127,l),
(459,-47,l),
(411,-47,ls),
(344,-47,o),
(318,18,o),
(318,178,cs),
(318,271,o),
(282,329,o),
(179,373,c),
(265,400,o),
(318,505,o),
(318,589,cs),
(318,719,o),
(348,762,o),
(411,762,cs),
(459,762,l),
(459,843,l),
(403,843,ls),
(204,843,o),
(162,753,o),
(162,588,cs),
(162,508,o),
(116,433,o),
(20,405,c),
(20,345,l),
(125,300,o),
(162,265,o),
(162,164,cs),
(162,-22,o),
(240,-127,o),
(393,-127,cs)
);
}
);
width = 479;
}
);
},
{
color = 11;
glyphname = quotedblright;
lastChange = "2024-01-01 21:11:54 +0000";
layers = (
{
layerId = m01;
shapes = (
{
closed = 1;
nodes = (
(522,363,o),
(561,496,o),
(561,569,cs),
(561,690,o),
(482,717,o),
(433,717,cs),
(369,717,o),
(310,665,o),
(310,591,cs),
(310,517,o),
(364,464,o),
(433,470,c),
(435,440,o),
(418,386,o),
(359,350,c),
(364,342,l)
);
},
{
closed = 1;
nodes = (
(241,363,o),
(280,496,o),
(280,569,cs),
(280,690,o),
(201,717,o),
(152,717,cs),
(88,717,o),
(29,665,o),
(29,591,cs),
(29,517,o),
(83,464,o),
(152,470,c),
(154,440,o),
(137,386,o),
(78,350,c),
(83,342,l)
);
}
);
width = 635;
}
);
metricLeft = quoteright;
metricRight = quoteright;
unicode = 8221;
},
{
color = 11;
glyphname = quoteright;
lastChange = "2023-12-15 14:35:06 +0000";
layers = (
{
background = {
shapes = (
{
closed = 1;
nodes = (
(77,591,l),
(92,626,o),
(87,647,o),
(59,666,cs),
(31,686,o),
(19,714,o),
(25,746,cs),
(34,792,o),
(63,813,o),
(135,825,cs),
(173,831,o),
(210,794,o),
(218,742,cs),
(226,696,o),
(200,635,o),
(153,588,cs),
(122,556,o),
(66,514,o),
(22,487,c)
);
}
);
};
layerId = m01;
shapes = (
{
pos = (9,481);
ref = comma;
}
);
width = 354;
}
);
metricLeft = H;
unicode = 8217;
},
{
color = 11;
glyphname = guilsinglleft;
lastChange = "2023-12-15 14:35:06 +0000";
layers = (
{
layerId = m01;
shapes = (
{
closed = 1;
nodes = (
(394,233,l),
(214,424,l),
(394,615,l),
(204,615,l),
(24,424,l),
(204,233,l)
);
}
);
width = 418;
}
);
unicode = 8249;
},
{
color = 11;
glyphname = quotedbl;
layers = (
{
layerId = m01;
shapes = (
{
closed = 1;
nodes = (
(469,434,l),
(569,717,l),
(312,717,l),
(399,431,l)
);
},
{
closed = 1;
nodes = (
(177,434,l),
(277,717,l),
(20,717,l),
(107,431,l)
);
}
);
width = 589;
}
);
unicode = 34;
},
{
color = 11;
glyphname = quotesingle;
lastChange = "2023-12-15 14:35:06 +0000";
layers = (
{
layerId = m01;
shapes = (
{
closed = 1;
nodes = (
(177,433,l),
(277,716,l),
(20,716,l),
(107,430,l)
);
}
);
width = 297;
}
);
unicode = 39;
},
{
color = 11;
glyphname = florin;
lastChange = "2024-01-01 21:12:36 +0000";
layers = (
{
layerId = m01;
shapes = (
{
closed = 1;
nodes = (
(384,0,l),
(384,439,l),
(330,439,ls),
(281,439,o),
(263,461,o),
(263,500,cs),
(265,579,ls),
(265,635,o),
(327,636,o),
(352,636,cs),
(407,636,l),
(407,716,l),
(318,716,ls),
(188,716,o),
(104,687,o),
(104,585,cs),
(104,500,ls),
(104,460,o),
(80,434,o),
(30,434,c),
(29,0,l)
);
},
{
closed = 1;
nodes = (
(340,505,l),
(340,575,l),
(30,575,l),
(30,505,l)
);
}
);
width = 436;
}
);
metricLeft = I;
metricRight = I;
unicode = 402;
},
{
color = 11;
glyphname = baht;
lastChange = "2024-01-01 21:12:36 +0000";
layers = (
{
layerId = m01;
shapes = (
{
closed = 1;
nodes = (
(425,0,ls),
(534,0,o),
(614,79,o),
(614,186,cs),
(614,375,ls),
(614,518,o),
(525,539,o),
(456,539,c),
(456,544,l),
(474,544,ls),
(511,544,o),
(589,560,o),
(589,628,c),
(589,712,o),
(500,716,o),
(460,716,c),
(29,716,l),
(29,636,l),
(79,636,o),
(96,609,o),
(96,569,cs),
(96,495,ls),
(96,455,o),
(79,434,o),
(29,434,c),
(29,0,l)
);
},
{
closed = 1;
nodes = (
(264,505,l),
(379,505,ls),
(407,505,o),
(420,493,o),
(420,472,cs),
(420,450,o),
(404,439,o),
(378,439,cs),
(264,439,l)
);
},
{
closed = 1;
nodes = (
(264,636,l),
(359,636,ls),
(387,636,o),
(400,622,o),
(400,604,cs),
(400,586,o),
(384,575,o),
(358,575,cs),
(264,575,l)
);
},
{
closed = 1;
nodes = (
(275,792,l),
(275,681,l),
(347,681,l),
(347,792,l)
);
},
{
closed = 1;
nodes = (
(275,38,l),
(275,-76,l),
(347,-76,l),
(347,38,l)
);
}
);
width = 639;
}
);
metricLeft = B;
metricRight = B;
unicode = 3647;
},
{
color = 11;
glyphname = hook.part;
lastChange = "2024-01-01 21:12:36 +0000";
layers = (
{
anchors = (
{
name = _hookjoin;
pos = (206,636);
}
);
layerId = m01;
shapes = (
{
closed = 1;
nodes = (
(306,636,l),
(306,716,l),
(159,716,ls),
(69,716,o),
(10,638,o),
(10,547,c),
(133,547,l),
(133,592,o),
(150,636,o),
(197,636,c)
);
}
);
width = 316;
}
);
},
{
color = 11;
glyphname = at;
lastChange = "2024-01-01 21:12:36 +0000";
layers = (
{
layerId = m01;
shapes = (
{
alignment = -1;
pos = (73,-100);
ref = cutdetail.part;
},
{
closed = 1;
nodes = (
(351,334,o),
(327,340,o),
(328,387,cs),
(329,451,ls),
(330,491,o),
(346,518,o),
(396,518,cs),
(434,518,ls),
(494,518,o),
(501,491,o),
(501,451,cs),
(501,387,ls),
(501,345,o),
(478,334,o),
(464,334,cs),
(365,334,ls)
);
},
{
closed = 1;
nodes = (
(803,465,l),
(803,659,o),
(653,767,o),
(481,767,c),
(344,767,l),
(176,767,o),
(29,653,o),
(29,467,c),
(29,192,l),
(29,38,o),
(133,-110,o),
(329,-104,c),
(565,-104,l),
(563,-14,l),
(327,-14,l),
(184,-19,o),
(119,86,o),
(119,192,cs),
(119,467,l),
(119,600,o),
(222,677,o),
(345,678,c),
(483,678,l),
(608,678,o),
(711,607,o),
(711,466,c),
(711,142,ls),
(711,123,o),
(706,94,o),
(683,94,cs),
(657,94,o),
(653,119,o),
(653,142,cs),
(653,466,ls),
(653,565,o),
(573,618,o),
(484,618,cs),
(346,618,ls),
(257,618,o),
(177,559,o),
(177,468,cs),
(177,193,ls),
(177,123,o),
(225,43,o),
(346,43,cs),
(366,43,ls),
(469,43,o),
(503,100,o),
(503,162,cs),
(503,224,l),
(548,223,o),
(563,199,o),
(563,164,cs),
(563,127,ls),
(563,64,o),
(593,-3,o),
(688,-3,cs),
(783,-3,o),
(803,56,o),
(803,142,c)
);
}
);
width = 832;
}
);
metricLeft = O;
metricRight = O;
unicode = 64;
},
{
color = 11;
glyphname = ampersand;
lastChange = "2024-01-01 21:12:36 +0000";
layers = (
{
layerId = m01;
shapes = (
{
closed = 1;
nodes = (
(274,439,ls),
(241,439,o),
(226,449,o),
(226,470,cs),
(226,495,o),
(241,505,o),
(274,505,cs),
(325,505,l),
(325,575,l),
(299,575,ls),
(267,575,o),
(252,588,o),
(252,606,cs),
(252,623,o),
(267,636,o),
(299,636,cs),
(352,636,ls),
(391,636,o),
(408,615,o),
(408,591,c),
(603,591,l),
(603,662,o),
(539,722,o),
(452,722,cs),
(196,722,ls),
(129,722,o),
(48,697,o),
(48,622,cs),
(48,553,o),
(110,541,o),
(147,541,cs),
(165,541,l),
(165,538,l),
(96,538,o),
(20,516,o),
(20,373,cs),
(20,179,ls),
(20,72,o),
(100,-6,o),
(209,-6,cs),
(324,-6,ls),
(427,-6,o),
(461,49,o),
(461,111,cs),
(461,170,l),
(504,170,o),
(519,146,o),
(519,111,cs),
(519,0,l),
(609,0,l),
(609,391,ls),
(609,431,o),
(626,458,o),
(676,458,c),
(676,538,l),
(408,540,l),
(408,505,ls),
(408,465,o),
(391,439,o),
(341,439,cs)
);
}
);
width = 705;
}
);
metricLeft = eight;
metricRight = G;
unicode = 38;
},
{
color = 11;
glyphname = paragraph;
lastChange = "2024-01-01 21:12:36 +0000";
layers = (
{
anchors = (
{
name = bottom;
pos = (264,0);
},
{
name = hookjoin;
pos = (578,636);
},
{
name = top;
pos = (264,900);
}
);
layerId = m01;
shapes = (
{
closed = 1;
nodes = (
(395,715,l),
(182,715,ls),
(129,715,o),
(30,697,o),
(30,571,cs),
(30,459,o),
(129,433,o),
(182,433,cs),
(305,433,l),
(305,403,ls),
(305,363,o),
(288,336,o),
(238,336,c),
(238,-101,l),
(395,-101,l)
);
},
{
closed = 1;
nodes = (
(648,-100,l),
(648,336,l),
(598,336,o),
(581,363,o),
(581,403,cs),
(581,568,ls),
(581,608,o),
(598,636,o),
(648,636,c),
(648,716,l),
(491,716,l),
(491,-100,l)
);
},
{
closed = 1;
nodes = (
(351,635,l),
(648,636,l),
(648,716,l),
(351,715,l)
);
}
);
width = 677;
}
);
metricLeft = S;
metricRight = I;
unicode = 182;
},
{
color = 11;
glyphname = section;
lastChange = "2024-01-01 21:12:36 +0000";
layers = (
{
anchors = (
{
name = bottom;
pos = (298,0);
},
{
name = top;
pos = (268,716);
}
);
layerId = m01;
shapes = (
{
closed = 1;
nodes = (
(314,-37,ls),
(473,-37,o),
(527,-1,o),
(527,132,cs),
(527,338,ls),
(527,411,o),
(467,447,o),
(326,459,cs),
(268,464,ls),
(225,467,o),
(204,480,o),
(204,503,cs),
(204,524,o),
(222,536,o),
(249,536,cs),
(263,536,l),
(197,616,l),
(186,616,ls),
(84,616,o),
(30,580,o),
(30,510,cs),
(30,435,o),
(91,400,o),
(240,387,c),
(328,381,o),
(353,371,o),
(353,345,cs),
(353,324,o),
(336,312,o),
(308,312,cs),
(257,312,ls),
(217,312,o),
(194,328,o),
(194,357,c),
(30,357,l),
(30,132,ls),
(30,11,o),
(85,-37,o),
(229,-37,cs)
);
},
{
closed = 1;
nodes = (
(508,402,o),
(527,431,o),
(527,473,cs),
(527,546,o),
(467,582,o),
(326,594,cs),
(268,599,ls),
(225,602,o),
(204,615,o),
(204,638,cs),
(204,659,o),
(222,671,o),
(249,671,cs),
(290,671,ls),
(331,671,o),
(353,655,o),
(353,626,c),
(517,626,l),
(517,703,o),
(463,751,o),
(314,751,cs),
(229,751,ls),
(84,751,o),
(30,715,o),
(30,645,cs),
(30,570,o),
(91,535,o),
(240,522,c),
(328,516,o),
(353,506,o),
(353,480,cs),
(353,470,o),
(350,462,o),
(342,456,c),
(470,384,l)
);
}
);
width = 557;
}
);
metricLeft = S;
metricRight = S;
unicode = 167;
},
{
color = 11;
glyphname = copyright;
lastChange = "2024-01-01 21:12:36 +0000";
layers = (
{
layerId = m01;
shapes = (
{
closed = 1;
nodes = (
(536,96,o),
(682,242,o),
(682,423,cs),
(682,603,o),
(536,749,o),
(356,749,cs),
(175,749,o),
(29,603,o),
(29,423,cs),
(29,242,o),
(175,96,o),
(356,96,cs)
);
},
{
closed = 1;
nodes = (
(225,186,o),
(119,292,o),
(119,423,cs),
(119,553,o),
(225,659,o),
(356,659,cs),
(486,659,o),
(592,553,o),
(592,423,cs),
(592,292,o),
(486,186,o),
(356,186,cs)
);
},
{
closed = 1;
nodes = (
(461,485,l),
(461,500,ls),
(461,555,o),
(426,583,o),
(370,583,cs),
(321,583,ls),
(262,583,o),
(228,549,o),
(228,497,cs),
(228,383,ls),
(228,311,o),
(262,278,o),
(334,278,cs),
(461,278,l),
(461,461,l),
(350,461,ls),
(316,461,o),
(313,474,o),
(313,497,cs),
(313,520,o),
(321,534,o),
(342,534,cs),
(346,534,ls),
(360,534,o),
(375,521,o),
(375,502,cs),
(375,485,l)
);
}
);
width = 711;
}
);
metricLeft = O;
metricRight = O;
unicode = 169;
},
{
color = 11;
glyphname = registered;
lastChange = "2024-01-01 21:12:36 +0000";
layers = (
{
anchors = (
{
name = bottom;
pos = (337,278);
},
{
name = top;
pos = (327,580);
}
);
layerId = m01;
shapes = (
{
closed = 1;
nodes = (
(508,275,l),
(508,439,l),
(458,439,o),
(483,484,o),
(424,484,c),
(424,491,l),
(437,491,ls),
(453,491,o),
(477,504,o),
(477,536,cs),
(477,571,o),
(437,583,o),
(405,583,cs),
(219,583,l),
(219,543,l),
(241,543,o),
(248,532,o),
(248,515,cs),
(248,465,ls),
(248,448,o),
(241,439,o),
(219,439,c),
(219,278,l),
(345,278,l),
(345,439,l),
(331,439,o),
(326,446,o),
(326,463,c),
(351,463,ls),
(370,463,o),
(379,455,o),
(379,436,cs),
(379,328,ls),
(379,297,o),
(393,275,o),
(447,275,cs)
);
},
{
closed = 1;
nodes = (
(326,540,l),
(362,540,ls),
(374,540,o),
(388,537,o),
(388,522,cs),
(388,511,o),
(379,505,o),
(363,505,cs),
(326,505,l)
);
},
{
closed = 1;
nodes = (
(536,96,o),
(682,242,o),
(682,423,cs),
(682,603,o),
(536,749,o),
(356,749,cs),
(175,749,o),
(29,603,o),
(29,423,cs),
(29,242,o),
(175,96,o),
(356,96,cs)
);
},
{
closed = 1;
nodes = (
(225,186,o),
(119,292,o),
(119,423,cs),
(119,553,o),
(225,659,o),
(356,659,cs),
(486,659,o),
(592,553,o),
(592,423,cs),
(592,292,o),
(486,186,o),
(356,186,cs)
);
}
);
width = 711;
}
);
metricLeft = O;
metricRight = O;
unicode = 174;
},
{
color = 11;
glyphname = trademark;
lastChange = "2024-01-01 21:12:36 +0000";
layers = (
{
anchors = (
{
name = bottom;
pos = (1047,0);
},
{
name = center;
pos = (397,358);
},
{
name = top;
pos = (1031,716);
}
);
layerId = m01;
shapes = (
{
closed = 1;
nodes = (
(276,408,l),
(276,580,l),
(232,580,ls),
(207,580,o),
(198,594,o),
(198,615,cs),
(198,677,l),
(224,677,o),
(234,660,o),
(234,639,cs),
(234,613,l),
(285,613,l),
(285,722,l),
(40,722,l),
(40,613,l),
(96,613,l),
(96,639,ls),
(96,660,o),
(103,677,o),
(129,677,c),
(129,613,ls),
(129,592,o),
(122,580,o),
(96,580,cs),
(52,580,l),
(52,408,l)
);
},
{
closed = 1;
nodes = (
(452,408,l),
(452,584,l),
(442,584,ls),
(422,584,o),
(414,595,o),
(414,615,cs),
(414,652,l),
(472,588,l),
(530,652,l),
(530,614,ls),
(530,595,o),
(520,582,o),
(498,582,cs),
(490,582,l),
(490,405,l),
(627,405,l),
(627,579,l),
(605,579,o),
(598,589,o),
(598,609,cs),
(598,641,ls),
(598,662,o),
(605,676,o),
(627,676,c),
(627,721,l),
(524,721,l),
(472,662,l),
(418,722,l),
(315,722,l),
(315,677,l),
(339,677,o),
(345,661,o),
(345,642,cs),
(345,613,ls),
(345,592,o),
(339,580,o),
(315,580,c),
(315,408,l)
);
}
);
width = 667;
}
);
unicode = 8482;
},
{
color = 11;
glyphname = degree;
lastChange = "2024-01-01 21:12:36 +0000";
layers = (
{
background = {
shapes = (
{
closed = 1;
nodes = (
(96,690,o),
(106,716,o),
(142,716,cs),
(166,716,o),
(188,693,o),
(188,658,cs),
(188,642,o),
(186,632,o),
(177,622,cs),
(169,612,o),
(156,604,o),
(140,604,cs),
(119,604,o),
(96,626,o),
(96,652,cs)
);
},
{
closed = 1;
nodes = (
(20,621,o),
(35,594,o),
(47,577,cs),
(66,548,o),
(103,534,o),
(143,534,cs),
(177,534,o),
(217,550,o),
(242,583,cs),
(256,603,o),
(260,612,o),
(262,659,cs),
(262,699,o),
(247,726,o),
(235,743,cs),
(216,772,o),
(179,786,o),
(139,786,cs),
(105,786,o),
(65,770,o),
(40,737,cs),
(26,717,o),
(22,708,o),
(20,661,cs)
);
}
);
};
layerId = m01;
shapes = (
{
closed = 1;
nodes = (
(222,523,o),
(285,586,o),
(285,661,cs),
(285,737,o),
(222,798,o),
(147,798,cs),
(71,798,o),
(10,737,o),
(10,661,cs),
(10,586,o),
(71,523,o),
(147,523,cs)
);
},
{
closed = 1;
nodes = (
(120,613,o),
(98,634,o),
(98,661,cs),
(98,688,o),
(120,710,o),
(147,710,cs),
(174,710,o),
(195,688,o),
(195,661,cs),
(195,634,o),
(174,613,o),
(147,613,cs)
);
}
);
width = 295;
}
);
unicode = 176;
},
{
color = 11;
glyphname = minute;
lastChange = "2024-01-01 21:12:36 +0000";
layers = (
{
layerId = m01;
shapes = (
{
closed = 1;
nodes = (
(60,717,l),
(287,716,l),
(157,434,l),
(60,434,l)
);
}
);
width = 327;
}
);
unicode = 8242;
},
{
color = 11;
glyphname = bar;
lastChange = "2024-01-01 21:12:36 +0000";
layers = (
{
layerId = m01;
shapes = (
{
closed = 1;
nodes = (
(100,810,l),
(100,-100,l),
(198,-100,l),
(198,810,l)
);
}
);
width = 298;
}
);
unicode = 124;
},
{
color = 11;
glyphname = brokenbar;
lastChange = "2024-01-01 21:12:36 +0000";
layers = (
{
layerId = m01;
shapes = (
{
closed = 1;
nodes = (
(100,810,l),
(100,575,l),
(198,575,l),
(198,810,l)
);
},
{
closed = 1;
nodes = (
(100,505,l),
(100,-100,l),
(198,-100,l),
(198,505,l)
);
}
);
width = 298;
}
);
unicode = 166;
},
{
color = 11;
glyphname = dagger;
lastChange = "2024-01-01 21:12:36 +0000";
layers = (
{
layerId = m01;
shapes = (
{
closed = 1;
nodes = (
(388,-100,l),
(441,481,l),
(391,481,o),
(374,505,o),
(374,547,cs),
(374,673,ls),
(374,713,o),
(391,745,o),
(441,745,c),
(441,825,l),
(149,825,l),
(149,745,l),
(199,745,o),
(216,718,o),
(216,678,cs),
(216,547,ls),
(216,505,o),
(199,481,o),
(149,481,c),
(202,-100,l)
);
},
{
closed = 1;
nodes = (
(146,653,o),
(119,666,o),
(119,716,c),
(29,716,l),
(29,511,l),
(119,511,l),
(119,561,o),
(151,574,o),
(191,574,cs),
(399,574,ls),
(439,574,o),
(471,561,o),
(471,511,c),
(561,511,l),
(561,716,l),
(471,716,l),
(471,666,o),
(444,653,o),
(404,653,cs),
(186,653,ls)
);
}
);
width = 590;
}
);
metricLeft = I;
metricRight = I;
unicode = 8224;
},
{
color = 11;
glyphname = literSign;
lastChange = "2024-01-01 21:12:36 +0000";
layers = (
{
anchors = (
{
name = bottom;
pos = (253,0);
},
{
name = center;
pos = (257,535);
},
{
name = ogonek;
pos = (404,0);
},
{
name = top;
pos = (258,716);
},
{
name = topleft;
pos = (84,716);
}
);
layerId = m01;
shapes = (
{
closed = 1;
nodes = (
(29,97,o),
(100,-6,o),
(228,-6,cs),
(409,-6,o),
(510,195,o),
(510,556,c),
(443,556,l),
(443,499,o),
(372,434,o),
(309,434,cs),
(289,434,o),
(273,439,o),
(261,448,c),
(349,474,o),
(416,555,o),
(416,647,cs),
(416,727,o),
(380,771,o),
(316,771,cs),
(122,771,o),
(29,470,o),
(29,284,cs)
);
},
{
closed = 1;
nodes = (
(233,595,o),
(268,667,o),
(305,667,cs),
(321,667,o),
(331,653,o),
(331,631,cs),
(331,585,o),
(289,534,o),
(233,509,c),
(233,521,ls)
);
}
);
width = 539;
}
);
metricLeft = O;
metricRight = O;
unicode = 8467;
},
{
color = 11;
glyphname = daggerdbl;
lastChange = "2024-01-01 21:12:36 +0000";
layers = (
{
layerId = m01;
shapes = (
{
closed = 1;
nodes = (
(146,409,o),
(119,422,o),
(119,472,c),
(29,472,l),
(29,267,l),
(119,267,l),
(119,317,o),
(151,330,o),
(191,330,cs),
(399,330,ls),
(439,330,o),
(471,317,o),
(471,267,c),
(561,267,l),
(561,472,l),
(471,472,l),
(471,422,o),
(444,409,o),
(404,409,cs),
(186,409,ls)
);
},
{
closed = 1;
nodes = (
(146,653,o),
(119,666,o),
(119,716,c),
(29,716,l),
(29,511,l),
(119,511,l),
(119,561,o),
(151,574,o),
(191,574,cs),
(399,574,ls),
(439,574,o),
(471,561,o),
(471,511,c),
(561,511,l),
(561,716,l),
(471,716,l),
(471,666,o),
(444,653,o),
(404,653,cs),
(186,653,ls)
);
},
{
closed = 1;
nodes = (
(388,-100,l),
(441,238,l),
(391,238,o),
(374,262,o),
(374,304,cs),
(374,673,ls),
(374,713,o),
(391,745,o),
(441,745,c),
(441,825,l),
(149,825,l),
(149,745,l),
(199,745,o),
(216,718,o),
(216,678,cs),
(216,304,ls),
(216,262,o),
(199,238,o),
(149,238,c),
(202,-100,l)
);
}
);
width = 590;
}
);
metricLeft = H;
metricRight = H;
unicode = 8225;
},
{
color = 11;
glyphname = estimated;
lastChange = "2024-01-01 21:12:36 +0000";
layers = (
{
layerId = m01;
shapes = (
{
closed = 1;
nodes = (
(449,-5,o),
(513,26,o),
(585,106,c),
(520,106,l),
(485,57,o),
(412,17,o),
(345,17,cs),
(220,17,o),
(196,57,o),
(170,117,c),
(170,268,l),
(640,268,l),
(632,455,o),
(525,558,o),
(345,558,cs),
(167,558,o),
(30,444,o),
(30,275,cs),
(30,104,o),
(157,-5,o),
(345,-5,cs)
);
},
{
closed = 1;
nodes = (
(170,287,l),
(170,440,l),
(178,467,o),
(235,538,o),
(345,538,cs),
(431,538,o),
(512,467,o),
(520,434,c),
(520,287,l)
);
}
);
width = 670;
}
);
unicode = 8494;
},
{
color = 11;
glyphname = numero;
lastChange = "2024-01-01 21:12:36 +0000";
layers = (
{
anchors = (
{
name = bottom;
pos = (1020,0);
},
{
name = center;
pos = (1020,358);
},
{
name = horn;
pos = (1254,642);
},
{
name = ogonek;
pos = (1112,-8);
},
{
name = top;
pos = (1013,716);
},
{
name = topleft;
pos = (683,716);
}
);
layerId = m01;
shapes = (
{
closed = 1;
nodes = (
(1035,188,ls),
(1124,188,o),
(1204,241,o),
(1204,366,cs),
(1204,538,ls),
(1204,669,o),
(1124,722,o),
(1035,722,cs),
(897,722,ls),
(808,722,o),
(728,663,o),
(728,538,cs),
(728,366,ls),
(728,247,o),
(808,188,o),
(897,188,cs)
);
},
{
ref = N;
},
{
closed = 1;
nodes = (
(729,0,l),
(1204,0,l),
(1204,92,l),
(729,92,l)
);
},
{
alignment = -1;
pos = (625,54);
ref = cutdetail.part;
},
{
closed = 1;
nodes = (
(903,488,o),
(880,494,o),
(880,541,cs),
(880,555,ls),
(880,603,o),
(902,622,o),
(948,622,cs),
(986,622,ls),
(1031,622,o),
(1053,603,o),
(1053,555,cs),
(1053,541,ls),
(1053,494,o),
(1030,488,o),
(1016,488,cs),
(917,488,ls)
);
}
);
width = 1235;
}
);
unicode = 8470;
},
{
color = 11;
glyphname = ampersand.ss01;
lastChange = "2024-01-01 21:12:36 +0000";
layers = (
{
background = {
shapes = (
{
pos = (621,0);
ref = three;
scale = (-1,1);
}
);
};
layerId = m01;
shapes = (
{
closed = 1;
nodes = (
(369,438,l),
(268,438,ls),
(235,438,o),
(220,453,o),
(220,473,cs),
(220,494,o),
(235,504,o),
(268,504,cs),
(687,504,l),
(687,574,l),
(293,574,ls),
(261,574,o),
(246,587,o),
(246,605,cs),
(246,622,o),
(261,635,o),
(293,635,cs),
(372,635,ls),
(411,635,o),
(428,614,o),
(428,590,cs),
(428,564,l),
(616,564,l),
(616,590,ls),
(616,663,o),
(552,722,o),
(465,722,cs),
(210,722,ls),
(143,722,o),
(52,706,o),
(52,624,cs),
(52,555,o),
(114,543,o),
(151,543,cs),
(169,543,l),
(169,540,l),
(100,540,o),
(25,517,o),
(25,374,cs),
(25,185,ls),
(25,78,o),
(101,-1,o),
(210,-1,c),
(369,-1,l)
);
},
{
closed = 1;
nodes = (
(428,-1,l),
(616,-1,l),
(616,542,l),
(428,542,l)
);
}
);
width = 692;
}
);
},
{
color = 11;
glyphname = bitcoin;
lastChange = "2024-01-01 21:12:36 +0000";
layers = (
{
layerId = m01;
shapes = (
{
ref = B;
},
{
closed = 1;
nodes = (
(269,672,l),
(269,792,l),
(208,792,l),
(208,672,l)
);
},
{
closed = 1;
nodes = (
(374,672,l),
(374,792,l),
(313,792,l),
(313,672,l)
);
},
{
closed = 1;
nodes = (
(208,168,l),
(208,-76,l),
(269,-76,l),
(269,168,l)
);
},
{
closed = 1;
nodes = (
(313,168,l),
(313,-76,l),
(374,-76,l),
(374,168,l)
);
}
);
width = 639;
}
);
metricLeft = B;
metricRight = B;
unicode = 8383;
},
{
color = 11;
glyphname = cedi;
lastChange = "2024-01-01 21:12:36 +0000";
layers = (
{
anchors = (
{
name = bottom;
pos = (322,0);
},
{
name = top;
pos = (298,716);
}
);
layerId = m01;
shapes = (
{
closed = 1;
nodes = (
(561,0,l),
(561,434,l),
(323,434,ls),
(238,434,o),
(231,465,o),
(231,520,cs),
(231,547,ls),
(231,609,o),
(248,636,o),
(298,636,cs),
(331,636,ls),
(381,636,o),
(398,609,o),
(398,564,c),
(562,564,l),
(562,656,o),
(498,722,o),
(411,722,cs),
(218,722,ls),
(109,722,o),
(29,643,o),
(29,536,cs),
(29,186,ls),
(29,79,o),
(109,0,o),
(218,0,cs)
);
},
{
closed = 1;
nodes = (
(275,792,l),
(275,-76,l),
(347,-76,l),
(347,792,l)
);
},
{
closed = 1;
nodes = (
(275,792,l),
(275,-76,l),
(347,-76,l),
(347,792,l)
);
}
);
width = 591;
}
);
metricLeft = c;
unicode = 8373;
},
{
color = 11;
glyphname = cent;
lastChange = "2024-01-01 21:12:36 +0000";
layers = (
{
layerId = m01;
shapes = (
{
closed = 1;
nodes = (
(561,0,l),
(561,358,l),
(323,358,ls),
(238,358,o),
(231,389,o),
(231,444,cs),
(231,506,o),
(248,533,o),
(298,533,cs),
(331,533,ls),
(381,533,o),
(398,496,o),
(398,451,c),
(562,451,l),
(562,543,o),
(498,619,o),
(411,619,cs),
(218,619,ls),
(109,619,o),
(29,540,o),
(29,433,cs),
(29,186,ls),
(29,79,o),
(109,0,o),
(218,0,cs)
);
},
{
closed = 1;
nodes = (
(347,-76,l),
(347,71,l),
(275,71,l),
(275,-76,l)
);
},
{
closed = 1;
nodes = (
(347,576,l),
(347,689,l),
(275,689,l),
(275,576,l)
);
}
);
width = 591;
}
);
metricLeft = c;
metricRight = c;
unicode = 162;
},
{
color = 11;
glyphname = colonsign;
lastChange = "2024-01-01 21:12:36 +0000";
layers = (
{
anchors = (
{
name = bottom;
pos = (322,0);
},
{
name = top;
pos = (298,716);
}
);
layerId = m01;
shapes = (
{
closed = 1;
nodes = (
(561,0,l),
(561,434,l),
(323,434,ls),
(238,434,o),
(231,465,o),
(231,520,cs),
(231,547,ls),
(231,609,o),
(248,636,o),
(298,636,cs),
(331,636,ls),
(381,636,o),
(398,609,o),
(398,564,c),
(562,564,l),
(562,656,o),
(498,722,o),
(411,722,cs),
(218,722,ls),
(109,722,o),
(29,643,o),
(29,536,cs),
(29,186,ls),
(29,79,o),
(109,0,o),
(218,0,cs)
);
},
{
closed = 1;
nodes = (
(259,792,l),
(259,-76,l),
(300,-76,l),
(300,792,l)
);
},
{
closed = 1;
nodes = (
(323,792,l),
(323,-76,l),
(364,-76,l),
(364,792,l)
);
}
);
width = 591;
}
);
unicode = 8353;
},
{
color = 11;
glyphname = currency;
lastChange = "2024-01-01 21:12:36 +0000";
layers = (
{
layerId = m01;
shapes = (
{
closed = 1;
nodes = (
(419,475,l),
(520,576,l),
(469,627,l),
(369,526,l)
);
},
{
closed = 1;
nodes = (
(45,447,o),
(45,316,o),
(128,234,cs),
(209,152,o),
(340,152,o),
(421,234,cs),
(504,316,o),
(504,447,o),
(422,528,cs),
(340,611,o),
(209,611,o),
(127,528,cs)
);
},
{
closed = 1;
nodes = (
(240,500,o),
(309,500,o),
(351,458,cs),
(393,416,o),
(393,347,o),
(351,305,cs),
(310,263,o),
(240,263,o),
(198,305,cs),
(156,347,o),
(157,416,o),
(198,458,cs)
);
},
{
closed = 1;
nodes = (
(183,525,l),
(80,627,l),
(29,576,l),
(132,474,l)
);
},
{
closed = 1;
nodes = (
(135,292,l),
(29,187,l),
(80,136,l),
(186,241,l)
);
},
{
closed = 1;
nodes = (
(361,244,l),
(469,136,l),
(520,187,l),
(412,295,l)
);
}
);
width = 549;
}
);
metricLeft = o;
metricRight = o;
unicode = 164;
},
{
color = 11;
glyphname = dollar;
lastChange = "2024-01-01 21:12:36 +0000";
layers = (
{
anchors = (
{
name = bottom;
pos = (322,0);
},
{
name = top;
pos = (292,716);
}
);
layerId = m01;
shapes = (
{
ref = S;
},
{
closed = 1;
nodes = (
(275,71,l),
(275,-76,l),
(347,-76,l),
(347,71,l)
);
},
{
closed = 1;
nodes = (
(275,792,l),
(275,679,l),
(347,679,l),
(347,792,l)
);
}
);
width = 625;
}
);
metricLeft = s;
metricRight = s;
unicode = 36;
},
{
color = 11;
glyphname = dong;
lastChange = "2024-01-01 21:12:36 +0000";
layers = (
{
anchors = (
{
name = bottom;
pos = (445,0);
},
{
name = center;
pos = (445,358);
},
{
name = horn;
pos = (679,642);
},
{
name = ogonek;
pos = (537,-8);
},
{
name = top;
pos = (438,716);
},
{
name = topleft;
pos = (108,716);
}
);
layerId = m01;
shapes = (
{
closed = 1;
nodes = (
(592,145,l),
(592,432,l),
(542,432,o),
(525,458,o),
(525,496,cs),
(525,849,l),
(465,849,l),
(282,827,l),
(282,755,l),
(332,755,o),
(349,741,o),
(349,706,cs),
(349,248,ls),
(349,199,o),
(366,145,o),
(461,145,cs)
);
},
{
closed = 1;
nodes = (
(592,0,l),
(592,100,l),
(49,100,l),
(49,0,l)
);
},
{
closed = 1;
nodes = (
(282,145,o),
(340,173,o),
(340,248,c),
(375,248,l),
(375,454,l),
(349,453,l),
(349,423,o),
(333,378,o),
(289,378,cs),
(251,378,o),
(226,398,o),
(226,439,cs),
(226,507,o),
(261,526,o),
(313,521,cs),
(333,519,o),
(349,512,o),
(367,507,c),
(367,583,l),
(353,592,o),
(337,598,o),
(320,601,cs),
(114,638,o),
(29,505,o),
(29,378,cs),
(29,227,o),
(104,145,o),
(220,145,cs)
);
},
{
closed = 1;
nodes = (
(592,641,l),
(592,711,l),
(261,711,l),
(261,641,l)
);
}
);
width = 621;
}
);
metricLeft = C;
metricRight = H;
unicode = 8363;
},
{
color = 11;
glyphname = euro;
lastChange = "2024-01-01 21:12:36 +0000";
layers = (
{
anchors = (
{
name = bottom;
pos = (346,0);
},
{
name = hooktop;
pos = (587,564);
},
{
name = top;
pos = (334,716);
}
);
layerId = m01;
shapes = (
{
closed = 1;
nodes = (
(-28,550,l),
(325,550,l),
(345,598,l),
(-8,598,l)
);
},
{
closed = 1;
nodes = (
(-28,471,l),
(325,471,l),
(345,519,l),
(-8,519,l)
);
},
{
closed = 1;
nodes = (
(398,-8,ls),
(507,-8,o),
(587,71,o),
(587,178,cs),
(587,500,l),
(423,500,l),
(423,460,o),
(406,439,o),
(382,439,cs),
(272,439,ls),
(248,439,o),
(231,460,o),
(231,500,cs),
(231,547,ls),
(231,609,o),
(248,636,o),
(298,636,cs),
(356,636,ls),
(406,636,o),
(423,609,o),
(423,564,c),
(587,564,l),
(587,656,o),
(513,721,o),
(426,721,cs),
(218,722,ls),
(109,723,o),
(29,643,o),
(29,536,cs),
(29,178,ls),
(29,71,o),
(109,-8,o),
(218,-8,c)
);
}
);
width = 616;
}
);
metricRight = C;
unicode = 8364;
},
{
color = 11;
glyphname = guarani;
lastChange = "2024-01-01 21:12:36 +0000";
layers = (
{
anchors = (
{
name = bottom;
pos = (328,0);
},
{
name = hooktop;
pos = (587,564);
},
{
name = top;
pos = (324,716);
}
);
layerId = m01;
shapes = (
{
closed = 1;
nodes = (
(302,-8,ls),
(405,-8,o),
(439,48,o),
(439,110,cs),
(439,172,l),
(482,172,o),
(497,148,o),
(497,113,cs),
(497,0,l),
(587,0,l),
(587,500,l),
(423,500,l),
(423,454,o),
(399,439,o),
(375,439,cs),
(278,439,ls),
(254,439,o),
(231,460,o),
(231,500,cs),
(231,547,ls),
(231,609,o),
(248,636,o),
(298,636,cs),
(356,636,ls),
(406,636,o),
(423,609,o),
(423,564,c),
(587,564,l),
(587,656,o),
(513,721,o),
(426,721,cs),
(218,722,ls),
(109,723,o),
(29,643,o),
(29,536,cs),
(29,178,ls),
(29,71,o),
(109,-8,o),
(218,-8,cs)
);
},
{
closed = 1;
nodes = (
(347,672,l),
(347,792,l),
(275,792,l),
(275,672,l)
);
},
{
closed = 1;
nodes = (
(275,197,l),
(275,-76,l),
(347,-76,l),
(347,197,l)
);
}
);
width = 606;
}
);
unicode = 8370;
},
{
color = 11;
glyphname = hryvnia;
lastChange = "2024-01-01 21:12:36 +0000";
layers = (
{
anchors = (
{
name = bottom;
pos = (306,0);
},
{
name = top;
pos = (336,716);
}
);
layerId = m01;
shapes = (
{
closed = 1;
nodes = (
(503,0,o),
(598,60,o),
(598,215,cs),
(598,464,l),
(403,464,l),
(403,436,o),
(386,425,o),
(354,425,cs),
(279,425,ls),
(246,425,o),
(231,436,o),
(231,457,cs),
(231,477,o),
(239,495,o),
(279,495,cs),
(429,495,ls),
(545,503,o),
(588,543,o),
(588,603,cs),
(588,679,o),
(515,716,o),
(395,716,cs),
(231,716,ls),
(124,716,o),
(68,664,o),
(68,591,c),
(242,591,l),
(242,620,o),
(266,636,o),
(309,636,cs),
(338,636,ls),
(373,636,o),
(404,624,o),
(404,599,cs),
(404,579,o),
(396,566,o),
(332,562,cs),
(273,559,ls),
(93,549,o),
(33,499,o),
(33,302,cs),
(33,215,ls),
(33,108,o),
(85,0,o),
(246,0,c),
(390,0,ls)
);
},
{
closed = 1;
nodes = (
(229,544,l),
(-10,544,l),
(-10,495,l),
(229,495,l)
);
},
{
closed = 1;
nodes = (
(229,464,l),
(-10,464,l),
(-10,415,l),
(229,415,l)
);
},
{
closed = 1;
nodes = (
(411,415,l),
(648,415,l),
(648,464,l),
(411,464,l)
);
},
{
closed = 1;
nodes = (
(359,495,l),
(648,495,l),
(648,544,l),
(411,544,l)
);
}
);
width = 638;
}
);
unicode = 8372;
},
{
color = 11;
glyphname = kip;
lastChange = "2024-01-01 21:12:36 +0000";
layers = (
{
layerId = m01;
shapes = (
{
closed = 1;
nodes = (
(312,0,l),
(312,439,l),
(266,439,o),
(249,460,o),
(249,500,cs),
(249,564,ls),
(249,604,o),
(266,631,o),
(312,631,c),
(312,716,l),
(29,716,l),
(29,636,l),
(79,636,o),
(96,604,o),
(96,564,cs),
(96,500,ls),
(96,460,o),
(79,434,o),
(29,434,c),
(29,0,l)
);
},
{
closed = 1;
nodes = (
(668,0,l),
(668,435,l),
(649,435,ls),
(622,435,o),
(608,449,o),
(551,512,cs),
(462,610,l),
(341,536,l),
(399,467,l),
(410,454,o),
(400,439,o),
(382,439,cs),
(370,439,l),
(370,0,l)
);
},
{
closed = 1;
nodes = (
(668,510,l),
(668,576,l),
(29,576,l),
(29,510,l)
);
},
{
closed = 1;
nodes = (
(568,613,ls),
(584,620,o),
(611,636,o),
(638,636,cs),
(648,636,l),
(648,716,l),
(361,716,l),
(361,631,l),
(382,631,ls),
(403,631,o),
(405,616,o),
(391,607,cs),
(340,576,l),
(340,510,l)
);
}
);
width = 697;
}
);
metricLeft = K;
metricRight = K;
unicode = 8365;
},
{
color = 11;
glyphname = lari;
lastChange = "2024-01-01 21:12:36 +0000";
layers = (
{
anchors = (
{
name = bottom;
pos = (346,0);
},
{
name = top;
pos = (322,716);
}
);
layerId = m01;
shapes = (
{
closed = 1;
nodes = (
(585,0,l),
(585,434,l),
(347,434,ls),
(262,434,o),
(255,480,o),
(255,520,cs),
(255,547,ls),
(255,609,o),
(272,636,o),
(322,636,cs),
(355,636,ls),
(405,636,o),
(422,609,o),
(422,564,c),
(586,564,l),
(586,656,o),
(522,722,o),
(435,722,cs),
(242,722,ls),
(133,722,o),
(53,657,o),
(53,552,cs),
(53,513,o),
(71,434,o),
(145,434,c),
(145,0,l)
);
},
{
closed = 1;
nodes = (
(29,0,l),
(617,0,l),
(617,434,l),
(29,434,l)
);
},
{
closed = 1;
nodes = (
(283,792,l),
(283,520,l),
(324,520,l),
(324,792,l)
);
},
{
closed = 1;
nodes = (
(347,792,l),
(347,520,l),
(388,520,l),
(388,792,l)
);
}
);
width = 646;
}
);
metricLeft = H;
metricRight = C;
unicode = 8382;
},
{
color = 11;
glyphname = manat;
lastChange = "2024-01-01 21:12:36 +0000";
layers = (
{
anchors = (
{
name = bottom;
pos = (349,184);
},
{
name = horn;
pos = (661,264);
},
{
name = ogonek;
pos = (661,900);
},
{
name = top;
pos = (347,900);
}
);
background = {
shapes = (
{
closed = 1;
nodes = (
(326,0,l),
(326,439,l),
(281,439,o),
(264,466,o),
(264,506,cs),
(264,546,ls),
(265,586,o),
(281,613,o),
(331,613,cs),
(379,613,ls),
(439,613,o),
(446,586,o),
(446,546,cs),
(446,506,ls),
(446,466,o),
(429,439,o),
(384,439,c),
(384,0,l),
(671,0,l),
(671,434,l),
(621,434,o),
(604,466,o),
(604,506,cs),
(604,538,ls),
(604,645,o),
(524,722,o),
(415,722,cs),
(295,722,ls),
(186,722,o),
(106,673,o),
(106,559,cs),
(106,506,ls),
(106,466,o),
(89,434,o),
(39,434,c),
(39,0,l)
);
}
);
};
layerId = m01;
shapes = (
{
closed = 1;
nodes = (
(323,709,ls),
(196,711,o),
(106,652,o),
(106,514,cs),
(106,506,l),
(106,466,o),
(79,433,o),
(29,433,c),
(29,-1,l),
(336,-1,l),
(336,438,l),
(291,438,o),
(264,466,o),
(264,506,cs),
(264,533,ls),
(264,573,o),
(281,601,o),
(331,600,cs),
(399,599,ls),
(449,598,o),
(466,572,o),
(466,532,cs),
(466,505,ls),
(466,465,o),
(439,438,o),
(394,438,c),
(394,-1,l),
(701,-2,l),
(701,432,l),
(651,432,o),
(624,465,o),
(624,505,c),
(624,513,ls),
(624,651,o),
(534,706,o),
(407,708,cs)
);
},
{
closed = 1;
nodes = (
(329,792,l),
(329,501,l),
(401,501,l),
(401,792,l)
);
}
);
width = 730;
}
);
metricRight = U;
unicode = 8380;
},
{
color = 11;
glyphname = naira;
lastChange = "2024-01-01 21:12:36 +0000";
layers = (
{
anchors = (
{
name = bottom;
pos = (357,0);
},
{
name = ogonek;
pos = (700,0);
},
{
name = top;
pos = (354,716);
},
{
name = topleft;
pos = (357,716);
}
);
layerId = m01;
shapes = (
{
closed = 1;
nodes = (
(332,0,l),
(332,439,l),
(284,439,o),
(267,461,o),
(267,501,cs),
(267,591,l),
(385,428,l),
(385,0,l),
(677,0,l),
(677,434,l),
(627,434,o),
(610,460,o),
(610,500,cs),
(610,564,ls),
(610,604,o),
(627,636,o),
(677,636,c),
(677,716,l),
(385,716,l),
(385,636,l),
(435,636,o),
(452,609,o),
(452,569,cs),
(452,500,ls),
(452,493,o),
(451,486,o),
(450,480,c),
(271,716,l),
(39,716,l),
(39,636,l),
(92,636,o),
(109,607,o),
(109,567,cs),
(109,500,ls),
(109,457,o),
(100,434,o),
(39,434,c),
(39,0,l)
);
},
{
closed = 1;
nodes = (
(232,599,l),
(29,599,l),
(29,551,l),
(232,551,l)
);
},
{
closed = 1;
nodes = (
(232,521,l),
(29,521,l),
(29,473,l),
(232,473,l)
);
},
{
closed = 1;
nodes = (
(687,599,l),
(484,599,l),
(484,551,l),
(687,551,l)
);
},
{
closed = 1;
nodes = (
(687,521,l),
(484,521,l),
(484,473,l),
(687,473,l)
);
}
);
width = 716;
}
);
metricLeft = N;
metricRight = N;
unicode = 8358;
},
{
color = 11;
glyphname = peso;
lastChange = "2024-01-01 21:12:36 +0000";
layers = (
{
background = {
shapes = (
{
closed = 1;
nodes = (
(478,434,l),
(340,434,ls),
(290,434,o),
(273,460,o),
(273,497,c),
(483,497,ls),
(520,497,o),
(598,518,o),
(598,605,cs),
(598,711,o),
(509,716,o),
(469,716,cs),
(38,716,l),
(38,636,l),
(88,636,o),
(105,609,o),
(105,569,cs),
(105,495,ls),
(105,455,o),
(88,434,o),
(38,434,c),
(38,0,l),
(478,0,l)
);
},
{
closed = 1;
nodes = (
(273,636,l),
(378,636,ls),
(406,636,o),
(419,620,o),
(419,599,cs),
(419,574,o),
(403,561,o),
(377,561,cs),
(273,561,l)
);
}
);
};
layerId = m01;
shapes = (
{
closed = 1;
nodes = (
(479,433,l),
(334,433,ls),
(295,433,o),
(273,456,o),
(273,497,c),
(474,497,ls),
(526,497,o),
(598,521,o),
(598,608,cs),
(598,714,o),
(500,716,o),
(460,716,cs),
(106,716,l),
(106,644,o),
(106,609,o),
(106,569,cs),
(106,504,ls),
(106,472,o),
(100,434,o),
(39,434,c),
(39,0,l),
(479,0,l)
);
},
{
closed = 1;
nodes = (
(273,636,l),
(379,636,ls),
(407,636,o),
(420,618,o),
(420,597,cs),
(420,572,o),
(404,561,o),
(378,561,cs),
(273,561,l)
);
},
{
closed = 1;
nodes = (
(232,670,l),
(29,670,l),
(29,622,l),
(232,622,l)
);
},
{
closed = 1;
nodes = (
(232,591,l),
(29,591,l),
(29,543,l),
(232,543,l)
);
},
{
closed = 1;
nodes = (
(650,670,l),
(447,670,l),
(447,622,l),
(650,622,l)
);
},
{
closed = 1;
nodes = (
(650,591,l),
(447,591,l),
(447,543,l),
(650,543,l)
);
}
);
width = 636;
}
);
metricLeft = P;
unicode = 8369;
},
{
color = 11;
glyphname = ruble;
lastChange = "2024-01-01 21:12:36 +0000";
layers = (
{
anchors = (
{
name = bottom;
pos = (336,0);
},
{
name = hookjoin;
pos = (29,636);
},
{
name = top;
pos = (306,713);
}
);
background = {
shapes = (
{
closed = 1;
nodes = (
(469,434,l),
(331,434,ls),
(281,434,o),
(264,460,o),
(264,497,c),
(474,497,ls),
(511,497,o),
(589,518,o),
(589,605,cs),
(589,711,o),
(500,716,o),
(460,716,cs),
(29,716,l),
(29,636,l),
(79,636,o),
(96,609,o),
(96,569,cs),
(96,495,ls),
(96,455,o),
(79,434,o),
(29,434,c),
(29,0,l),
(469,0,l)
);
},
{
closed = 1;
nodes = (
(264,636,l),
(369,636,ls),
(397,636,o),
(410,620,o),
(410,599,cs),
(410,574,o),
(394,561,o),
(368,561,cs),
(264,561,l)
);
}
);
};
layerId = m01;
shapes = (
{
closed = 1;
nodes = (
(29,537,l),
(451,537,ls),
(535,537,o),
(589,546,o),
(589,625,cs),
(589,712,o),
(500,716,o),
(451,716,cs),
(29,716,l),
(29,636,l),
(79,636,o),
(96,609,o),
(96,569,cs),
(96,495,ls),
(96,455,o),
(79,434,o),
(29,434,c),
(29,0,l),
(469,0,l),
(469,434,l),
(331,434,ls),
(281,434,o),
(264,460,o),
(264,497,c),
(264,636,l),
(377,636,ls),
(400,636,o),
(410,623,o),
(410,611,cs),
(410,593,o),
(400,585,o),
(376,585,cs),
(29,585,l)
);
},
{
closed = 1;
nodes = (
(410,469,l),
(410,517,l),
(29,517,l),
(29,469,l)
);
}
);
width = 609;
}
);
metricLeft = P;
metricRight = P;
unicode = 8381;
},
{
color = 11;
glyphname = rupeeIndian;
lastChange = "2024-01-01 21:12:36 +0000";
layers = (
{
layerId = m01;
shapes = (
{
closed = 1;
nodes = (
(595,716,l),
(30,716,l),
(0,644,l),
(565,644,l)
);
},
{
closed = 1;
nodes = (
(197,644,l),
(286,644,o),
(322,617,o),
(322,559,cs),
(322,488,o),
(272,464,o),
(213,464,cs),
(30,464,l),
(30,387,l),
(271,0,l),
(544,0,l),
(303,387,l),
(339,387,ls),
(482,387,o),
(526,455,o),
(526,556,cs),
(526,675,o),
(428,716,o),
(339,716,cs),
(232,716,l)
);
},
{
closed = 1;
nodes = (
(595,590,l),
(30,590,l),
(0,518,l),
(565,518,l)
);
}
);
width = 555;
}
);
unicode = 8377;
},
{
color = 11;
glyphname = sheqel;
lastChange = "2024-01-01 21:12:36 +0000";
layers = (
{
layerId = m01;
shapes = (
{
closed = 1;
nodes = (
(179,631,l),
(389,631,ls),
(428,631,o),
(445,610,o),
(445,586,cs),
(445,143,l),
(595,142,l),
(595,585,l),
(595,658,o),
(531,717,o),
(444,717,cs),
(29,719,l),
(29,-3,l),
(179,-2,l)
);
},
{
closed = 1;
nodes = (
(653,85,l),
(443,85,ls),
(404,85,o),
(387,106,o),
(387,130,cs),
(387,573,l),
(237,574,l),
(237,131,l),
(237,58,o),
(301,-1,o),
(388,-1,cs),
(803,-3,l),
(803,719,l),
(653,718,l)
);
}
);
width = 832;
}
);
metricLeft = I;
metricRight = I;
unicode = 8362;
},
{
color = 11;
glyphname = sterling;
lastChange = "2024-01-01 21:12:36 +0000";
layers = (
{
background = {
shapes = (
{
closed = 1;
nodes = (
(275,0,o),
(459,0,o),
(551,0,c),
(551,434,l),
(504,434,o),
(349,434,o),
(306,434,cs),
(270,434,o),
(227,416,o),
(211,412,c),
(211,412,o),
(209,415,o),
(209,415,c),
(215,419,o),
(270,447,o),
(270,505,cs),
(270,557,o),
(253,561,o),
(253,592,cs),
(253,617,o),
(275,634,o),
(308,634,cs),
(360,634,ls),
(384,634,o),
(409,606,o),
(408,579,c),
(539,579,l),
(545,662,o),
(474,722,o),
(344,722,cs),
(244,722,ls),
(149,722,o),
(85,675,o),
(85,606,cs),
(85,561,o),
(102,563,o),
(102,503,cs),
(102,453,o),
(80,431,o),
(33,433,c),
(33,0,l),
(70,0,o),
(113,0,o),
(222,0,c)
);
},
{
closed = 1;
nodes = (
(4,496,l),
(369,496,l),
(369,556,l),
(4,556,l)
);
}
);
};
layerId = m01;
shapes = (
{
closed = 1;
nodes = (
(564,-1,l),
(564,434,l),
(251,434,l),
(270,451,o),
(275,471,o),
(275,504,cs),
(275,543,o),
(251,573,o),
(251,597,cs),
(251,627,o),
(279,635,o),
(300,635,cs),
(334,635,ls),
(373,635,o),
(393,620,o),
(393,590,c),
(564,589,l),
(564,660,o),
(509,722,o),
(389,722,cs),
(277,722,ls),
(156,722,o),
(75,709,o),
(75,614,cs),
(75,560,o),
(115,521,o),
(115,481,cs),
(115,439,o),
(63,433,o),
(33,433,c),
(33,-1,l)
);
},
{
closed = 1;
nodes = (
(360,493,l),
(360,563,l),
(29,563,l),
(29,493,l)
);
}
);
width = 593;
}
);
metricLeft = E;
metricRight = E;
unicode = 163;
},
{
color = 11;
glyphname = tenge;
lastChange = "2024-01-01 21:12:36 +0000";
layers = (
{
anchors = (
{
name = bottom;
pos = (271,0);
},
{
name = center;
pos = (271,358);
},
{
name = top;
pos = (265,716);
}
);
layerId = m01;
shapes = (
{
closed = 1;
nodes = (
(502,0,l),
(502,434,l),
(417,434,ls),
(367,434,o),
(350,460,o),
(350,500,cs),
(350,513,l),
(532,513,l),
(532,593,l),
(10,593,l),
(10,513,l),
(192,513,l),
(192,495,ls),
(192,455,o),
(175,434,o),
(125,434,cs),
(40,434,l),
(40,0,l)
);
},
{
closed = 1;
nodes = (
(532,636,l),
(532,716,l),
(10,716,l),
(10,636,l)
);
}
);
width = 542;
}
);
unicode = 8376;
},
{
color = 11;
glyphname = tugrik;
lastChange = "2024-01-01 21:12:36 +0000";
layers = (
{
anchors = (
{
name = bottom;
pos = (310,0);
},
{
name = center;
pos = (310,358);
},
{
name = top;
pos = (304,716);
}
);
layerId = m01;
shapes = (
{
alignment = -1;
ref = T;
},
{
closed = 1;
nodes = (
(137,538,l),
(402,567,l),
(402,607,l),
(137,578,l)
);
},
{
closed = 1;
nodes = (
(137,470,l),
(402,499,l),
(402,538,l),
(137,509,l)
);
}
);
width = 542;
}
);
metricLeft = T;
metricRight = T;
unicode = 8366;
},
{
color = 11;
glyphname = won;
lastChange = "2024-01-01 21:12:36 +0000";
layers = (
{
layerId = m01;
shapes = (
{
closed = 1;
nodes = (
(854,433,l),
(811,433,o),
(739,462,o),
(777,538,cs),
(799,582,ls),
(814,613,o),
(836,636,o),
(866,636,cs),
(885,636,l),
(885,716,l),
(669,716,l),
(669,631,l),
(717,631,o),
(726,607,o),
(703,564,cs),
(574,335,l),
(731,336,l),
(600,564,ls),
(573,607,o),
(594,631,o),
(626,631,c),
(626,716,l),
(325,716,l),
(325,636,l),
(374,636,o),
(421,614,o),
(444,574,cs),
(468,533,ls),
(496,485,o),
(518,439,o),
(462,439,c),
(503,0,l),
(790,0,l)
);
},
{
closed = 1;
nodes = (
(403,0,l),
(442,439,l),
(384,439,o),
(407,482,o),
(438,543,cs),
(459,584,ls),
(481,623,o),
(491,636,o),
(538,636,c),
(538,716,l),
(325,716,l),
(325,631,l),
(370,631,o),
(378,607,o),
(355,564,cs),
(222,337,l),
(387,335,l),
(253,564,ls),
(229,607,o),
(248,631,o),
(282,631,c),
(282,716,l),
(0,716,l),
(0,636,l),
(20,636,ls),
(58,636,o),
(78,609,o),
(95,572,cs),
(110,538,ls),
(149,451,o),
(77,434,o),
(34,434,c),
(111,0,l)
);
},
{
closed = 1;
nodes = (
(178,576,l),
(0,576,l),
(0,510,l),
(215,510,l)
);
},
{
closed = 1;
nodes = (
(756,510,l),
(885,510,l),
(885,576,l),
(767,576,l)
);
}
);
width = 885;
}
);
metricLeft = W;
metricRight = W;
unicode = 8361;
},
{
color = 11;
glyphname = yen;
lastChange = "2024-01-01 21:12:36 +0000";
layers = (
{
layerId = m01;
shapes = (
{
closed = 1;
nodes = (
(553,0,l),
(553,434,l),
(491,434,ls),
(441,434,o),
(424,455,o),
(424,498,cs),
(424,529,l),
(571,619,ls),
(593,632,o),
(612,636,o),
(637,636,cs),
(651,636,l),
(651,716,l),
(394,716,l),
(394,631,l),
(408,631,ls),
(426,631,o),
(431,617,o),
(416,609,cs),
(369,583,l),
(319,612,ls),
(307,619,o),
(307,631,o),
(319,631,cs),
(339,631,l),
(339,716,l),
(29,716,l),
(29,636,l),
(52,636,ls),
(70,636,o),
(90,627,o),
(123,608,cs),
(266,523,l),
(266,498,ls),
(266,455,o),
(249,434,o),
(199,434,cs),
(137,434,l),
(137,0,l)
);
},
{
closed = 1;
nodes = (
(598,512,l),
(86,512,l),
(86,464,l),
(598,464,l)
);
},
{
closed = 1;
nodes = (
(273,590,l),
(86,590,l),
(86,542,l),
(315,542,l)
);
},
{
closed = 1;
nodes = (
(409,542,l),
(598,542,l),
(598,590,l),
(442,590,l)
);
}
);
width = 680;
}
);
metricLeft = Y;
unicode = 165;
},
{
color = 11;
glyphname = liraTurkish.ss01;
lastChange = "2024-01-01 21:12:36 +0000";
layers = (
{
background = {
shapes = (
{
closed = 1;
nodes = (
(566,0,l),
(566,544,l),
(471,544,l),
(471,500,ls),
(471,460,o),
(454,439,o),
(404,439,c),
(268,439,l),
(268,564,l),
(268,604,o),
(285,636,o),
(335,636,c),
(335,716,l),
(42,716,l),
(42,636,l),
(92,636,o),
(110,604,o),
(110,564,cs),
(110,500,ls),
(110,460,o),
(93,434,o),
(43,434,c),
(42,0,l)
);
}
);
};
layerId = m01;
shapes = (
{
closed = 1;
nodes = (
(584,-1,o),
(579,222,o),
(568,543,c),
(473,543,l),
(473,509,ls),
(473,457,o),
(440,437,o),
(342,438,cs),
(268,439,l),
(268,564,ls),
(268,604,o),
(285,636,o),
(335,636,c),
(335,716,l),
(42,716,l),
(42,636,l),
(92,636,o),
(110,604,o),
(110,564,cs),
(110,500,ls),
(110,460,o),
(93,434,o),
(43,434,c),
(42,0,l),
(238,-1,l)
);
},
{
closed = 1;
nodes = (
(29,531,l),
(338,560,l),
(358,609,l),
(49,580,l)
);
},
{
closed = 1;
nodes = (
(29,458,l),
(338,487,l),
(358,536,l),
(49,507,l)
);
}
);
width = 602;
}
);
metricLeft = H;
metricRight = L;
},
{
color = 11;
glyphname = plus;
lastChange = "2024-01-01 21:12:36 +0000";
layers = (
{
layerId = m01;
shapes = (
{
closed = 1;
nodes = (
(8,533,l),
(290,533,l),
(290,617,l),
(8,617,l)
);
},
{
closed = 1;
nodes = (
(106,716,l),
(106,434,l),
(190,434,l),
(190,716,l)
);
}
);
width = 298;
}
);
unicode = 43;
},
{
color = 11;
glyphname = minus;
lastChange = "2024-01-01 21:12:36 +0000";
layers = (
{
layerId = m01;
shapes = (
{
closed = 1;
nodes = (
(8,531,l),
(278,531,l),
(278,619,l),
(8,619,l)
);
}
);
width = 286;
}
);
unicode = 8722;
},
{
color = 11;
glyphname = multiply;
lastChange = "2024-01-01 21:12:36 +0000";
layers = (
{
layerId = m01;
shapes = (
{
closed = 1;
nodes = (
(226,717,l),
(0,491,l),
(58,433,l),
(284,659,l)
);
},
{
closed = 1;
nodes = (
(284,491,l),
(58,717,l),
(1,660,l),
(227,434,l)
);
}
);
width = 284;
}
);
unicode = 215;
},
{
color = 11;
glyphname = divide;
lastChange = "2024-01-01 21:12:36 +0000";
layers = (
{
layerId = m01;
shapes = (
{
closed = 1;
nodes = (
(186,409,o),
(208,439,o),
(208,462,cs),
(208,492,o),
(184,513,o),
(157,513,cs),
(128,513,o),
(104,491,o),
(104,462,cs),
(104,430,o),
(126,409,o),
(156,409,c)
);
},
{
closed = 1;
nodes = (
(8,534,l),
(308,534,l),
(308,616,l),
(8,616,l)
);
},
{
closed = 1;
nodes = (
(186,638,o),
(208,668,o),
(208,691,cs),
(208,721,o),
(184,742,o),
(157,742,cs),
(128,742,o),
(104,720,o),
(104,691,cs),
(104,659,o),
(126,638,o),
(156,638,c)
);
}
);
width = 316;
}
);
unicode = 247;
},
{
color = 11;
glyphname = equal;
lastChange = "2024-01-01 21:12:36 +0000";
layers = (
{
layerId = m01;
shapes = (
{
closed = 1;
nodes = (
(8,596,l),
(318,596,l),
(318,678,l),
(8,678,l)
);
},
{
closed = 1;
nodes = (
(8,464,l),
(318,464,l),
(318,546,l),
(8,546,l)
);
}
);
width = 326;
}
);
unicode = 61;
},
{
color = 11;
glyphname = notequal;
lastChange = "2024-01-01 21:12:36 +0000";
layers = (
{
layerId = m01;
shapes = (
{
closed = 1;
nodes = (
(88,388,l),
(331,754,l),
(251,754,l),
(8,388,l)
);
},
{
closed = 1;
nodes = (
(15,596,l),
(325,596,l),
(325,678,l),
(15,678,l)
);
},
{
closed = 1;
nodes = (
(15,464,l),
(325,464,l),
(325,546,l),
(15,546,l)
);
}
);
width = 339;
}
);
unicode = 8800;
},
{
color = 11;
glyphname = greater;
lastChange = "2024-01-01 21:12:36 +0000";
layers = (
{
layerId = m01;
shapes = (
{
closed = 1;
nodes = (
(24,446,l),
(146,446,l),
(279,569,l),
(146,695,l),
(24,695,l),
(157,569,l)
);
}
);
width = 279;
}
);
unicode = 62;
},
{
color = 11;
glyphname = greaterequal;
lastChange = "2024-01-01 21:12:36 +0000";
layers = (
{
layerId = m01;
shapes = (
{
closed = 1;
nodes = (
(8,346,l),
(279,346,l),
(279,434,l),
(8,434,l)
);
},
{
closed = 1;
nodes = (
(24,464,l),
(146,464,l),
(279,588,l),
(146,716,l),
(24,716,l),
(157,588,l)
);
}
);
width = 287;
}
);
unicode = 8805;
},
{
color = 11;
glyphname = plusminus;
lastChange = "2024-01-01 21:12:36 +0000";
layers = (
{
guides = (
{
pos = (1,-247);
}
);
layerId = m01;
shapes = (
{
closed = 1;
nodes = (
(8,434,l),
(8,346,l),
(290,346,l),
(290,434,l)
);
},
{
closed = 1;
nodes = (
(290,630,l),
(8,630,l),
(8,550,l),
(290,550,l)
);
},
{
closed = 1;
nodes = (
(189,464,l),
(189,716,l),
(109,716,l),
(109,464,l)
);
}
);
width = 298;
}
);
unicode = 177;
},
{
color = 11;
glyphname = approxequal;
lastChange = "2024-01-01 21:12:36 +0000";
layers = (
{
background = {
shapes = (
{
pos = (1,0);
ref = equal;
}
);
};
layerId = m01;
shapes = (
{
closed = 1;
nodes = (
(141,626,o),
(171,581,o),
(227,581,cs),
(284,581,o),
(322,627,o),
(322,698,c),
(236,698,l),
(236,673,o),
(227,663,o),
(215,663,cs),
(185,663,o),
(155,708,o),
(100,708,cs),
(46,708,o),
(8,669,o),
(8,590,c),
(95,590,l),
(95,613,o),
(103,626,o),
(115,626,cs)
);
},
{
closed = 1;
nodes = (
(141,488,o),
(171,443,o),
(227,443,cs),
(284,443,o),
(322,489,o),
(322,560,c),
(236,560,l),
(236,535,o),
(227,525,o),
(215,525,cs),
(185,525,o),
(155,570,o),
(100,570,cs),
(46,570,o),
(8,531,o),
(8,452,c),
(95,452,l),
(95,475,o),
(103,488,o),
(115,488,cs)
);
}
);
width = 330;
}
);
unicode = 8776;
},
{
color = 11;
glyphname = logicalnot;
lastChange = "2024-01-01 21:12:36 +0000";
layers = (
{
layerId = m01;
shapes = (
{
closed = 1;
nodes = (
(8,536,l),
(298,536,l),
(298,610,l),
(8,610,l)
);
},
{
closed = 1;
nodes = (
(184,468,l),
(298,468,l),
(298,610,l),
(184,610,l)
);
}
);
width = 306;
}
);
unicode = 172;
},
{
color = 11;
glyphname = asciitilde;
lastChange = "2024-01-01 21:12:36 +0000";
layers = (
{
layerId = m01;
shapes = (
{
closed = 1;
nodes = (
(141,532,o),
(171,487,o),
(227,487,cs),
(284,487,o),
(322,533,o),
(322,604,c),
(236,604,l),
(236,579,o),
(227,569,o),
(215,569,cs),
(185,569,o),
(155,614,o),
(100,614,cs),
(46,614,o),
(8,575,o),
(8,496,c),
(95,496,l),
(95,519,o),
(103,532,o),
(115,532,cs)
);
}
);
width = 330;
}
);
unicode = 126;
},
{
color = 11;
glyphname = asciicircum;
lastChange = "2024-01-01 21:12:36 +0000";
layers = (
{
layerId = m01;
shapes = (
{
closed = 1;
nodes = (
(20,589,l),
(102,589,l),
(158,652,l),
(222,585,l),
(302,585,l),
(224,716,l),
(94,716,l)
);
}
);
width = 322;
}
);
unicode = 94;
},
{
color = 11;
glyphname = emptyset;
lastChange = "2024-01-01 21:12:36 +0000";
layers = (
{
layerId = m01;
shapes = (
{
closed = 1;
nodes = (
(272,372,o),
(348,448,o),
(348,542,cs),
(348,636,o),
(272,712,o),
(178,712,cs),
(84,712,o),
(8,636,o),
(8,542,cs),
(8,448,o),
(84,372,o),
(178,372,cs)
);
},
{
closed = 1;
nodes = (
(123,443,o),
(79,488,o),
(79,542,cs),
(79,596,o),
(123,641,o),
(179,641,cs),
(233,641,o),
(278,596,o),
(278,542,cs),
(278,488,o),
(233,443,o),
(179,443,cs)
);
},
{
closed = 1;
nodes = (
(78,338,l),
(329,712,l),
(279,746,l),
(28,371,l)
);
}
);
width = 356;
}
);
unicode = 8709;
},
{
color = 11;
glyphname = infinity;
lastChange = "2024-01-01 21:12:36 +0000";
layers = (
{
background = {
shapes = (
{
closed = 1;
nodes = (
(378,497,o),
(414,466,o),
(452,466,cs),
(490,466,o),
(513,487,o),
(513,520,cs),
(513,557,o),
(477,590,o),
(435,590,cs),
(392,590,o),
(348,562,o),
(321,519,c),
(278,579,l),
(311,650,o),
(367,689,o),
(435,689,cs),
(527,689,o),
(593,624,o),
(593,534,cs),
(593,447,o),
(532,384,o),
(448,384,cs),
(369,384,o),
(323,412,o),
(268,495,cs),
(216,574,o),
(179,607,o),
(130,607,cs),
(105,607,o),
(72,595,o),
(72,557,cs),
(72,515,o),
(112,490,o),
(154,490,cs),
(203,490,o),
(247,511,o),
(274,554,c),
(317,494,l),
(284,423,o),
(228,384,o),
(160,384,cs),
(68,384,o),
(2,449,o),
(2,548,cs),
(2,626,o),
(63,689,o),
(147,689,cs),
(223,689,o),
(272,657,o),
(329,571,cs)
);
}
);
};
layerId = m01;
shapes = (
{
closed = 1;
nodes = (
(81,508,o),
(121,478,o),
(166,478,cs),
(199,478,o),
(231,495,o),
(255,521,c),
(212,578,o),
(177,598,o),
(140,598,cs),
(107,598,o),
(82,575,o),
(81,544,cs)
);
},
{
closed = 1;
nodes = (
(525,563,o),
(485,594,o),
(440,594,cs),
(407,594,o),
(374,576,o),
(350,550,c),
(394,493,o),
(428,473,o),
(465,473,cs),
(498,473,o),
(524,496,o),
(525,527,cs)
);
},
{
closed = 1;
nodes = (
(342,661,o),
(389,687,o),
(443,687,cs),
(534,687,o),
(593,621,o),
(592,529,cs),
(591,445,o),
(527,386,o),
(444,386,cs),
(384,386,o),
(348,403,o),
(299,457,c),
(264,411,o),
(218,386,o),
(163,386,cs),
(71,386,o),
(13,450,o),
(14,542,cs),
(15,626,o),
(80,687,o),
(162,687,cs),
(221,687,o),
(256,670,o),
(307,614,c)
);
}
);
width = 594;
}
);
unicode = 8734;
},
{
color = 11;
glyphname = integral;
lastChange = "2024-01-01 21:12:36 +0000";
layers = (
{
layerId = m01;
shapes = (
{
closed = 1;
nodes = (
(33,-100,l),
(220,-100,ls),
(341,-100,o),
(409,-10,o),
(409,150,cs),
(409,228,ls),
(409,355,o),
(395,387,o),
(290,501,cs),
(231,566,o),
(217,586,o),
(217,603,cs),
(217,622,o),
(238,636,o),
(265,636,cs),
(368,636,l),
(368,716,l),
(171,716,ls),
(72,716,o),
(25,686,o),
(25,625,cs),
(25,587,o),
(38,564,o),
(142,460,cs),
(207,395,o),
(219,374,o),
(219,359,cs),
(219,344,o),
(207,339,o),
(171,339,cs),
(33,339,l)
);
}
);
width = 425;
}
);
unicode = 8747;
},
{
color = 11;
glyphname = Ohm;
lastChange = "2024-01-01 21:12:36 +0000";
layers = (
{
layerId = m01;
shapes = (
{
closed = 1;
nodes = (
(330,0,l),
(329,439,l),
(276,439,o),
(277,475,o),
(277,508,cs),
(277,569,ls),
(277,609,o),
(294,636,o),
(344,636,cs),
(374,636,ls),
(424,636,o),
(441,609,o),
(441,569,cs),
(441,508,ls),
(441,475,o),
(440,439,o),
(387,439,c),
(388,0,l),
(680,0,l),
(680,434,l),
(555,434,l),
(555,445,l),
(575,445,o),
(643,477,o),
(643,582,cs),
(643,683,o),
(565,722,o),
(459,722,cs),
(259,722,ls),
(153,722,o),
(75,683,o),
(75,582,cs),
(75,477,o),
(143,445,o),
(163,445,c),
(163,434,l),
(38,434,l),
(38,0,l)
);
}
);
width = 718;
}
);
unicode = 8486;
},
{
color = 11;
glyphname = increment;
lastChange = "2024-01-01 21:12:36 +0000";
layers = (
{
layerId = m01;
shapes = (
{
closed = 1;
nodes = (
(-4,0,l),
(95,0,l),
(315,716,l),
(216,716,l)
);
},
{
closed = 1;
nodes = (
(217,716,l),
(437,0,l),
(665,0,l),
(445,716,l)
);
},
{
closed = 1;
nodes = (
(41,0,l),
(625,0,l),
(625,80,l),
(41,80,l)
);
}
);
width = 661;
}
);
unicode = 8710;
},
{
color = 11;
glyphname = product;
lastChange = "2024-01-01 21:12:36 +0000";
layers = (
{
anchors = (
{
name = bottom;
pos = (337,0);
},
{
name = center;
pos = (349,358);
},
{
name = top;
pos = (349,716);
},
{
name = topleft;
pos = (0,716);
}
);
layerId = m01;
shapes = (
{
closed = 1;
nodes = (
(671,0,l),
(671,434,l),
(621,434,o),
(604,460,o),
(604,500,cs),
(604,564,ls),
(604,604,o),
(621,636,o),
(671,636,c),
(671,716,l),
(29,716,l),
(29,636,l),
(79,636,o),
(96,604,o),
(96,564,cs),
(96,500,ls),
(96,460,o),
(79,434,o),
(29,434,c),
(29,0,l),
(321,0,l),
(321,439,l),
(271,439,o),
(254,460,o),
(254,500,cs),
(254,631,l),
(446,631,l),
(446,500,ls),
(446,460,o),
(429,439,o),
(379,439,c),
(379,0,l)
);
}
);
width = 700;
}
);
metricLeft = H;
metricRight = H;
unicode = 8719;
},
{
color = 11;
glyphname = summation;
lastChange = "2024-01-01 21:12:36 +0000";
layers = (
{
background = {
anchors = (
{
name = bottom;
pos = (296,0);
},
{
name = ogonek;
pos = (555,0);
},
{
name = top;
pos = (306,716);
}
);
shapes = (
{
closed = 1;
nodes = (
(555,0,l),
(555,500,l),
(465,500,l),
(465,460,o),
(448,439,o),
(398,439,cs),
(271,439,l),
(271,505,l),
(388,505,l),
(388,575,l),
(271,575,l),
(271,636,l),
(392,636,ls),
(442,636,o),
(459,609,o),
(459,569,c),
(549,569,l),
(549,716,l),
(37,716,l),
(37,636,l),
(87,636,o),
(105,604,o),
(105,564,cs),
(105,500,ls),
(105,460,o),
(88,434,o),
(38,434,c),
(37,0,l)
);
}
);
};
layerId = m01;
shapes = (
{
closed = 1;
nodes = (
(555,-100,l),
(555,400,l),
(465,400,l),
(465,360,o),
(448,339,o),
(398,339,cs),
(198,339,l),
(440,506,l),
(287,636,l),
(392,636,ls),
(442,636,o),
(459,609,o),
(459,569,c),
(549,569,l),
(549,716,l),
(37,716,l),
(37,636,l),
(228,477,l),
(37,334,l),
(37,-100,l)
);
}
);
width = 598;
}
);
unicode = 8721;
},
{
color = 11;
glyphname = radical;
lastChange = "2024-01-01 21:12:36 +0000";
layers = (
{
layerId = m01;
shapes = (
{
closed = 1;
nodes = (
(181,-100,l),
(376,-101,l),
(636,898,l),
(512,899,l),
(289,67,l),
(243,232,l),
(-3,232,l),
(-3,152,l),
(54,152,ls),
(104,152,o),
(122,119,o),
(133,80,cs)
);
}
);
width = 573;
}
);
unicode = 8730;
},
{
color = 11;
glyphname = partialdiff;
lastChange = "2024-01-01 21:12:36 +0000";
layers = (
{
background = {
shapes = (
{
closed = 1;
nodes = (
(444,0,o),
(545,122,o),
(569,357,cs),
(595,607,o),
(489,736,o),
(327,736,cs),
(283,736,o),
(238,730,o),
(180,716,c),
(172,644,l),
(195,649,o),
(217,652,o),
(238,652,cs),
(317,652,o),
(394,619,o),
(394,543,c),
(358,561,o),
(323,566,o),
(289,566,cs),
(145,566,o),
(34,458,o),
(16,288,cs),
(7,204,o),
(32,0,o),
(249,0,cs)
);
},
{
closed = 1;
nodes = (
(267,355,o),
(242,375,o),
(246,416,cs),
(251,458,o),
(285,481,o),
(327,481,cs),
(348,481,o),
(371,476,o),
(392,464,c),
(383,407,o),
(362,355,o),
(309,355,cs)
);
},
{
closed = 0;
nodes = (
(98,2102,l)
);
}
);
};
layerId = m01;
shapes = (
{
closed = 1;
nodes = (
(464,0,o),
(573,177,o),
(573,464,cs),
(573,634,o),
(502,736,o),
(327,736,cs),
(284,736,o),
(232,729,o),
(180,716,c),
(172,644,l),
(199,650,o),
(217,652,o),
(238,652,cs),
(331,652,o),
(394,608,o),
(394,543,c),
(366,558,o),
(329,566,o),
(289,566,cs),
(135,566,o),
(15,431,o),
(15,258,cs),
(15,100,o),
(106,0,o),
(249,0,cs)
);
},
{
closed = 1;
nodes = (
(275,355,o),
(245,381,o),
(245,412,cs),
(245,454,o),
(277,481,o),
(327,481,cs),
(350,481,o),
(373,475,o),
(392,464,c),
(392,403,o),
(357,355,o),
(311,355,cs)
);
},
{
closed = 0;
nodes = (
(98,2102,l)
);
}
);
width = 593;
}
);
unicode = 8706;
},
{
color = 11;
glyphname = micro;
lastChange = "2024-01-01 21:12:36 +0000";
layers = (
{
layerId = m01;
shapes = (
{
closed = 1;
nodes = (
(599,0,l),
(599,287,l),
(549,287,o),
(532,313,o),
(532,351,cs),
(532,578,l),
(472,578,l),
(289,556,l),
(289,484,l),
(339,484,o),
(356,470,o),
(356,435,cs),
(356,103,ls),
(356,54,o),
(373,0,o),
(468,0,cs)
);
},
{
closed = 1;
nodes = (
(204,-100,l),
(204,253,l),
(46,253,l),
(46,-100,l)
);
},
{
closed = 1;
nodes = (
(239,0,ls),
(309,0,o),
(338,54,o),
(338,103,c),
(423,103,l),
(423,317,l),
(356,351,l),
(356,313,o),
(339,287,o),
(289,287,cs),
(239,287,o),
(222,313,o),
(222,351,cs),
(222,578,l),
(162,578,l),
(-21,556,l),
(-21,484,l),
(29,484,o),
(46,470,o),
(46,435,cs),
(46,103,ls),
(46,54,o),
(63,0,o),
(158,0,cs)
);
}
);
width = 624;
}
);
unicode = 181;
},
{
color = 11;
glyphname = percent;
lastChange = "2024-01-01 21:12:36 +0000";
layers = (
{
layerId = m01;
shapes = (
{
closed = 1;
nodes = (
(586,0,ls),
(663,0,o),
(697,34,o),
(697,126,cs),
(697,197,ls),
(697,281,o),
(663,313,o),
(586,313,cs),
(508,313,ls),
(426,313,o),
(392,281,o),
(392,197,cs),
(392,126,ls),
(392,35,o),
(426,0,o),
(508,0,cs)
);
},
{
closed = 1;
nodes = (
(493,206,ls),
(493,223,o),
(501,235,o),
(522,235,cs),
(567,235,ls),
(589,235,o),
(596,223,o),
(596,206,cs),
(596,188,ls),
(596,170,o),
(589,159,o),
(567,159,cs),
(522,159,ls),
(501,159,o),
(493,172,o),
(493,188,cs)
);
},
{
closed = 1;
nodes = (
(599,721,l),
(481,722,l),
(97,0,l),
(215,0,l)
);
},
{
closed = 1;
nodes = (
(193,409,ls),
(270,409,o),
(304,443,o),
(304,535,cs),
(304,606,ls),
(304,690,o),
(270,722,o),
(193,722,cs),
(115,722,ls),
(33,722,o),
(-1,690,o),
(-1,606,cs),
(-1,535,ls),
(-1,444,o),
(33,409,o),
(115,409,cs)
);
},
{
closed = 1;
nodes = (
(100,615,ls),
(100,632,o),
(108,644,o),
(129,644,cs),
(174,644,ls),
(196,644,o),
(203,632,o),
(203,615,cs),
(203,597,ls),
(203,579,o),
(196,568,o),
(174,568,cs),
(129,568,ls),
(108,568,o),
(100,581,o),
(100,597,cs)
);
}
);
width = 710;
}
);
unicode = 37;
},
{
color = 11;
glyphname = perthousand;
lastChange = "2024-01-01 21:12:36 +0000";
layers = (
{
layerId = m01;
shapes = (
{
closed = 1;
nodes = (
(586,0,ls),
(663,0,o),
(697,34,o),
(697,126,cs),
(697,197,ls),
(697,281,o),
(663,313,o),
(586,313,cs),
(508,313,ls),
(426,313,o),
(392,281,o),
(392,197,cs),
(392,126,ls),
(392,35,o),
(426,0,o),
(508,0,cs)
);
},
{
closed = 1;
nodes = (
(493,206,ls),
(493,223,o),
(501,235,o),
(522,235,cs),
(567,235,ls),
(589,235,o),
(596,223,o),
(596,206,cs),
(596,188,ls),
(596,170,o),
(589,159,o),
(567,159,cs),
(522,159,ls),
(501,159,o),
(493,172,o),
(493,188,cs)
);
},
{
closed = 1;
nodes = (
(599,721,l),
(481,722,l),
(97,0,l),
(215,0,l)
);
},
{
closed = 1;
nodes = (
(929,0,ls),
(1006,0,o),
(1040,34,o),
(1040,126,cs),
(1040,197,ls),
(1040,281,o),
(1006,313,o),
(929,313,cs),
(851,313,ls),
(769,313,o),
(735,281,o),
(735,197,cs),
(735,126,ls),
(735,35,o),
(769,0,o),
(851,0,cs)
);
},
{
closed = 1;
nodes = (
(836,206,ls),
(836,223,o),
(844,235,o),
(865,235,cs),
(910,235,ls),
(932,235,o),
(939,223,o),
(939,206,cs),
(939,188,ls),
(939,170,o),
(932,159,o),
(910,159,cs),
(865,159,ls),
(844,159,o),
(836,172,o),
(836,188,cs)
);
},
{
closed = 1;
nodes = (
(193,409,ls),
(270,409,o),
(304,443,o),
(304,535,cs),
(304,606,ls),
(304,690,o),
(270,722,o),
(193,722,cs),
(115,722,ls),
(33,722,o),
(-1,690,o),
(-1,606,cs),
(-1,535,ls),
(-1,444,o),
(33,409,o),
(115,409,cs)
);
},
{
closed = 1;
nodes = (
(100,615,ls),
(100,632,o),
(108,644,o),
(129,644,cs),
(174,644,ls),
(196,644,o),
(203,632,o),
(203,615,cs),
(203,597,ls),
(203,579,o),
(196,568,o),
(174,568,cs),
(129,568,ls),
(108,568,o),
(100,581,o),
(100,597,cs)
);
}
);
width = 1053;
}
);
unicode = 8240;
},
{
color = 11;
glyphname = upArrow;
lastChange = "2024-01-01 21:12:36 +0000";
layers = (
{
layerId = m01;
shapes = (
{
closed = 1;
nodes = (
(19,432,l),
(560,434,l),
(291,704,l)
);
},
{
closed = 1;
nodes = (
(239,125,l),
(339,125,l),
(338,448,l),
(239,448,l)
);
}
);
width = 579;
}
);
unicode = 8593;
},
{
color = 11;
glyphname = blackCircle;
lastChange = "2024-01-01 21:12:36 +0000";
layers = (
{
layerId = m01;
shapes = (
{
closed = 1;
nodes = (
(555,103,o),
(718,267,o),
(718,459,cs),
(718,653,o),
(564,798,o),
(371,798,cs),
(178,798,o),
(24,643,o),
(24,450,cs),
(24,258,o),
(168,103,o),
(362,103,cs)
);
}
);
width = 742;
}
);
unicode = 9679;
},
{
color = 11;
glyphname = whiteCircle;
lastChange = "2024-01-01 21:12:36 +0000";
layers = (
{
layerId = m01;
shapes = (
{
closed = 1;
nodes = (
(555,103,o),
(718,267,o),
(718,459,cs),
(718,653,o),
(564,798,o),
(371,798,cs),
(178,798,o),
(24,643,o),
(24,450,cs),
(24,258,o),
(168,103,o),
(362,103,cs)
);
},
{
closed = 1;
nodes = (
(213,180,o),
(101,301,o),
(101,450,cs),
(101,600,o),
(221,721,o),
(371,721,cs),
(521,721,o),
(641,608,o),
(641,457,cs),
(641,307,o),
(514,180,o),
(364,180,cs)
);
}
);
width = 742;
}
);
unicode = 9675;
},
{
color = 11;
glyphname = whiteBullet;
lastChange = "2024-01-01 21:12:36 +0000";
layers = (
{
layerId = m01;
shapes = (
{
closed = 1;
nodes = (
(352,103,o),
(454,205,o),
(454,325,cs),
(454,446,o),
(358,537,o),
(237,537,cs),
(116,537,o),
(20,440,o),
(20,319,cs),
(20,200,o),
(110,103,o),
(230,103,cs)
);
},
{
closed = 1;
nodes = (
(156,182,o),
(100,244,o),
(100,319,cs),
(100,395,o),
(162,457,o),
(237,457,cs),
(312,457,o),
(375,400,o),
(375,324,cs),
(375,246,o),
(309,182,o),
(233,182,cs)
);
}
);
width = 474;
}
);
unicode = 9702;
},
{
color = 11;
glyphname = blackDiamond;
lastChange = "2024-01-01 21:12:36 +0000";
layers = (
{
layerId = m01;
shapes = (
{
closed = 1;
nodes = (
(506,321,l),
(259,568,l),
(10,321,l),
(259,72,l)
);
}
);
width = 516;
}
);
unicode = 9670;
},
{
color = 11;
glyphname = whiteDiamond;
lastChange = "2024-01-01 21:12:36 +0000";
layers = (
{
layerId = m01;
shapes = (
{
closed = 1;
nodes = (
(506,321,l),
(259,568,l),
(10,321,l),
(259,72,l)
);
},
{
closed = 1;
nodes = (
(128,321,l),
(259,450,l),
(388,321,l),
(259,190,l)
);
}
);
width = 516;
}
);
unicode = 9671;
},
{
color = 11;
glyphname = lozenge;
lastChange = "2024-01-01 21:12:36 +0000";
layers = (
{
layerId = m01;
shapes = (
{
closed = 1;
nodes = (
(607,360,l),
(310,716,l),
(10,360,l),
(310,0,l)
);
},
{
closed = 1;
nodes = (
(168,360,l),
(310,527,l),
(449,360,l),
(310,189,l)
);
}
);
width = 617;
}
);
unicode = 9674;
},
{
color = 11;
glyphname = blackSquare;
lastChange = "2024-01-01 21:12:36 +0000";
layers = (
{
layerId = m01;
shapes = (
{
closed = 1;
nodes = (
(663,134,l),
(663,768,l),
(29,768,l),
(29,134,l)
);
}
);
width = 692;
}
);
unicode = 9632;
},
{
color = 11;
glyphname = whiteSquare;
lastChange = "2024-01-01 21:12:36 +0000";
layers = (
{
layerId = m01;
shapes = (
{
closed = 1;
nodes = (
(663,134,l),
(663,768,l),
(29,768,l),
(29,134,l)
);
},
{
closed = 1;
nodes = (
(100,697,l),
(592,697,l),
(592,205,l),
(100,205,l)
);
}
);
width = 692;
}
);
unicode = 9633;
},
{
color = 11;
glyphname = blackSmallSquare;
lastChange = "2024-01-01 21:12:36 +0000";
layers = (
{
layerId = m01;
shapes = (
{
closed = 1;
nodes = (
(319,434,l),
(319,144,l),
(29,144,l),
(29,434,l)
);
}
);
width = 348;
}
);
unicode = 9642;
},
{
color = 11;
glyphname = whiteSmallSquare;
lastChange = "2024-01-01 21:12:36 +0000";
layers = (
{
layerId = m01;
shapes = (
{
closed = 1;
nodes = (
(319,144,l),
(319,434,l),
(29,434,l),
(29,144,l)
);
},
{
closed = 1;
nodes = (
(107,356,l),
(241,356,l),
(241,222,l),
(107,222,l)
);
}
);
width = 348;
}
);
unicode = 9643;
},
{
color = 11;
glyphname = upBlackTriangle;
lastChange = "2024-01-01 21:12:36 +0000";
layers = (
{
layerId = m01;
shapes = (
{
closed = 1;
nodes = (
(29,144,l),
(733,141,l),
(370,716,l)
);
}
);
width = 762;
}
);
unicode = 9650;
},
{
color = 11;
glyphname = upWhiteTriangle;
lastChange = "2024-01-01 21:12:36 +0000";
layers = (
{
layerId = m01;
shapes = (
{
attr = {
strokePos = "1";
};
closed = 1;
nodes = (
(603.865,203.551,l),
(153.67,205.469,l),
(371.733,571.253,l)
);
},
{
attr = {
strokePos = "1";
};
closed = 1;
nodes = (
(29,135,l),
(733,132,l),
(370,707,l)
);
}
);
width = 762;
}
);
unicode = 9651;
},
{
color = 11;
glyphname = upBlackSmallTriangle;
lastChange = "2024-01-01 21:12:36 +0000";
layers = (
{
layerId = m01;
shapes = (
{
closed = 1;
nodes = (
(19,144,l),
(377,143,l),
(192,435,l)
);
}
);
width = 396;
}
);
unicode = 9652;
},
{
color = 11;
glyphname = upWhiteSmallTriangle;
lastChange = "2024-01-01 21:12:36 +0000";
layers = (
{
layerId = m01;
shapes = (
{
attr = {
strokePos = "1";
};
closed = 1;
nodes = (
(247.738,214.361,l),
(143.602,214.652,l),
(193.925,299.299,l)
);
},
{
attr = {
strokePos = "1";
};
closed = 1;
nodes = (
(19,144,l),
(377,143,l),
(192,435,l)
);
}
);
width = 396;
}
);
unicode = 9653;
},
{
color = 11;
glyphname = rightWhiteSmallTriangle;
lastChange = "2024-01-01 21:12:36 +0000";
layers = (
{
layerId = m01;
shapes = (
{
attr = {
strokePos = "1";
};
closed = 1;
nodes = (
(100.361,197.262,l),
(100.652,301.398,l),
(185.299,251.075,l)
);
},
{
attr = {
strokePos = "1";
};
closed = 1;
nodes = (
(30,426,l),
(29,68,l),
(321,253,l)
);
}
);
width = 350;
}
);
unicode = 9657;
},
{
glyphname = rbelowcomb;
lastChange = "2023-12-15 14:48:16 +0000";
layers = (
{
layerId = m01;
shapes = (
{
closed = 1;
nodes = (
(137,-80,l),
(137,95,l),
(118,95,o),
(111,103,o),
(111,120,cs),
(111,131,ls),
(111,149,o),
(120,155,o),
(155,155,c),
(155,206,l),
(110,206,ls),
(67,206,o),
(48,190,o),
(48,156,cs),
(48,119,ls),
(48,101,o),
(38,94,o),
(20,94,c),
(20,-80,l)
);
}
);
width = 175;
}
);
metricLeft = period;
metricRight = period;
unicode = 7626;
},
{
glyphname = dieresiscomb;
lastChange = "2023-12-15 14:48:16 +0000";
layers = (
{
anchors = (
{
name = _top;
pos = (129,729);
},
{
name = top;
pos = (132,865);
}
);
layerId = m01;
shapes = (
{
closed = 1;
nodes = (
(240,758,o),
(266,786,o),
(266,818,cs),
(266,851,o),
(244,879,o),
(206,879,cs),
(184,879,o),
(145,858,o),
(145,818,cs),
(145,788,o),
(173,758,o),
(205,758,cs)
);
},
{
closed = 1;
nodes = (
(84,758,o),
(123,779,o),
(123,819,cs),
(123,849,o),
(95,879,o),
(63,879,cs),
(28,879,o),
(2,851,o),
(2,819,cs),
(2,786,o),
(24,758,o),
(62,758,cs)
);
}
);
width = 268;
}
);
unicode = 776;
},
{
color = 8;
glyphname = dotaccentcomb;
lastChange = "2023-12-15 14:48:08 +0000";
layers = (
{
anchors = (
{
name = _top;
pos = (59,722);
},
{
name = top;
pos = (59,856);
}
);
layerId = m01;
shapes = (
{
closed = 1;
nodes = (
(84,751,o),
(123,772,o),
(123,812,cs),
(123,842,o),
(95,872,o),
(63,872,cs),
(28,872,o),
(2,844,o),
(2,812,cs),
(2,779,o),
(24,751,o),
(62,751,cs)
);
}
);
width = 124;
}
);
unicode = 775;
},
{
glyphname = gravecomb;
lastChange = "2023-12-15 14:48:16 +0000";
layers = (
{
anchors = (
{
name = _top;
pos = (160,716);
},
{
name = top;
pos = (124,851);
}
);
layerId = m01;
shapes = (
{
closed = 1;
nodes = (
(213,754,l),
(140,868,l),
(10,870,l),
(114,754,l)
);
}
);
width = 223;
}
);
unicode = 768;
},
{
glyphname = acutecomb;
lastChange = "2023-12-15 14:48:16 +0000";
layers = (
{
anchors = (
{
name = _top;
pos = (59,716);
},
{
name = top;
pos = (66,863);
}
);
layerId = m01;
shapes = (
{
closed = 1;
nodes = (
(105,753,l),
(212,867,l),
(86,869,l),
(10,752,l)
);
}
);
width = 222;
}
);
unicode = 769;
},
{
glyphname = acutecomb_macroncomb;
lastChange = "2023-12-15 14:48:16 +0000";
layers = (
{
anchors = (
{
name = _top;
pos = (221,900);
},
{
name = top;
pos = (221,0);
}
);
layerId = m01;
shapes = (
{
closed = 1;
nodes = (
(103,650,l),
(197,784,l),
(76,783,l),
(10,650,l)
);
},
{
pos = (375,59);
ref = macroncomb;
scale = (-1,1);
}
);
width = 370;
}
);
},
{
glyphname = hungarumlautcomb;
lastChange = "2023-12-15 14:48:16 +0000";
layers = (
{
anchors = (
{
name = _top;
pos = (126,612);
},
{
name = top;
pos = (10,0);
}
);
layerId = m01;
shapes = (
{
closed = 1;
nodes = (
(96,649,l),
(183,765,l),
(70,767,l),
(10,649,l)
);
},
{
closed = 1;
nodes = (
(233,649,l),
(320,769,l),
(202,768,l),
(155,649,l)
);
}
);
width = 330;
}
);
unicode = 779;
},
{
glyphname = caroncomb.alt;
lastChange = "2023-12-15 14:48:16 +0000";
layers = (
{
anchors = (
{
name = _topright;
pos = (150,716);
}
);
layerId = m01;
shapes = (
{
closed = 1;
nodes = (
(196,760,l),
(229,870,l),
(155,867,l),
(132,760,l)
);
}
);
width = 300;
}
);
},
{
glyphname = circumflexcomb;
lastChange = "2023-12-15 14:48:16 +0000";
layers = (
{
anchors = (
{
name = _top;
pos = (150,720);
},
{
name = top;
pos = (148,881);
}
);
layerId = m01;
shapes = (
{
closed = 1;
nodes = (
(292,753,l),
(214,884,l),
(84,884,l),
(10,757,l),
(92,757,l),
(148,820,l),
(212,753,l)
);
}
);
width = 302;
}
);
unicode = 770;
},
{
glyphname = caroncomb;
lastChange = "2023-12-15 14:48:16 +0000";
layers = (
{
anchors = (
{
name = _top;
pos = (145,711);
},
{
name = top;
pos = (142,858);
}
);
layerId = m01;
shapes = (
{
closed = 1;
nodes = (
(210,753,l),
(281,882,l),
(203,882,l),
(145,811,l),
(90,878,l),
(10,878,l),
(77,753,l)
);
}
);
width = 291;
}
);
unicode = 780;
},
{
glyphname = brevecomb;
lastChange = "2023-12-15 14:48:16 +0000";
layers = (
{
anchors = (
{
name = _top;
pos = (143,716);
}
);
layerId = m01;
shapes = (
{
closed = 1;
nodes = (
(187,745,o),
(227,761,o),
(252,794,cs),
(266,814,o),
(270,823,o),
(272,871,c),
(199,871,l),
(196,854,o),
(196,843,o),
(187,833,cs),
(179,823,o),
(166,815,o),
(150,815,cs),
(129,815,o),
(111,837,o),
(106,863,cs),
(104,873,l),
(30,872,l),
(30,832,o),
(45,805,o),
(57,788,cs),
(76,759,o),
(113,745,o),
(153,745,cs)
);
}
);
width = 302;
}
);
unicode = 774;
},
{
glyphname = ringcomb;
lastChange = "2023-12-15 14:48:16 +0000";
layers = (
{
anchors = (
{
name = _top;
pos = (146,716);
},
{
name = top;
pos = (154,877);
}
);
layerId = m01;
shapes = (
{
closed = 1;
nodes = (
(236,751,ls),
(256,751,o),
(273,780,o),
(273,801,cs),
(273,851,ls),
(273,875,o),
(254,896,o),
(236,896,cs),
(72,896,ls),
(54,896,o),
(37,880,o),
(37,861,cs),
(37,787,ls),
(37,770,o),
(54,751,o),
(71,751,cs)
);
},
{
closed = 1;
nodes = (
(113,811,o),
(103,813,o),
(103,822,cs),
(103,830,ls),
(103,841,o),
(112,845,o),
(121,845,cs),
(194,845,ls),
(202,845,o),
(210,840,o),
(210,830,cs),
(210,822,ls),
(210,813,o),
(202,811,o),
(193,811,cs),
(121,811,ls)
);
}
);
width = 300;
}
);
unicode = 778;
},
{
glyphname = tildecomb;
lastChange = "2023-12-15 14:48:16 +0000";
layers = (
{
anchors = (
{
name = _top;
pos = (133,716);
},
{
name = top;
pos = (139,874);
}
);
layerId = m01;
shapes = (
{
closed = 1;
nodes = (
(217,752,o),
(236,760,o),
(249,777,cs),
(264,799,o),
(275,830,o),
(275,877,c),
(203,877,l),
(199,855,o),
(201,833,o),
(175,833,cs),
(159,833,o),
(146,845,o),
(133,855,cs),
(118,865,o),
(101,879,o),
(72,879,cs),
(52,879,o),
(30,870,o),
(18,851,cs),
(6,831,o),
(0,802,o),
(0,762,c),
(72,760,l),
(75,780,o),
(78,791,o),
(92,794,cs),
(108,797,o),
(116,778,o),
(139,764,cs),
(154,755,o),
(171,752,o),
(190,752,cs)
);
}
);
width = 275;
}
);
unicode = 771;
},
{
glyphname = macroncomb;
lastChange = "2023-12-15 14:48:16 +0000";
layers = (
{
anchors = (
{
name = _top;
pos = (154,612);
},
{
name = top;
pos = (154,723);
}
);
layerId = m01;
shapes = (
{
closed = 1;
nodes = (
(300,654,l),
(299,726,l),
(10,728,l),
(10,653,l)
);
}
);
width = 310;
}
);
unicode = 772;
},
{
glyphname = macroncomb_gravecomb;
lastChange = "2023-12-15 14:48:16 +0000";
layers = (
{
anchors = (
{
name = _top;
pos = (0,900);
},
{
name = top;
pos = (1,0);
}
);
layerId = m01;
shapes = (
{
closed = 1;
nodes = (
(290,650,l),
(289,713,l),
(10,715,l),
(10,649,l)
);
}
);
width = 300;
}
);
},
{
glyphname = hookabovecomb;
lastChange = "2023-12-15 14:48:16 +0000";
layers = (
{
anchors = (
{
name = _top;
pos = (86,715);
}
);
layerId = m01;
shapes = (
{
closed = 1;
nodes = (
(127,752,l),
(161,775,o),
(183,806,o),
(183,845,cs),
(183,885,o),
(146,926,o),
(86,926,cs),
(52,926,o),
(13,913,o),
(-10,896,c),
(-10,823,l),
(9,845,o),
(30,857,o),
(54,857,cs),
(69,857,o),
(95,853,o),
(95,825,cs),
(95,803,o),
(70,769,o),
(47,752,c)
);
}
);
width = 221;
}
);
unicode = 777;
},
{
glyphname = verticallineabovecomb;
lastChange = "2023-12-15 14:48:16 +0000";
layers = (
{
layerId = m01;
shapes = (
{
closed = 1;
nodes = (
(84,610,l),
(86,889,l),
(20,889,l),
(21,609,l)
);
}
);
width = 106;
}
);
metricLeft = period;
metricRight = period;
unicode = 781;
},
{
glyphname = dblgravecomb;
lastChange = "2023-12-15 14:48:16 +0000";
layers = (
{
anchors = (
{
name = _top;
pos = (204,716);
},
{
name = top;
pos = (204,861);
}
);
layerId = m01;
shapes = (
{
closed = 1;
nodes = (
(176,753,l),
(122,866,l),
(10,868,l),
(103,749,l)
);
},
{
closed = 1;
nodes = (
(309,750,l),
(256,864,l),
(144,866,l),
(237,750,l)
);
}
);
width = 319;
}
);
unicode = 783;
},
{
glyphname = candraBinducomb;
lastChange = "2023-12-15 14:48:16 +0000";
layers = (
{
anchors = (
{
name = _top;
pos = (293,636);
},
{
name = top;
}
);
layerId = m01;
shapes = (
{
closed = 1;
nodes = (
(339,717,o),
(385,733,o),
(413,766,cs),
(429,786,o),
(434,795,o),
(436,843,c),
(363,843,l),
(359,826,o),
(359,815,o),
(348,805,cs),
(336,795,o),
(318,787,o),
(296,787,cs),
(267,787,o),
(243,809,o),
(236,835,cs),
(233,845,l),
(159,844,l),
(159,804,o),
(176,777,o),
(190,760,cs),
(212,731,o),
(254,717,o),
(300,717,cs)
);
},
{
closed = 1;
nodes = (
(318,827,o),
(338,846,o),
(338,866,cs),
(338,889,o),
(321,906,o),
(298,906,cs),
(272,906,o),
(258,886,o),
(258,866,cs),
(258,845,o),
(280,827,o),
(298,827,cs)
);
},
{
closed = 0;
nodes = (
(4478,2040,l)
);
}
);
width = 600;
}
);
unicode = 784;
},
{
glyphname = commaabovecomb;
lastChange = "2023-12-15 14:48:16 +0000";
layers = (
{
anchors = (
{
name = _top;
pos = (33,716);
},
{
name = top;
pos = (69,887);
}
);
layerId = m01;
shapes = (
{
closed = 1;
nodes = (
(155,885,l),
(69,887,l),
(20,776,l),
(74,774,l)
);
}
);
width = 175;
}
);
metricLeft = period;
metricRight = period;
unicode = 787;
},
{
glyphname = horncomb;
lastChange = "2023-12-15 14:48:16 +0000";
layers = (
{
anchors = (
{
name = _horn;
pos = (152,439);
}
);
layerId = m01;
shapes = (
{
closed = 1;
nodes = (
(121,439,ls),
(208,439,o),
(265,508,o),
(265,589,c),
(147,589,l),
(147,549,o),
(130,519,o),
(85,519,c),
(10,519,l),
(10,439,l)
);
}
);
width = 274;
}
);
unicode = 795;
},
{
glyphname = dotbelowcomb;
lastChange = "2023-12-15 14:48:16 +0000";
layers = (
{
anchors = (
{
name = _bottom;
pos = (70,-8);
}
);
layerId = m01;
shapes = (
{
closed = 1;
nodes = (
(92,-160,o),
(131,-139,o),
(131,-99,cs),
(131,-69,o),
(103,-39,o),
(71,-39,cs),
(36,-39,o),
(10,-67,o),
(10,-99,cs),
(10,-132,o),
(32,-160,o),
(70,-160,cs)
);
}
);
width = 141;
}
);
unicode = 803;
},
{
glyphname = commaaccentcomb;
lastChange = "2023-12-15 14:48:16 +0000";
layers = (
{
anchors = (
{
name = _bottom;
pos = (151,0);
},
{
name = bottom;
pos = (142,-180);
}
);
layerId = m01;
shapes = (
{
closed = 1;
nodes = (
(200,-262,o),
(232,-174,o),
(232,-127,cs),
(232,-48,o),
(175,-31,o),
(143,-32,cs),
(101,-31,o),
(63,-65,o),
(63,-114,cs),
(63,-161,o),
(98,-196,o),
(143,-191,c),
(143,-211,o),
(133,-247,o),
(95,-270,c),
(98,-275,l)
);
}
);
width = 300;
}
);
unicode = 806;
},
{
glyphname = cedillacomb;
lastChange = "2023-12-15 14:48:16 +0000";
layers = (
{
anchors = (
{
name = _bottom;
pos = (100,0);
},
{
name = bottom;
pos = (-81,0);
}
);
layerId = m01;
shapes = (
{
closed = 1;
nodes = (
(152,-209,o),
(201,-169,o),
(201,-113,cs),
(201,-77,o),
(180,-42,o),
(132,-31,c),
(161,0,l),
(71,0,l),
(29,-62,l),
(77,-63,o),
(114,-84,o),
(114,-113,cs),
(114,-135,o),
(95,-146,o),
(73,-146,cs),
(52,-146,o),
(26,-131,o),
(10,-107,c),
(10,-178,l),
(29,-196,o),
(64,-209,o),
(95,-209,cs)
);
}
);
width = 211;
}
);
unicode = 807;
},
{
glyphname = ogonekcomb;
lastChange = "2023-12-15 14:48:16 +0000";
layers = (
{
anchors = (
{
name = _ogonek;
pos = (226,0);
}
);
layerId = m01;
shapes = (
{
closed = 1;
nodes = (
(195,-168,o),
(230,-155,o),
(249,-138,c),
(249,-80,l),
(233,-94,o),
(215,-104,o),
(195,-104,cs),
(168,-103,o),
(148,-91,o),
(143,-63,cs),
(140,-42,o),
(161,0,o),
(226,0,c),
(99,0,l),
(77,-16,o),
(58,-43,o),
(58,-77,cs),
(58,-134,o),
(107,-168,o),
(164,-168,cs)
);
}
);
width = 300;
}
);
unicode = 808;
},
{
glyphname = verticallinebelowcomb;
lastChange = "2023-12-15 14:48:16 +0000";
layers = (
{
anchors = (
{
name = _bottom;
},
{
name = bottom;
}
);
layerId = m01;
shapes = (
{
closed = 1;
nodes = (
(325,-69,l),
(277,-69,l),
(259,-210,l),
(342,-212,l)
);
}
);
width = 600;
}
);
unicode = 809;
},
{
glyphname = circumflexbelowcomb;
lastChange = "2023-12-15 14:48:16 +0000";
layers = (
{
anchors = (
{
name = _bottom;
pos = (280,0);
},
{
name = bottom;
pos = (281,0);
}
);
layerId = m01;
shapes = (
{
closed = 1;
nodes = (
(415,-165,l),
(338,-34,l),
(210,-35,l),
(138,-163,l),
(219,-165,l),
(272,-91,l),
(335,-166,l)
);
}
);
width = 600;
}
);
unicode = 813;
},
{
glyphname = tildebelowcomb;
lastChange = "2023-12-15 14:48:16 +0000";
layers = (
{
anchors = (
{
name = _bottom;
pos = (191,0);
},
{
name = bottom;
pos = (172,-168);
}
);
layerId = m01;
shapes = (
{
closed = 1;
nodes = (
(252,-168,o),
(271,-160,o),
(284,-143,cs),
(299,-121,o),
(310,-90,o),
(310,-43,c),
(238,-43,l),
(234,-65,o),
(236,-87,o),
(210,-87,cs),
(194,-87,o),
(181,-75,o),
(168,-65,cs),
(153,-55,o),
(136,-41,o),
(107,-41,cs),
(87,-41,o),
(65,-50,o),
(53,-69,cs),
(41,-89,o),
(35,-118,o),
(35,-158,c),
(107,-160,l),
(110,-140,o),
(113,-129,o),
(127,-126,cs),
(143,-123,o),
(151,-142,o),
(174,-156,cs),
(189,-165,o),
(206,-168,o),
(225,-168,cs)
);
}
);
width = 344;
}
);
unicode = 816;
},
{
glyphname = lowlinecomb;
lastChange = "2023-12-15 14:48:16 +0000";
layers = (
{
anchors = (
{
name = _bottom;
pos = (185,0);
},
{
name = bottom;
pos = (185,-154);
}
);
layerId = m01;
shapes = (
{
closed = 1;
nodes = (
(338,-154,l),
(338,-100,l),
(32,-100,l),
(32,-154,l)
);
}
);
width = 370;
}
);
unicode = 818;
},
{
glyphname = tildeoverlaycomb;
lastChange = "2023-12-15 14:48:16 +0000";
layers = (
{
anchors = (
{
name = _center;
pos = (172,355);
}
);
layerId = m01;
shapes = (
{
closed = 1;
nodes = (
(257,291,o),
(279,299,o),
(296,319,cs),
(313,339,o),
(325,370,o),
(325,417,c),
(245,417,l),
(241,395,o),
(243,373,o),
(215,373,cs),
(197,373,o),
(187,382,o),
(169,394,cs),
(147,409,o),
(127,419,o),
(101,419,cs),
(76,419,o),
(54,410,o),
(40,390,cs),
(26,370,o),
(20,340,o),
(20,302,c),
(100,300,l),
(103,320,o),
(108,334,o),
(122,334,cs),
(145,334,o),
(150,327,o),
(170,310,cs),
(187,296,o),
(214,291,o),
(234,291,cs)
);
}
);
width = 345;
}
);
metricLeft = period;
metricRight = period;
unicode = 820;
},
{
glyphname = strokeshortcomb;
lastChange = "2023-12-15 14:48:16 +0000";
layers = (
{
anchors = (
{
name = _center;
pos = (157,540);
}
);
layerId = m01;
shapes = (
{
closed = 1;
nodes = (
(302,505,l),
(302,575,l),
(10,575,l),
(10,505,l)
);
}
);
width = 312;
}
);
unicode = 821;
},
{
glyphname = dotaboverightcomb;
lastChange = "2023-12-15 14:48:16 +0000";
layers = (
{
layerId = m01;
shapes = (
{
closed = 1;
nodes = (
(128,607,l),
(128,716,l),
(32,716,l),
(32,607,l)
);
}
);
width = 160;
}
);
unicode = 856;
},
{
glyphname = acutemacroncomb;
lastChange = "2023-12-15 14:48:16 +0000";
layers = (
{
anchors = (
{
name = _top;
pos = (208,900);
},
{
name = top;
pos = (208,716);
}
);
layerId = m01;
shapes = (
{
closed = 1;
nodes = (
(200,604,l),
(383,604,l),
(383,716,l),
(232,716,l),
(170,716,l),
(32,576,l),
(71,487,l)
);
}
);
width = 415;
}
);
unicode = 7623;
},
{
glyphname = brevecomb_acutecomb;
lastChange = "2023-12-15 14:48:16 +0000";
layers = (
{
layerId = m01;
shapes = (
{
closed = 1;
nodes = (
(184,900,l),
(272,993,l),
(177,995,l),
(115,899,l)
);
},
{
pos = (4,0);
ref = brevecomb;
}
);
width = 302;
}
);
},
{
glyphname = brevecomb_gravecomb;
lastChange = "2023-12-15 14:48:16 +0000";
layers = (
{
anchors = (
{
name = _top;
pos = (149,716);
}
);
layerId = m01;
shapes = (
{
closed = 1;
nodes = (
(190,901,l),
(129,996,l),
(29,998,l),
(116,901,l)
);
},
{
ref = brevecomb;
}
);
width = 302;
}
);
},
{
glyphname = brevecomb_tildecomb;
lastChange = "2023-12-15 14:48:16 +0000";
layers = (
{
anchors = (
{
name = _top;
pos = (123,716);
},
{
name = top;
pos = (112,855);
}
);
layerId = m01;
shapes = (
{
closed = 1;
nodes = (
(167,745,o),
(207,761,o),
(232,794,cs),
(246,814,o),
(250,823,o),
(252,871,c),
(179,871,l),
(176,854,o),
(176,843,o),
(167,833,cs),
(159,823,o),
(146,815,o),
(130,815,cs),
(109,815,o),
(87,833,o),
(87,854,cs),
(85,873,l),
(10,872,l),
(10,832,o),
(25,805,o),
(37,788,cs),
(56,759,o),
(93,745,o),
(133,745,cs)
);
},
{
closed = 1;
nodes = (
(214,893,o),
(232,900,o),
(244,916,cs),
(258,937,o),
(269,966,o),
(269,1010,c),
(201,1010,l),
(197,990,o),
(199,969,o),
(175,969,cs),
(160,969,o),
(147,980,o),
(135,990,cs),
(121,999,o),
(105,1012,o),
(78,1012,cs),
(59,1012,o),
(38,1004,o),
(27,986,cs),
(16,967,o),
(10,940,o),
(10,902,c),
(78,900,l),
(81,919,o),
(83,929,o),
(97,932,cs),
(112,935,o),
(119,917,o),
(141,904,cs),
(155,896,o),
(171,893,o),
(189,893,cs)
);
}
);
width = 279;
}
);
},
{
glyphname = circumflexcomb_acutecomb;
lastChange = "2023-12-15 14:48:16 +0000";
layers = (
{
anchors = (
{
name = _top;
pos = (216,716);
},
{
name = top;
pos = (66,0);
}
);
layerId = m01;
shapes = (
{
closed = 1;
nodes = (
(357,750,l),
(279,881,l),
(149,881,l),
(75,754,l),
(157,754,l),
(213,817,l),
(277,750,l)
);
},
{
closed = 1;
nodes = (
(87,863,l),
(175,956,l),
(72,958,l),
(10,862,l)
);
}
);
width = 367;
}
);
},
{
glyphname = circumflexcomb_gravecomb;
lastChange = "2023-12-15 14:48:16 +0000";
layers = (
{
anchors = (
{
name = _top;
pos = (143,716);
},
{
name = top;
pos = (-7,0);
}
);
layerId = m01;
shapes = (
{
closed = 1;
nodes = (
(293,753,l),
(215,884,l),
(84,884,l),
(10,757,l),
(88,757,l),
(148,820,l),
(212,753,l)
);
},
{
closed = 1;
nodes = (
(346,872,l),
(284,969,l),
(182,971,l),
(270,872,l)
);
}
);
width = 356;
}
);
},
{
glyphname = circumflexcomb_hookabovecomb;
lastChange = "2023-12-15 14:48:16 +0000";
layers = (
{
anchors = (
{
name = _top;
pos = (150,716);
},
{
name = top;
}
);
layerId = m01;
shapes = (
{
closed = 1;
nodes = (
(292,753,l),
(214,884,l),
(84,884,l),
(10,757,l),
(92,757,l),
(148,820,l),
(212,753,l)
);
},
{
closed = 1;
nodes = (
(353,847,l),
(384,868,o),
(404,897,o),
(404,933,cs),
(404,970,o),
(370,1008,o),
(315,1008,cs),
(283,1008,o),
(247,996,o),
(226,980,c),
(226,913,l),
(244,933,o),
(263,944,o),
(285,944,cs),
(299,944,o),
(323,940,o),
(323,914,cs),
(323,894,o),
(300,863,o),
(279,847,c)
);
}
);
width = 445;
}
);
},
{
glyphname = gravemacroncomb;
lastChange = "2023-12-15 14:48:16 +0000";
layers = (
{
anchors = (
{
name = _top;
pos = (213,900);
},
{
name = top;
pos = (213,716);
}
);
layerId = m01;
shapes = (
{
closed = 1;
nodes = (
(242,547,l),
(393,547,l),
(393,599,l),
(200,599,l),
(71,716,l),
(32,687,l),
(170,547,l)
);
}
);
width = 425;
}
);
unicode = 7621;
},
{
glyphname = macronacutecomb;
lastChange = "2023-12-15 14:48:16 +0000";
layers = (
{
anchors = (
{
name = _top;
pos = (213,900);
},
{
name = top;
pos = (213,716);
}
);
layerId = m01;
shapes = (
{
closed = 1;
nodes = (
(183,547,l),
(255,547,l),
(393,687,l),
(354,716,l),
(225,599,l),
(32,599,l),
(32,547,l)
);
}
);
width = 425;
}
);
unicode = 7620;
},
{
glyphname = macrongravecomb;
lastChange = "2023-12-15 14:48:16 +0000";
layers = (
{
anchors = (
{
name = _top;
pos = (208,900);
},
{
name = top;
pos = (208,716);
}
);
layerId = m01;
shapes = (
{
closed = 1;
nodes = (
(383,576,l),
(245,716,l),
(183,716,l),
(32,716,l),
(32,664,l),
(215,664,l),
(344,547,l)
);
}
);
width = 415;
}
);
unicode = 7622;
},
{
glyphname = glottalstopmod;
lastChange = "2023-12-15 14:48:16 +0000";
layers = (
{
layerId = m01;
shapes = (
{
closed = 1;
nodes = (
(298,562,l),
(298,655,l),
(369,659,o),
(435,695,o),
(435,774,cs),
(435,837,o),
(394,883,o),
(302,882,cs),
(191,881,ls),
(135,881,o),
(88,840,o),
(88,781,c),
(193,781,l),
(193,810,o),
(212,827,o),
(244,827,cs),
(264,827,ls),
(298,827,o),
(325,817,o),
(325,787,cs),
(325,743,o),
(269,748,o),
(251,748,cs),
(184,748,l),
(184,562,l)
);
}
);
width = 553;
}
);
unicode = 704;
},
{
glyphname = ringhalfleft;
lastChange = "2023-12-15 14:48:16 +0000";
layers = (
{
anchors = (
{
name = _top;
pos = (146,716);
}
);
layerId = m01;
shapes = (
{
closed = 1;
nodes = (
(146,797,l),
(129,800,o),
(118,800,o),
(108,809,cs),
(98,817,o),
(90,830,o),
(90,846,cs),
(90,867,o),
(112,885,o),
(138,890,cs),
(148,892,l),
(147,966,l),
(107,966,o),
(80,951,o),
(63,939,cs),
(34,920,o),
(20,883,o),
(20,843,cs),
(20,809,o),
(36,769,o),
(69,744,cs),
(89,730,o),
(98,726,o),
(146,724,c)
);
}
);
width = 168;
}
);
metricLeft = period;
metricRight = period;
unicode = 703;
},
{
glyphname = ringhalfright;
lastChange = "2023-12-15 14:48:16 +0000";
layers = (
{
anchors = (
{
name = _top;
pos = (22,716);
}
);
layerId = m01;
shapes = (
{
closed = 1;
nodes = (
(70,726,o),
(79,730,o),
(99,744,cs),
(132,769,o),
(148,809,o),
(148,843,cs),
(148,883,o),
(134,920,o),
(105,939,cs),
(88,951,o),
(61,966,o),
(21,966,c),
(20,892,l),
(30,890,ls),
(56,885,o),
(78,867,o),
(78,846,cs),
(78,830,o),
(70,817,o),
(60,809,cs),
(50,800,o),
(39,800,o),
(22,797,c),
(22,724,l)
);
}
);
width = 168;
}
);
metricLeft = period;
metricRight = period;
unicode = 702;
},
{
glyphname = verticallinemod;
lastChange = "2023-12-15 15:20:00 +0000";
layers = (
{
layerId = m01;
shapes = (
{
closed = 1;
nodes = (
(175,328,l),
(175,716,l),
(29,716,l),
(29,328,l)
);
}
);
width = 204;
}
);
metricLeft = O;
metricRight = O;
unicode = 712;
},
